<svg xmlns="http://www.w3.org/2000/svg" xmlns:xlink="http://www.w3.org/1999/xlink" width="1000" zoomAndPan="magnify" viewBox="0 0 750 749.999995" height="1000" preserveAspectRatio="xMidYMid meet" version="1.0"><defs><clipPath id="25e44c3d46"><path d="M 11.117188 37.5 L 738.617188 37.5 L 738.617188 712.5 L 11.117188 712.5 Z M 11.117188 37.5 " clip-rule="nonzero"/></clipPath></defs><g clip-path="url(#25e44c3d46)"><path fill="#ffffff" d="M 726.96875 507.335938 C 696.132812 507.335938 680.480469 511.460938 665.347656 515.449219 C 651.011719 519.226562 637.472656 522.792969 609.652344 522.792969 C 581.804688 522.792969 568.257812 519.226562 553.914062 515.445312 C 538.777344 511.460938 523.125 507.335938 492.292969 507.335938 C 481.441406 507.335938 472.472656 507.851562 464.742188 508.6875 L 700.109375 348.585938 C 700.15625 348.554688 700.207031 348.519531 700.253906 348.484375 C 715.792969 337.566406 723.445312 321.460938 721.25 304.292969 C 719.035156 286.96875 706.691406 271.265625 690.535156 265.21875 C 675.203125 259.480469 658.675781 262.902344 645.035156 274.597656 L 514.121094 353.976562 C 520.667969 321.316406 517.871094 286.136719 505.269531 252.691406 C 491.054688 214.957031 465.734375 178.582031 438.929688 140.074219 C 417.453125 109.21875 395.246094 77.316406 378.472656 43.859375 C 376.5 39.925781 372.476562 37.4375 368.070312 37.4375 C 363.667969 37.4375 359.644531 39.925781 357.671875 43.859375 C 340.898438 77.316406 318.691406 109.21875 297.214844 140.074219 C 270.410156 178.582031 245.089844 214.957031 230.867188 252.707031 C 216.238281 291.695312 214.898438 333.011719 226.113281 369.964844 L 146.636719 316.152344 L 159.085938 299.746094 C 161.675781 296.335938 162.179688 291.777344 160.402344 287.882812 C 158.625 283.988281 154.851562 281.382812 150.578125 281.101562 L 41.613281 273.972656 C 37.941406 273.753906 34.386719 275.238281 32.003906 278.03125 C 29.617188 280.824219 28.691406 284.578125 29.503906 288.160156 L 55.84375 404.25 C 56.84375 408.664062 60.3125 412.097656 64.734375 413.050781 C 69.144531 414 73.734375 412.308594 76.464844 408.703125 L 90.777344 389.804688 L 258.644531 507.34375 C 258.3125 507.34375 257.996094 507.335938 257.660156 507.335938 C 226.824219 507.335938 211.171875 511.460938 196.035156 515.449219 C 181.703125 519.226562 168.164062 522.792969 140.34375 522.792969 C 112.523438 522.792969 98.984375 519.226562 84.648438 515.449219 C 69.511719 511.460938 53.863281 507.335938 23.027344 507.335938 C 16.601562 507.335938 11.390625 512.546875 11.390625 518.972656 L 11.390625 700.78125 C 11.390625 707.207031 16.601562 712.414062 23.027344 712.414062 L 726.96875 712.414062 C 733.394531 712.414062 738.605469 707.207031 738.605469 700.78125 L 738.605469 518.972656 C 738.605469 512.546875 733.394531 507.335938 726.96875 507.335938 Z M 252.648438 260.894531 C 265.84375 225.875 290.359375 190.65625 316.316406 153.367188 C 334.132812 127.769531 352.4375 101.46875 368.070312 73.78125 C 383.707031 101.46875 402.011719 127.769531 419.828125 153.367188 C 445.785156 190.65625 470.300781 225.875 483.496094 260.894531 C 501.796875 309.484375 496.597656 362.011719 469.582031 401.40625 C 446.046875 435.730469 409.042969 455.625 368.054688 455.996094 C 327.277344 455.722656 290.386719 435.953125 266.835938 401.746094 C 239.671875 362.289062 234.367188 309.628906 252.648438 260.894531 Z M 78.996094 366.820312 L 73.007812 374.726562 L 55.648438 298.214844 L 127.472656 302.910156 L 120.675781 311.871094 C 118.742188 314.414062 117.945312 317.640625 118.464844 320.796875 C 118.984375 323.945312 120.777344 326.746094 123.421875 328.539062 L 244.910156 410.789062 C 245.808594 412.1875 246.726562 413.574219 247.667969 414.941406 C 275.613281 455.53125 319.472656 478.976562 368.003906 479.269531 C 368.023438 479.269531 368.046875 479.269531 368.070312 479.269531 C 368.101562 479.269531 368.136719 479.269531 368.167969 479.269531 C 416.902344 478.859375 460.859375 455.277344 488.773438 414.566406 C 494.628906 406.027344 499.605469 396.96875 503.6875 387.519531 L 657.964844 293.972656 C 658.566406 293.605469 659.136719 293.183594 659.667969 292.710938 C 667.007812 286.175781 674.867188 284.203125 682.382812 287.015625 C 690.542969 290.070312 697.035156 298.386719 698.164062 307.246094 C 698.929688 313.203125 697.597656 321.878906 686.941406 329.398438 L 420.386719 510.710938 C 385.550781 534.390625 347.667969 533 308.972656 513.203125 C 304.296875 510.578125 299.632812 507.65625 295.007812 504.394531 L 94.945312 364.3125 C 89.816406 360.726562 82.773438 361.832031 78.996094 366.820312 Z M 78.71875 537.953125 C 93.855469 541.941406 109.507812 546.066406 140.34375 546.066406 C 171.179688 546.066406 186.832031 541.941406 201.96875 537.953125 C 216.300781 534.175781 229.839844 530.609375 257.660156 530.609375 C 277.992188 530.609375 290.300781 532.542969 299.546875 534.542969 C 332.667969 552.453125 374.214844 558.824219 409.601562 543.847656 C 420.300781 542.269531 428.570312 540.085938 436.582031 537.96875 C 450.910156 534.183594 464.449219 530.609375 492.292969 530.609375 C 520.113281 530.609375 533.652344 534.175781 547.984375 537.953125 C 563.132812 541.941406 578.789062 546.066406 609.652344 546.066406 C 640.488281 546.066406 656.140625 541.941406 671.273438 537.953125 C 683.453125 534.742188 695.058594 531.6875 715.332031 530.839844 L 715.332031 579.300781 C 692.019531 580.148438 678.5625 583.496094 665.496094 586.753906 C 651.128906 590.332031 637.554688 593.714844 609.652344 593.714844 C 581.726562 593.714844 568.140625 590.332031 553.761719 586.75 C 538.660156 582.988281 523.046875 579.097656 492.292969 579.097656 C 461.539062 579.097656 445.921875 582.988281 430.824219 586.753906 C 416.453125 590.332031 402.878906 593.714844 374.976562 593.714844 C 347.078125 593.714844 333.503906 590.332031 319.132812 586.753906 C 304.03125 582.988281 288.417969 579.097656 257.660156 579.097656 C 226.902344 579.097656 211.289062 582.988281 196.1875 586.753906 C 181.820312 590.332031 168.246094 593.714844 140.34375 593.714844 C 112.441406 593.714844 98.867188 590.332031 84.5 586.753906 C 71.433594 583.496094 57.972656 580.148438 34.660156 579.300781 L 34.660156 530.839844 C 54.9375 531.6875 66.542969 534.742188 78.71875 537.953125 Z M 657.148438 689.144531 L 683.515625 668.300781 C 688.554688 664.316406 689.414062 657 685.429688 651.957031 C 681.441406 646.914062 674.125 646.0625 669.085938 650.042969 L 619.621094 689.144531 L 565.484375 689.144531 L 591.855469 668.300781 C 596.894531 664.316406 597.75 657 593.765625 651.957031 C 589.78125 646.914062 582.464844 646.0625 577.421875 650.042969 L 527.957031 689.144531 L 473.824219 689.144531 L 500.191406 668.300781 C 505.234375 664.316406 506.089844 657 502.105469 651.957031 C 498.121094 646.914062 490.800781 646.0625 485.761719 650.042969 L 436.296875 689.144531 L 382.164062 689.144531 L 408.53125 668.300781 C 413.570312 664.316406 414.425781 657 410.445312 651.957031 C 406.457031 646.914062 399.140625 646.0625 394.101562 650.042969 L 344.636719 689.144531 L 290.5 689.144531 L 316.867188 668.300781 C 321.910156 664.316406 322.765625 657 318.78125 651.957031 C 314.796875 646.914062 307.480469 646.0625 302.4375 650.042969 L 252.972656 689.144531 L 198.839844 689.144531 L 225.207031 668.300781 C 230.25 664.316406 231.105469 657 227.121094 651.957031 C 223.136719 646.914062 215.820312 646.0625 210.777344 650.042969 L 161.3125 689.144531 L 107.160156 689.144531 L 133.511719 668.296875 C 138.550781 664.3125 139.402344 656.992188 135.414062 651.953125 C 131.429688 646.914062 124.113281 646.058594 119.070312 650.046875 L 69.648438 689.144531 L 34.660156 689.144531 L 34.660156 602.589844 C 55.011719 603.390625 66.65625 606.289062 78.871094 609.332031 C 93.972656 613.09375 109.585938 616.984375 140.34375 616.984375 C 171.101562 616.984375 186.714844 613.09375 201.816406 609.332031 C 216.183594 605.75 229.757812 602.367188 257.660156 602.367188 C 285.5625 602.367188 299.136719 605.75 313.503906 609.332031 C 328.605469 613.09375 344.21875 616.984375 374.976562 616.984375 C 405.734375 616.984375 421.347656 613.09375 436.449219 609.332031 C 450.820312 605.75 464.394531 602.367188 492.292969 602.367188 C 520.191406 602.367188 533.765625 605.75 548.136719 609.328125 C 563.246094 613.09375 578.871094 616.984375 609.652344 616.984375 C 640.410156 616.984375 656.023438 613.09375 671.125 609.332031 C 683.335938 606.289062 694.984375 603.390625 715.332031 602.589844 L 715.332031 689.144531 Z M 657.148438 689.144531 " fill-opacity="1" fill-rule="nonzero"/></g><path fill="#ffffff" d="M 359.867188 403.664062 C 359.898438 403.664062 359.933594 403.664062 359.964844 403.664062 C 366.34375 403.664062 371.542969 398.515625 371.597656 392.121094 C 371.648438 385.695312 366.484375 380.445312 360.058594 380.390625 C 344.191406 380.261719 329.859375 372.550781 320.730469 359.234375 C 310.070312 343.6875 308.0625 322.851562 315.363281 303.507812 C 317.628906 297.496094 314.59375 290.78125 308.582031 288.515625 C 302.570312 286.246094 295.855469 289.28125 293.585938 295.292969 C 283.609375 321.753906 286.578125 350.574219 301.539062 372.394531 C 315.027344 392.070312 336.289062 403.46875 359.867188 403.664062 Z M 359.867188 403.664062 " fill-opacity="1" fill-rule="nonzero"/></svg>