<svg xmlns="http://www.w3.org/2000/svg" xmlns:xlink="http://www.w3.org/1999/xlink" width="1000" zoomAndPan="magnify" viewBox="0 0 750 749.999995" height="1000" preserveAspectRatio="xMidYMid meet" version="1.0"><defs><clipPath id="a7dc924f9f"><path d="M 14.5625 8.144531 L 735.3125 8.144531 L 735.3125 741.644531 L 14.5625 741.644531 Z M 14.5625 8.144531 " clip-rule="nonzero"/></clipPath></defs><g clip-path="url(#a7dc924f9f)"><path fill="#ffffff" d="M 160.136719 520.835938 C 155.09375 520.835938 151.003906 516.746094 151.003906 511.703125 C 151.003906 506.664062 155.09375 502.574219 160.136719 502.574219 L 383.226562 502.574219 C 388.269531 502.574219 392.359375 506.664062 392.359375 511.703125 C 392.359375 516.746094 388.269531 520.835938 383.226562 520.835938 Z M 461.210938 181.417969 L 570.183594 252.277344 L 577.375 256.957031 L 577.796875 257.21875 L 638.378906 231.445312 C 638.777344 231.242188 639.191406 231.0625 639.617188 230.917969 L 656.199219 223.867188 C 654.09375 190.632812 646.90625 161.292969 634.636719 135.859375 C 622.703125 111.113281 605.917969 89.996094 584.292969 72.511719 C 571.539062 82.214844 557.328125 88.996094 541.660156 92.835938 C 523.84375 97.199219 504.214844 97.714844 482.792969 94.382812 C 482.03125 94.265625 481.304688 94.058594 480.625 93.769531 C 466.058594 87.984375 451.980469 85.34375 438.402344 85.84375 C 424.992188 86.335938 411.914062 89.960938 399.1875 96.699219 L 379.699219 108.453125 L 379.601562 108.515625 L 277.226562 170.265625 L 276.996094 171.191406 L 276.96875 171.296875 L 276.941406 171.417969 C 276.398438 173.914062 276.273438 176.28125 276.589844 178.507812 L 276.597656 178.570312 L 276.613281 178.660156 L 276.628906 178.777344 L 276.636719 178.808594 L 276.660156 178.957031 L 276.664062 178.976562 L 276.683594 179.105469 L 276.699219 179.179688 L 276.710938 179.253906 L 276.734375 179.382812 L 276.742188 179.402344 L 276.773438 179.550781 L 276.777344 179.582031 L 276.804688 179.699219 L 276.980469 180.425781 C 278.039062 184.347656 280.65625 188.105469 284.816406 191.679688 L 285.273438 192.097656 C 287.703125 194.121094 290.628906 196.082031 294.050781 197.980469 C 302.1875 199.902344 310.0625 200.3125 317.671875 199.210938 C 325.566406 198.0625 333.285156 195.253906 340.8125 190.789062 L 341.09375 190.628906 C 362.175781 178.398438 382.570312 171.394531 402.265625 169.617188 C 422.367188 167.804688 441.539062 171.445312 459.773438 180.527344 C 460.289062 180.785156 460.765625 181.082031 461.210938 181.417969 Z M 565.523438 270.964844 C 566.550781 273.683594 567.011719 276.613281 566.867188 279.535156 C 566.703125 282.890625 565.730469 286.25 563.886719 289.289062 L 563.621094 289.679688 C 560.519531 294.523438 555.710938 297.664062 550.46875 298.8125 C 545.199219 299.96875 539.5 299.136719 534.675781 296.050781 L 534.664062 296.066406 L 534.640625 296.050781 L 528.289062 291.984375 L 527.175781 291.246094 L 526.648438 290.929688 L 508.144531 279.09375 L 508.03125 279.023438 C 507.492188 278.589844 507.035156 278.25 506.660156 277.980469 C 506.453125 277.832031 506.242188 277.695312 506.027344 277.566406 L 504.957031 276.867188 L 504.96875 276.851562 L 498.53125 272.730469 L 498.507812 272.714844 L 498.476562 272.695312 L 498.453125 272.679688 L 498.421875 272.660156 L 498.398438 272.644531 L 478.636719 259.996094 C 474.402344 257.277344 468.761719 258.507812 466.046875 262.742188 C 463.328125 266.976562 464.558594 272.617188 468.792969 275.335938 L 488.222656 287.769531 L 488.257812 287.796875 C 488.601562 288.058594 488.992188 288.347656 489.4375 288.664062 L 489.757812 288.882812 C 490.1875 289.1875 490.644531 289.488281 491.109375 289.785156 L 497.488281 293.867188 L 497.511719 293.882812 L 497.539062 293.898438 L 497.585938 293.929688 L 497.613281 293.945312 L 497.640625 293.964844 L 497.6875 293.996094 L 516.976562 306.339844 L 517.332031 306.585938 C 522.171875 309.683594 525.3125 314.492188 526.460938 319.730469 C 527.621094 325.023438 526.792969 330.730469 523.699219 335.566406 C 520.617188 340.378906 515.8125 343.507812 510.558594 344.664062 C 505.417969 345.789062 499.878906 345.039062 495.136719 342.15625 L 494.757812 341.902344 L 480.453125 332.746094 L 478.277344 331.347656 L 478.273438 331.351562 L 477.078125 330.585938 C 464.085938 322.179688 453.746094 315.609375 443.488281 309.09375 L 425.335938 297.574219 C 421.101562 294.878906 415.480469 296.121094 412.78125 300.359375 C 410.085938 304.59375 411.328125 310.214844 415.5625 312.914062 L 433.714844 324.5 C 440.855469 329.035156 447.972656 333.558594 454.523438 337.742188 C 454.742188 337.914062 454.972656 338.074219 455.210938 338.226562 L 470.609375 348.085938 L 481.007812 354.773438 C 484.84375 357.242188 487.328125 361.078125 488.234375 365.261719 C 489.144531 369.457031 488.472656 373.988281 485.996094 377.835938 L 485.976562 377.863281 C 483.515625 381.679688 479.6875 384.15625 475.511719 385.058594 C 471.324219 385.96875 466.789062 385.296875 462.949219 382.824219 L 462.914062 382.800781 L 452.320312 375.988281 C 451.191406 375.039062 449.996094 374.152344 448.726562 373.335938 C 448.550781 373.21875 448.367188 373.113281 448.183594 373.011719 L 413.523438 350.839844 C 410.238281 346.066406 405.847656 341.957031 400.480469 338.949219 L 400.363281 338.886719 C 390.988281 333.671875 380.332031 332.742188 370.714844 335.449219 C 369.992188 335.652344 369.277344 335.875 368.566406 336.117188 C 368.355469 334.9375 368.085938 333.761719 367.761719 332.605469 C 365.28125 323.789062 359.515625 315.894531 351.054688 310.96875 C 350.71875 310.753906 350.371094 310.558594 350.015625 310.386719 C 341.394531 305.734375 331.660156 304.9375 322.859375 307.417969 C 321.894531 307.6875 320.941406 308 320.003906 308.347656 C 319.804688 307.347656 319.566406 306.351562 319.289062 305.371094 C 316.617188 295.867188 310.386719 287.355469 301.234375 282.058594 C 300.917969 281.851562 300.585938 281.667969 300.25 281.507812 C 290.976562 276.488281 280.488281 275.621094 271.003906 278.289062 C 269.867188 278.609375 268.742188 278.980469 267.636719 279.402344 C 267.417969 278.242188 267.152344 277.097656 266.832031 275.964844 C 264.113281 266.296875 257.714844 257.652344 248.3125 252.382812 L 248.195312 252.324219 C 240.910156 248.269531 232.851562 246.804688 225.105469 247.628906 L 224.984375 247.636719 L 224.871094 247.652344 L 224.582031 247.683594 L 224.519531 247.691406 L 224.296875 247.71875 L 224.050781 247.75 L 224.003906 247.757812 L 223.71875 247.796875 L 223.589844 247.8125 L 223.429688 247.839844 L 223.140625 247.882812 L 223.121094 247.886719 L 222.851562 247.929688 L 222.660156 247.960938 L 222.566406 247.976562 L 222.277344 248.027344 L 222.199219 248.042969 L 221.996094 248.078125 L 221.738281 248.128906 L 221.707031 248.132812 L 221.421875 248.191406 L 221.28125 248.21875 L 221.136719 248.25 L 220.851562 248.308594 L 220.820312 248.316406 L 220.566406 248.371094 L 220.363281 248.417969 L 220.285156 248.441406 L 220.003906 248.507812 L 219.90625 248.527344 L 219.453125 248.640625 L 219.4375 248.648438 L 219.15625 248.71875 L 219 248.761719 L 218.875 248.792969 L 218.59375 248.871094 L 218.550781 248.886719 L 218.316406 248.953125 L 218.035156 249.035156 L 217.757812 249.117188 L 217.644531 249.152344 L 217.480469 249.203125 L 217.203125 249.292969 L 217.199219 249.292969 L 216.925781 249.382812 L 216.75 249.4375 L 216.648438 249.472656 L 216.371094 249.566406 L 216.304688 249.589844 L 216.097656 249.664062 L 215.859375 249.746094 L 215.824219 249.761719 L 215.550781 249.859375 L 215.417969 249.910156 L 215.277344 249.960938 L 215.214844 249.984375 L 214.734375 250.175781 L 214.539062 250.25 L 214.464844 250.28125 L 214.195312 250.390625 L 214.101562 250.425781 L 213.925781 250.503906 L 213.667969 250.613281 L 213.65625 250.617188 L 213.390625 250.734375 L 212.59375 251.09375 L 212.378906 251.191406 L 212.328125 251.21875 L 212.066406 251.34375 L 211.953125 251.394531 L 211.804688 251.472656 L 211.542969 251.601562 L 211.527344 251.605469 L 211.28125 251.730469 L 210.761719 252 L 210.691406 252.039062 L 210.503906 252.140625 L 210.273438 252.261719 L 210.246094 252.277344 L 209.992188 252.421875 L 209.859375 252.492188 L 209.734375 252.566406 L 209.042969 252.96875 L 208.976562 253.003906 L 208.726562 253.160156 L 208.636719 253.210938 L 208.476562 253.3125 L 207.980469 253.625 L 207.832031 253.71875 L 207.734375 253.78125 L 207.488281 253.941406 L 207.433594 253.976562 L 207.253906 254.101562 L 207.019531 254.257812 L 206.785156 254.417969 L 206.648438 254.511719 L 206.550781 254.578125 L 206.320312 254.746094 L 206.089844 254.910156 L 205.875 255.066406 L 205.859375 255.078125 L 205.632812 255.246094 L 205.492188 255.351562 L 205.40625 255.417969 L 205.179688 255.589844 L 205.113281 255.640625 L 204.953125 255.765625 L 204.507812 256.117188 L 204.363281 256.234375 L 204.285156 256.296875 L 204.066406 256.480469 L 203.996094 256.539062 L 203.847656 256.664062 L 203.628906 256.847656 L 203.414062 257.035156 L 203.265625 257.160156 L 203.199219 257.222656 L 202.984375 257.410156 L 202.90625 257.476562 L 202.769531 257.601562 L 202.5625 257.796875 L 202.554688 257.800781 L 202.351562 257.992188 L 202.199219 258.128906 L 202.140625 258.1875 L 201.933594 258.386719 L 201.851562 258.464844 L 201.726562 258.585938 L 201.523438 258.789062 L 201.507812 258.800781 L 201.164062 259.144531 L 201.117188 259.199219 L 200.914062 259.402344 L 200.828125 259.492188 L 200.714844 259.609375 L 200.515625 259.820312 L 200.496094 259.84375 L 200.320312 260.035156 L 200.167969 260.203125 L 200.125 260.25 L 199.929688 260.460938 L 199.839844 260.5625 L 199.734375 260.675781 L 199.546875 260.898438 L 199.355469 261.117188 L 199.203125 261.300781 L 198.980469 261.5625 L 198.890625 261.675781 L 198.796875 261.789062 L 198.613281 262.011719 L 198.578125 262.054688 L 198.429688 262.242188 L 198.277344 262.4375 L 198.25 262.472656 L 198.070312 262.703125 L 197.976562 262.828125 L 197.890625 262.9375 L 197.679688 263.21875 L 197.542969 263.410156 L 197.390625 263.617188 L 197.367188 263.644531 L 197.199219 263.882812 L 197.101562 264.023438 L 196.859375 264.367188 L 196.820312 264.429688 L 196.691406 264.613281 L 196.539062 264.839844 L 196.527344 264.859375 L 196.363281 265.105469 L 196.269531 265.257812 L 195.734375 266.101562 L 195.726562 266.113281 L 195.476562 266.53125 L 195.417969 266.625 L 194.972656 267.40625 L 194.96875 267.40625 L 186.527344 282.464844 L 183.132812 279.207031 L 161.753906 258.671875 C 161.066406 258.011719 160.304688 257.480469 159.496094 257.078125 L 159.503906 257.066406 L 131.339844 243.039062 L 111.730469 233.273438 C 111.46875 233.128906 111.199219 232.992188 110.925781 232.875 L 93.609375 224.25 C 95.683594 190.859375 102.878906 161.386719 115.191406 135.863281 C 127.128906 111.113281 143.914062 89.992188 165.535156 72.511719 C 178.289062 82.21875 192.503906 88.996094 208.171875 92.832031 C 225.984375 97.199219 245.609375 97.714844 267.035156 94.378906 C 267.796875 94.261719 268.523438 94.054688 269.199219 93.765625 C 283.765625 87.984375 297.847656 85.34375 311.425781 85.84375 C 324.839844 86.335938 337.914062 89.960938 350.640625 96.699219 L 357.253906 100.691406 L 264.921875 156.382812 L 264.917969 156.382812 L 264.828125 156.441406 L 264.824219 156.441406 L 264.734375 156.496094 L 264.644531 156.558594 L 264.554688 156.613281 L 264.550781 156.613281 L 264.464844 156.675781 L 264.378906 156.734375 L 264.375 156.734375 L 264.289062 156.796875 L 264.207031 156.859375 L 264.203125 156.863281 L 264.121094 156.925781 L 264.117188 156.925781 L 264.035156 156.988281 L 264.03125 156.988281 L 263.953125 157.054688 L 263.949219 157.054688 L 263.867188 157.121094 L 263.789062 157.1875 L 263.785156 157.1875 L 263.628906 157.324219 L 263.625 157.324219 L 263.46875 157.464844 L 263.320312 157.605469 L 263.246094 157.679688 L 263.238281 157.679688 L 263.171875 157.753906 L 263.167969 157.753906 L 263.023438 157.902344 L 262.886719 158.050781 L 262.878906 158.054688 L 262.679688 158.285156 L 262.675781 158.285156 L 262.550781 158.441406 L 262.542969 158.445312 L 262.484375 158.523438 L 262.480469 158.523438 L 262.421875 158.601562 C 261.75 159.46875 261.242188 160.441406 260.921875 161.46875 C 260.683594 162.117188 260.460938 162.765625 260.253906 163.410156 L 260.230469 163.496094 C 259.960938 164.339844 259.71875 165.175781 259.5 166.007812 L 259.472656 166.101562 L 259.378906 166.480469 L 259.371094 166.507812 L 259.285156 166.863281 L 259.25 167.003906 L 259.195312 167.246094 L 259.136719 167.5 L 259.109375 167.621094 L 259.027344 168 L 259.027344 168.003906 L 258.949219 168.382812 L 258.925781 168.492188 L 258.875 168.761719 L 258.832031 168.984375 L 258.804688 169.140625 L 258.742188 169.476562 L 258.738281 169.515625 L 258.675781 169.894531 L 258.660156 169.96875 L 258.613281 170.269531 L 258.511719 170.945312 L 258.507812 171.015625 C 257.984375 174.886719 258.054688 178.65625 258.726562 182.316406 L 258.796875 182.667969 L 258.820312 182.796875 L 258.867188 183.023438 L 258.914062 183.253906 L 258.941406 183.375 L 259.015625 183.710938 L 259.019531 183.726562 L 259.097656 184.078125 L 259.121094 184.171875 L 259.363281 185.128906 C 261.398438 192.671875 265.941406 199.472656 272.976562 205.515625 L 273.34375 205.8125 L 273.359375 205.820312 L 273.378906 205.839844 C 277.089844 208.96875 281.476562 211.890625 286.535156 214.601562 C 287.207031 214.960938 287.90625 215.226562 288.609375 215.402344 L 288.605469 215.421875 C 299.414062 218.136719 309.957031 218.75 320.238281 217.257812 C 330.550781 215.757812 340.503906 212.164062 350.082031 206.480469 L 350.261719 206.371094 C 369.058594 195.476562 386.921875 189.257812 403.832031 187.738281 C 420.375 186.25 436.222656 189.242188 451.351562 196.71875 L 486.988281 219.890625 L 487.234375 220.058594 L 548.574219 259.941406 Z M 374.917969 90.039062 L 360.046875 81.074219 C 359.816406 80.917969 359.574219 80.777344 359.324219 80.644531 C 344.164062 72.589844 328.40625 68.253906 312.066406 67.652344 C 296.214844 67.066406 279.941406 70.03125 263.253906 76.558594 C 244.632812 79.351562 227.691406 78.878906 212.453125 75.144531 C 199.238281 71.910156 187.234375 66.171875 176.453125 57.941406 L 178.542969 52.257812 L 178.539062 52.253906 C 180.039062 48.179688 178.4375 43.488281 174.550781 41.238281 L 119.585938 9.453125 C 117.476562 8.226562 115.074219 7.953125 112.875 8.484375 L 112.671875 8.53125 L 112.664062 8.539062 L 112.464844 8.59375 L 112.453125 8.597656 L 112.046875 8.722656 L 112.03125 8.730469 L 111.820312 8.808594 L 111.636719 8.878906 L 111.617188 8.886719 C 110.394531 9.378906 109.265625 10.132812 108.34375 11.132812 C 80.328125 39.011719 58.492188 70.078125 42.847656 104.316406 C 27.152344 138.667969 17.710938 176.105469 14.539062 216.609375 C 14.230469 220.539062 16.464844 224.085938 19.855469 225.632812 L 67.070312 250.542969 C 70.777344 252.496094 75.226562 251.632812 77.960938 248.714844 L 85.953125 240.820312 L 98.144531 246.890625 L 98.144531 692.496094 C 98.144531 706.039062 103.695312 718.390625 112.640625 727.359375 L 112.664062 727.382812 L 112.683594 727.398438 L 112.699219 727.417969 C 121.671875 736.375 134.027344 741.9375 147.585938 741.9375 L 602.246094 741.9375 C 615.53125 741.9375 627.667969 736.59375 636.589844 727.949219 C 636.789062 727.78125 636.980469 727.605469 637.167969 727.417969 C 646.125 718.460938 651.6875 706.097656 651.6875 692.496094 L 651.6875 245.582031 L 663.582031 240.523438 L 671.871094 248.714844 C 674.605469 251.632812 679.054688 252.5 682.761719 250.542969 L 730.019531 225.609375 C 733.375 224.058594 735.585938 220.542969 735.292969 216.644531 C 732.121094 176.109375 722.679688 138.664062 706.984375 104.320312 C 691.339844 70.078125 669.503906 39.011719 641.488281 11.132812 C 640.5625 10.132812 639.4375 9.375 638.214844 8.886719 L 638.191406 8.878906 L 638.007812 8.808594 L 637.800781 8.730469 L 637.785156 8.722656 L 637.378906 8.597656 L 637.367188 8.59375 L 637.167969 8.539062 L 637.15625 8.53125 L 636.957031 8.484375 C 634.757812 7.949219 632.359375 8.226562 630.246094 9.453125 L 575.28125 41.238281 C 571.394531 43.488281 569.792969 48.179688 571.292969 52.253906 L 571.289062 52.257812 L 573.378906 57.941406 C 562.597656 66.171875 550.59375 71.910156 537.378906 75.148438 C 522.136719 78.878906 505.195312 79.351562 486.574219 76.5625 C 469.886719 70.035156 453.617188 67.0625 437.761719 67.652344 C 421.425781 68.253906 405.664062 72.589844 390.503906 80.644531 C 390.253906 80.777344 390.011719 80.917969 389.78125 81.074219 Z M 591.835938 55.292969 L 591.050781 53.160156 L 633.277344 28.742188 C 657.527344 53.855469 676.585938 81.570312 690.433594 111.882812 C 704.4375 142.535156 713.160156 175.9375 716.589844 212.09375 L 680.167969 231.3125 L 674.550781 225.761719 C 672.550781 188.898438 664.710938 156.285156 651.042969 127.941406 C 637.234375 99.304688 617.488281 75.085938 591.835938 55.292969 Z M 633.421875 253.351562 L 584.855469 274.011719 C 585.09375 276.125 585.164062 278.257812 585.058594 280.390625 C 584.746094 286.757812 582.875 293.132812 579.324219 298.90625 C 579.210938 299.117188 579.085938 299.320312 578.957031 299.527344 C 573.140625 308.613281 564.132812 314.496094 554.320312 316.644531 C 551.152344 317.34375 547.890625 317.644531 544.621094 317.535156 C 546.242188 326.828125 544.523438 336.761719 539.039062 345.339844 C 533.207031 354.449219 524.207031 360.347656 514.410156 362.496094 C 511.800781 363.070312 509.128906 363.375 506.441406 363.40625 C 507.722656 371.5625 506.140625 380.214844 501.335938 387.683594 L 501.332031 387.6875 C 496.125 395.777344 488.09375 401 479.363281 402.894531 C 474.578125 403.933594 469.570312 403.972656 464.6875 402.9375 C 464.640625 409.089844 462.972656 415.308594 459.53125 420.90625 C 459.417969 421.125 459.292969 421.332031 459.15625 421.542969 C 453.949219 429.636719 445.917969 434.867188 437.183594 436.761719 C 428.460938 438.652344 418.996094 437.230469 410.914062 432.027344 L 398.332031 423.933594 L 397.914062 423.660156 L 395.902344 427.246094 C 390.628906 436.65625 381.988281 443.050781 372.324219 445.769531 C 362.839844 448.4375 352.351562 447.570312 343.074219 442.550781 C 342.726562 442.382812 342.386719 442.195312 342.058594 441.984375 C 334.535156 437.621094 328.984375 431.070312 325.769531 423.585938 C 321.929688 426.640625 317.535156 428.867188 312.878906 430.179688 C 303.925781 432.695312 294.011719 431.828125 285.292969 426.972656 L 285.203125 426.921875 C 277.332031 422.507812 271.726562 415.554688 268.839844 407.65625 C 265.910156 409.375 262.777344 410.707031 259.527344 411.621094 C 249.914062 414.328125 239.253906 413.398438 229.882812 408.183594 L 229.765625 408.121094 C 220.363281 402.851562 213.964844 394.207031 211.246094 384.539062 C 209.074219 376.828125 209.242188 368.449219 212.082031 360.597656 C 204.953125 361.074219 197.613281 359.617188 190.90625 355.988281 C 190.5625 355.820312 190.222656 355.632812 189.894531 355.421875 C 180.765625 350.128906 174.542969 341.617188 171.871094 332.125 C 169.15625 322.46875 170.101562 311.765625 175.371094 302.363281 L 177.328125 298.878906 L 170.507812 292.332031 L 150.175781 272.804688 L 123.207031 259.375 L 116.410156 255.988281 L 116.410156 692.496094 C 116.410156 701.082031 119.90625 708.878906 125.539062 714.507812 L 125.574219 714.542969 C 131.203125 720.175781 138.996094 723.671875 147.585938 723.671875 L 602.246094 723.671875 C 610.628906 723.671875 618.25 720.339844 623.847656 714.945312 L 624.257812 714.507812 C 629.910156 708.855469 633.421875 701.058594 633.421875 692.496094 Z M 196.5625 301.855469 L 191.28125 311.277344 C 188.46875 316.296875 187.964844 322.023438 189.421875 327.203125 C 190.875 332.367188 194.292969 336.984375 199.308594 339.796875 L 199.363281 339.832031 C 204.371094 342.617188 210.070312 343.109375 215.230469 341.65625 C 219.617188 340.421875 223.605469 337.777344 226.429688 333.9375 L 234.347656 319.816406 L 234.359375 319.824219 C 234.699219 319.210938 235.050781 318.632812 235.390625 318.085938 C 235.6875 317.621094 235.949219 317.214844 236.179688 316.875 L 247.425781 296.8125 C 250.234375 291.792969 250.742188 286.066406 249.285156 280.886719 C 247.867188 275.855469 244.589844 271.34375 239.785156 268.515625 C 239.53125 268.386719 239.285156 268.25 239.046875 268.105469 C 235.199219 266.039062 230.953125 265.3125 226.871094 265.769531 L 226.855469 265.773438 L 226.609375 265.800781 L 226.558594 265.804688 L 226.40625 265.824219 L 226.367188 265.832031 L 226.09375 265.871094 L 225.875 265.90625 L 225.785156 265.917969 L 225.632812 265.945312 L 225.476562 265.972656 L 225.390625 265.988281 L 225.015625 266.058594 L 224.910156 266.082031 L 224.863281 266.089844 L 224.710938 266.125 L 224.664062 266.132812 L 224.554688 266.15625 L 224.425781 266.1875 L 224.40625 266.191406 L 224.253906 266.226562 L 224.1875 266.246094 L 224.101562 266.265625 L 223.949219 266.304688 L 223.949219 266.308594 L 223.347656 266.46875 L 223.230469 266.503906 L 223.199219 266.511719 L 222.898438 266.601562 L 222.75 266.648438 L 222.75 266.652344 L 222.601562 266.699219 L 222.511719 266.730469 L 222.453125 266.746094 L 222.304688 266.796875 L 222.273438 266.808594 L 221.863281 266.953125 L 221.800781 266.980469 L 221.332031 267.160156 L 221.28125 267.179688 C 218.1875 268.429688 215.367188 270.421875 213.136719 273.058594 L 213.117188 273.078125 C 212.898438 273.335938 212.6875 273.605469 212.480469 273.875 L 212.4375 273.933594 L 212.324219 274.085938 L 212.25 274.183594 L 212.167969 274.296875 L 212.160156 274.3125 L 211.886719 274.695312 L 211.867188 274.730469 L 211.796875 274.828125 L 211.714844 274.949219 L 211.707031 274.957031 L 211.621094 275.089844 L 211.570312 275.171875 L 211.148438 275.855469 L 211.117188 275.902344 L 211.011719 276.085938 L 210.957031 276.179688 L 210.878906 276.320312 L 196.675781 301.652344 Z M 251.867188 326.175781 L 243.734375 340.683594 C 243.152344 341.726562 242.53125 342.726562 241.867188 343.691406 L 230.65625 363.691406 C 227.839844 368.714844 227.339844 374.441406 228.792969 379.617188 C 230.210938 384.648438 233.488281 389.160156 238.292969 391.988281 C 238.546875 392.117188 238.789062 392.253906 239.027344 392.402344 C 243.964844 395.046875 249.546875 395.492188 254.605469 394.070312 C 259.773438 392.617188 264.390625 389.199219 267.199219 384.183594 L 278.625 363.804688 C 278.859375 363.382812 279.128906 362.984375 279.417969 362.617188 L 279.734375 362.125 L 279.863281 361.917969 L 279.882812 361.886719 L 279.902344 361.859375 L 279.917969 361.828125 L 280.28125 361.175781 L 289.042969 345.550781 L 299.882812 326.21875 C 302.691406 321.199219 303.195312 315.472656 301.738281 310.292969 C 300.289062 305.128906 296.871094 300.511719 291.851562 297.699219 L 291.796875 297.664062 C 286.789062 294.878906 281.085938 294.386719 275.929688 295.839844 C 270.765625 297.289062 266.148438 300.710938 263.332031 305.726562 L 251.90625 326.109375 L 251.886719 326.144531 Z M 75.285156 225.761719 C 77.28125 188.894531 85.113281 156.285156 98.785156 127.941406 C 112.597656 99.300781 132.34375 75.082031 158 55.285156 L 158.78125 53.160156 L 116.554688 28.742188 C 92.304688 53.855469 73.246094 81.570312 59.398438 111.878906 C 45.402344 142.515625 36.679688 175.925781 33.242188 212.09375 L 69.664062 231.316406 Z M 305.222656 353.980469 L 304.953125 354.464844 L 296.191406 370.089844 L 287.140625 386.230469 C 284.699219 390.589844 284.261719 395.570312 285.527344 400.070312 C 286.753906 404.421875 289.585938 408.332031 293.734375 410.792969 C 293.984375 410.917969 294.226562 411.054688 294.464844 411.203125 C 298.742188 413.476562 303.578125 413.859375 307.957031 412.628906 C 312.441406 411.367188 316.457031 408.398438 318.902344 404.035156 L 329.28125 385.519531 C 329.515625 385.101562 329.78125 384.710938 330.066406 384.34375 L 330.3125 383.957031 L 330.328125 383.929688 L 330.3125 383.921875 L 330.613281 383.441406 L 330.785156 383.132812 L 347.136719 353.96875 L 348.597656 351.363281 C 351.039062 347.003906 351.476562 342.023438 350.210938 337.53125 C 348.984375 333.167969 346.152344 329.253906 341.992188 326.796875 C 341.746094 326.671875 341.503906 326.535156 341.273438 326.390625 C 336.996094 324.113281 332.160156 323.734375 327.78125 324.964844 C 323.425781 326.191406 319.515625 329.023438 317.058594 333.171875 C 316.917969 333.457031 316.761719 333.730469 316.59375 333.992188 L 306.457031 352.078125 C 306.289062 352.378906 306.101562 352.667969 305.90625 352.941406 L 305.425781 353.675781 Z M 363.046875 362.882812 L 346.695312 392.046875 L 343.445312 397.839844 C 340.636719 402.859375 340.128906 408.589844 341.589844 413.765625 C 343.042969 418.929688 346.460938 423.550781 351.472656 426.359375 L 351.53125 426.394531 C 356.535156 429.175781 362.242188 429.671875 367.398438 428.222656 C 372.5625 426.769531 377.183594 423.351562 379.996094 418.332031 L 387.71875 404.558594 L 387.804688 404.402344 L 399.589844 383.375 L 399.644531 383.28125 L 399.691406 383.191406 L 399.71875 383.140625 L 399.742188 383.097656 L 399.792969 383.007812 L 399.84375 382.914062 L 399.847656 382.902344 L 399.890625 382.820312 L 399.9375 382.726562 L 399.972656 382.664062 L 399.988281 382.632812 L 400.035156 382.542969 L 400.082031 382.449219 L 400.089844 382.425781 L 400.171875 382.261719 L 400.207031 382.1875 L 400.21875 382.167969 L 400.304688 381.980469 L 400.320312 381.945312 L 400.347656 381.886719 L 400.390625 381.789062 L 400.433594 381.707031 L 400.433594 381.699219 L 400.476562 381.601562 L 400.519531 381.507812 L 400.558594 381.414062 L 400.601562 381.316406 L 400.640625 381.222656 L 400.640625 381.21875 L 400.679688 381.128906 L 400.714844 381.03125 L 400.753906 380.9375 L 400.792969 380.839844 L 400.832031 380.746094 L 400.839844 380.730469 L 400.871094 380.648438 L 400.90625 380.554688 L 400.933594 380.488281 L 400.941406 380.457031 L 400.976562 380.363281 L 401.011719 380.265625 L 401.023438 380.242188 L 401.046875 380.167969 L 401.078125 380.074219 L 401.113281 379.976562 L 401.144531 379.878906 L 401.179688 379.78125 L 401.210938 379.6875 L 401.242188 379.589844 L 401.273438 379.496094 L 401.273438 379.492188 L 401.304688 379.394531 L 401.351562 379.25 L 401.363281 379.199219 L 401.390625 379.105469 L 401.421875 379.003906 L 401.421875 379 L 401.449219 378.910156 L 401.625 378.25 L 401.628906 378.222656 L 401.652344 378.125 L 401.699219 377.933594 L 401.722656 377.832031 L 401.765625 377.636719 L 401.789062 377.539062 L 401.796875 377.496094 L 401.808594 377.441406 L 401.847656 377.242188 L 401.851562 377.242188 L 401.867188 377.140625 C 402.277344 374.988281 402.339844 372.789062 402.078125 370.640625 L 402.042969 370.308594 L 402.035156 370.226562 C 401.902344 369.292969 401.710938 368.367188 401.453125 367.453125 C 400.035156 362.421875 396.753906 357.910156 391.949219 355.078125 C 391.695312 354.953125 391.453125 354.816406 391.214844 354.667969 C 386.277344 352.023438 380.695312 351.574219 375.636719 352.996094 C 370.558594 354.425781 366 357.761719 363.175781 362.648438 Z M 420.320312 376.78125 L 420.304688 376.964844 L 420.296875 377.027344 L 420.296875 377.03125 L 420.257812 377.398438 L 420.25 377.460938 L 420.246094 377.507812 L 420.246094 377.523438 L 420.230469 377.648438 L 420.195312 377.957031 L 420.1875 377.980469 L 420.1875 378.019531 L 420.171875 378.144531 L 420.164062 378.203125 L 420.132812 378.453125 L 420.128906 378.453125 L 420.113281 378.578125 L 420.097656 378.699219 L 420.089844 378.761719 L 420.070312 378.882812 L 420.0625 378.929688 L 420.050781 379.007812 L 420.042969 379.070312 L 420.023438 379.195312 L 420.011719 379.257812 L 419.996094 379.378906 L 419.988281 379.402344 L 419.984375 379.441406 L 419.972656 379.503906 L 419.964844 379.566406 L 419.953125 379.625 L 419.941406 379.6875 L 419.933594 379.75 L 419.921875 379.8125 L 419.914062 379.871094 L 419.890625 379.996094 L 419.882812 380.058594 L 419.859375 380.183594 L 419.847656 380.242188 L 419.828125 380.347656 L 419.824219 380.367188 L 419.753906 380.738281 L 419.679688 381.105469 L 419.640625 381.289062 L 419.640625 381.292969 L 419.558594 381.664062 L 419.535156 381.757812 L 419.519531 381.847656 L 419.34375 382.585938 L 419.316406 382.699219 L 419.296875 382.769531 L 419.25 382.957031 L 419.152344 383.324219 L 419.105469 383.507812 L 419.066406 383.632812 L 419.054688 383.691406 L 419 383.875 L 418.933594 384.101562 L 418.894531 384.242188 L 418.839844 384.421875 L 418.796875 384.566406 L 418.785156 384.605469 L 418.785156 384.609375 L 418.675781 384.949219 L 418.671875 384.972656 L 418.652344 385.03125 L 418.613281 385.15625 L 418.554688 385.335938 L 418.5 385.496094 L 418.492188 385.519531 L 418.433594 385.703125 L 418.371094 385.882812 L 418.34375 385.957031 L 418.308594 386.066406 L 418.242188 386.246094 L 418.179688 386.417969 L 418.179688 386.429688 L 418.113281 386.609375 L 418.046875 386.792969 L 418.011719 386.878906 L 417.976562 386.972656 L 417.910156 387.152344 L 417.839844 387.332031 L 417.835938 387.335938 L 417.769531 387.515625 L 417.695312 387.695312 L 417.65625 387.796875 L 417.625 387.875 L 417.550781 388.050781 L 417.476562 388.234375 L 417.46875 388.25 L 417.402344 388.410156 L 417.324219 388.589844 L 417.273438 388.707031 L 417.246094 388.769531 L 417.167969 388.949219 L 416.929688 389.476562 L 416.925781 389.480469 L 416.867188 389.613281 L 416.84375 389.660156 L 416.761719 389.835938 L 416.679688 390.015625 L 416.65625 390.0625 L 416.59375 390.191406 L 416.507812 390.367188 L 416.4375 390.511719 L 416.421875 390.542969 L 416.332031 390.71875 L 416.246094 390.894531 L 416.210938 390.960938 L 416.152344 391.070312 L 416.0625 391.246094 L 415.980469 391.402344 L 415.972656 391.417969 L 415.785156 391.769531 L 415.742188 391.847656 L 415.691406 391.941406 L 415.59375 392.117188 L 415.5 392.289062 L 406.878906 407.667969 C 407.289062 407.992188 407.722656 408.304688 408.179688 408.597656 L 420.757812 416.691406 C 424.605469 419.164062 429.136719 419.835938 433.332031 418.925781 C 437.515625 418.019531 441.351562 415.53125 443.820312 411.695312 L 444.082031 411.3125 C 446.351562 407.5625 446.941406 403.1875 446.058594 399.117188 C 445.371094 395.9375 443.773438 392.957031 441.359375 390.636719 L 441.035156 390.4375 C 440.273438 389.96875 439.609375 389.410156 439.039062 388.777344 L 438.882812 388.675781 L 438.425781 388.363281 Z M 444.082031 411.3125 C 444.496094 410.734375 444.96875 410.214844 445.484375 409.761719 Z M 419.929688 520.835938 C 414.886719 520.835938 410.796875 516.746094 410.796875 511.703125 C 410.796875 506.664062 414.886719 502.574219 419.929688 502.574219 L 574.179688 502.574219 C 579.222656 502.574219 583.3125 506.664062 583.3125 511.703125 C 583.3125 516.746094 579.222656 520.835938 574.179688 520.835938 Z M 595.542969 645.390625 C 600.585938 645.390625 604.675781 649.480469 604.675781 654.519531 C 604.675781 659.5625 600.585938 663.652344 595.542969 663.652344 C 594.789062 663.652344 593.117188 663.773438 590.875 663.929688 C 575.480469 665.015625 539.914062 667.523438 536.472656 651.40625 C 532.453125 657.835938 526.371094 670.039062 522.136719 678.546875 C 520.304688 682.21875 518.789062 685.261719 517.316406 687.816406 C 514.816406 692.167969 509.253906 693.667969 504.902344 691.167969 C 501.707031 689.328125 500.050781 685.839844 500.386719 682.394531 L 500.375 682.394531 C 502.195312 664.355469 496.878906 657.722656 488.464844 656.875 C 474.636719 655.480469 453.03125 664.144531 434.824219 671.449219 C 415.65625 679.140625 399.574219 685.59375 390.921875 679.144531 C 381.007812 671.769531 386.808594 652.132812 420.398438 607.019531 C 423.386719 602.980469 429.089844 602.136719 433.128906 605.125 C 437.167969 608.117188 438.011719 613.820312 435.019531 617.859375 C 409.523438 652.109375 401.15625 664.074219 401.761719 664.519531 C 402.25 664.886719 414.019531 660.167969 428.046875 654.542969 C 448.144531 646.480469 471.992188 636.914062 490.246094 638.753906 C 501.082031 639.851562 509.753906 644.171875 514.632812 653.492188 C 521.003906 642.246094 528.589844 631.523438 536.171875 629.339844 C 536.632812 629.199219 537.113281 629.089844 537.601562 629.023438 C 546.070312 627.851562 552.28125 633.007812 554.367188 648.128906 C 554.378906 648.222656 579.03125 646.484375 589.589844 645.738281 C 592.421875 645.535156 594.527344 645.390625 595.542969 645.390625 Z M 538.886719 647.984375 C 539.351562 647.453125 539.734375 647.140625 540.023438 647.078125 L 540.097656 647.070312 C 541.429688 646.886719 540.265625 647.273438 538.886719 647.984375 Z M 160.136719 573.320312 C 155.09375 573.320312 151.003906 569.230469 151.003906 564.1875 C 151.003906 559.148438 155.09375 555.058594 160.136719 555.058594 L 456.246094 555.058594 C 461.289062 555.058594 465.378906 559.148438 465.378906 564.1875 C 465.378906 569.230469 461.289062 573.320312 456.246094 573.320312 Z M 160.136719 573.320312 " fill-opacity="1" fill-rule="evenodd"/></g></svg>