<svg xmlns="http://www.w3.org/2000/svg" xmlns:xlink="http://www.w3.org/1999/xlink" width="1000" zoomAndPan="magnify" viewBox="0 0 750 749.999995" height="1000" preserveAspectRatio="xMidYMid meet" version="1.0"><defs><clipPath id="e043e87ca3"><path d="M 9.679688 43 L 740.179688 43 L 740.179688 707 L 9.679688 707 Z M 9.679688 43 " clip-rule="nonzero"/></clipPath></defs><g clip-path="url(#e043e87ca3)"><path fill="#ffffff" d="M 735.171875 282.457031 C 732.730469 270.109375 717.433594 271.085938 706.511719 274.515625 C 704.851562 275.207031 703.214844 275.957031 701.605469 276.769531 C 700 277.578125 698.421875 278.449219 696.878906 279.375 C 695.332031 280.300781 693.824219 281.28125 692.351562 282.320312 C 690.878906 283.355469 689.449219 284.445312 688.054688 285.585938 C 686.660156 286.730469 685.3125 287.917969 684.007812 289.160156 C 682.703125 290.402344 681.441406 291.6875 680.230469 293.019531 C 679.019531 294.351562 677.859375 295.726562 676.75 297.144531 C 675.636719 298.5625 674.582031 300.019531 673.574219 301.515625 C 672.570312 303.007812 671.625 304.539062 670.730469 306.105469 C 669.839844 307.667969 669.007812 309.261719 668.230469 310.890625 C 667.457031 312.515625 666.742188 314.167969 666.085938 315.84375 C 665.433594 317.523438 664.839844 319.222656 664.308594 320.941406 C 663.78125 322.664062 663.3125 324.402344 662.910156 326.15625 C 662.507812 327.914062 662.171875 329.679688 661.898438 331.460938 C 661.625 333.242188 661.414062 335.027344 661.273438 336.824219 C 661.132812 338.621094 661.054688 340.417969 661.042969 342.21875 C 660.964844 358.917969 659.347656 375.464844 656.183594 391.859375 C 653.023438 408.253906 648.375 424.21875 642.238281 439.746094 C 640.023438 438.761719 637.75 437.9375 635.417969 437.277344 C 580.734375 418.28125 539.242188 455.664062 498.488281 486.054688 C 490.402344 479.527344 481.882812 473.628906 472.929688 468.351562 C 463.976562 463.078125 454.683594 458.488281 445.054688 454.582031 C 435.425781 450.671875 425.5625 447.492188 415.46875 445.035156 C 405.371094 442.582031 395.148438 440.875 384.800781 439.925781 L 384.800781 349.398438 C 384.910156 349.4375 438.507812 323.644531 438.542969 324.144531 C 512.480469 381.15625 626.6875 327.046875 629.625 233.910156 C 629.71875 232.164062 629.605469 230.433594 629.28125 228.714844 C 628.960938 226.996094 628.4375 225.339844 627.71875 223.746094 C 627 222.15625 626.101562 220.667969 625.027344 219.292969 C 623.949219 217.914062 622.726562 216.683594 621.355469 215.597656 C 619.230469 213.816406 617.046875 212.109375 614.800781 210.484375 C 612.550781 208.855469 610.25 207.3125 607.894531 205.851562 C 605.539062 204.386719 603.132812 203.011719 600.679688 201.71875 C 598.226562 200.425781 595.726562 199.226562 593.1875 198.113281 C 590.648438 197 588.070312 195.976562 585.457031 195.046875 C 582.84375 194.117188 580.203125 193.28125 577.53125 192.542969 C 574.859375 191.800781 572.164062 191.15625 569.445312 190.605469 C 566.726562 190.058594 563.992188 189.605469 561.242188 189.25 C 558.488281 188.898438 555.730469 188.640625 552.960938 188.484375 C 550.191406 188.328125 547.421875 188.269531 544.648438 188.308594 C 541.875 188.347656 539.105469 188.488281 536.34375 188.726562 C 533.582031 188.960938 530.828125 189.296875 528.089844 189.730469 C 525.351562 190.164062 522.628906 190.695312 519.929688 191.324219 C 517.226562 191.949219 514.550781 192.671875 511.902344 193.492188 C 509.253906 194.308594 506.636719 195.222656 504.050781 196.226562 C 501.464844 197.230469 498.917969 198.328125 496.414062 199.511719 C 493.90625 200.699219 491.445312 201.972656 489.027344 203.335938 C 486.613281 204.699219 484.25 206.144531 481.9375 207.675781 C 479.621094 209.203125 477.367188 210.816406 475.167969 212.507812 C 472.972656 214.199219 470.835938 215.964844 468.765625 217.808594 C 466.691406 219.652344 464.6875 221.566406 462.753906 223.550781 C 460.816406 225.539062 458.953125 227.589844 457.164062 229.710938 C 455.375 231.828125 453.664062 234.007812 452.03125 236.25 C 450.398438 238.492188 448.84375 240.789062 447.375 243.140625 C 445.90625 245.492188 444.519531 247.890625 443.222656 250.34375 C 441.921875 252.792969 440.710938 255.285156 439.589844 257.824219 C 438.46875 260.359375 437.441406 262.933594 436.503906 265.542969 C 435.566406 268.152344 434.722656 270.792969 433.972656 273.460938 C 433.222656 276.132812 432.570312 278.824219 432.011719 281.542969 C 431.453125 284.257812 430.992188 286.992188 430.628906 289.742188 C 430.269531 292.492188 430.003906 295.25 429.835938 298.019531 C 429.671875 300.789062 429.605469 303.558594 429.636719 306.332031 L 384.800781 327.566406 L 384.800781 255.765625 C 387.34375 254.644531 389.839844 253.433594 392.292969 252.132812 C 394.75 250.832031 397.152344 249.445312 399.503906 247.96875 C 401.859375 246.492188 404.15625 244.933594 406.394531 243.292969 C 408.632812 241.648438 410.8125 239.925781 412.925781 238.125 C 415.039062 236.324219 417.085938 234.449219 419.0625 232.5 C 421.042969 230.550781 422.945312 228.53125 424.777344 226.441406 C 426.609375 224.355469 428.363281 222.203125 430.035156 219.988281 C 431.710938 217.769531 433.304688 215.496094 434.8125 213.164062 C 436.320312 210.835938 437.746094 208.449219 439.082031 206.015625 C 440.417969 203.582031 441.660156 201.101562 442.816406 198.574219 C 443.972656 196.050781 445.035156 193.484375 446.003906 190.882812 C 446.972656 188.277344 447.847656 185.644531 448.625 182.976562 C 449.402344 180.3125 450.082031 177.621094 450.664062 174.902344 C 451.246094 172.1875 451.726562 169.453125 452.109375 166.703125 C 452.492188 163.953125 452.773438 161.191406 452.957031 158.421875 C 453.140625 155.648438 453.21875 152.875 453.199219 150.097656 C 453.179688 147.320312 453.0625 144.546875 452.839844 141.777344 C 452.617188 139.007812 452.296875 136.253906 451.875 133.507812 C 451.453125 130.761719 450.929688 128.035156 450.3125 125.328125 C 449.691406 122.621094 448.972656 119.941406 448.15625 117.285156 C 447.34375 114.628906 446.433594 112.007812 445.425781 109.417969 C 444.421875 106.828125 443.320312 104.28125 442.128906 101.773438 C 440.941406 99.261719 439.660156 96.800781 438.289062 94.382812 C 436.917969 91.96875 435.460938 89.605469 433.917969 87.296875 C 432.378906 84.984375 430.753906 82.734375 429.046875 80.542969 C 427.339844 78.351562 425.558594 76.222656 423.699219 74.160156 C 421.835938 72.101562 419.902344 70.109375 417.898438 68.1875 C 415.894531 66.265625 413.820312 64.417969 411.679688 62.648438 C 409.539062 60.878906 407.339844 59.1875 405.078125 57.574219 C 402.8125 55.964844 400.496094 54.4375 398.121094 52.996094 C 395.75 51.554688 393.324219 50.199219 390.851562 48.933594 C 388.378906 47.667969 385.867188 46.496094 383.308594 45.410156 C 382.011719 44.859375 380.679688 44.4375 379.304688 44.140625 C 377.929688 43.84375 376.539062 43.679688 375.132812 43.648438 C 373.726562 43.617188 372.328125 43.71875 370.941406 43.953125 C 369.554688 44.1875 368.199219 44.546875 366.882812 45.039062 C 363.984375 46.09375 361.136719 47.261719 358.335938 48.546875 C 355.53125 49.828125 352.785156 51.226562 350.097656 52.730469 C 347.40625 54.234375 344.78125 55.847656 342.222656 57.566406 C 339.664062 59.28125 337.175781 61.101562 334.765625 63.019531 C 332.351562 64.9375 330.019531 66.949219 327.769531 69.054688 C 325.519531 71.160156 323.355469 73.355469 321.285156 75.636719 C 319.210938 77.917969 317.230469 80.277344 315.347656 82.71875 C 313.464844 85.15625 311.683594 87.671875 310.003906 90.253906 C 308.324219 92.839844 306.75 95.484375 305.285156 98.195312 C 303.816406 100.910156 302.460938 103.675781 301.21875 106.496094 C 299.976562 109.316406 298.847656 112.179688 297.835938 115.09375 C 296.824219 118.003906 295.929688 120.953125 295.15625 123.933594 C 294.382812 126.917969 293.730469 129.929688 293.199219 132.964844 C 292.667969 136 292.261719 139.054688 291.976562 142.125 C 291.691406 145.191406 291.53125 148.269531 291.492188 151.351562 C 291.457031 154.433594 291.542969 157.511719 291.757812 160.585938 C 292.011719 163.21875 292.363281 165.839844 292.800781 168.445312 C 293.242188 171.054688 293.769531 173.640625 294.390625 176.210938 C 295.011719 178.785156 295.71875 181.328125 296.515625 183.851562 C 297.316406 186.371094 298.199219 188.863281 299.171875 191.320312 C 300.140625 193.78125 301.195312 196.203125 302.335938 198.589844 C 303.476562 200.976562 304.699219 203.320312 306 205.621094 C 307.304688 207.921875 308.6875 210.175781 310.144531 212.378906 C 311.605469 214.585938 313.140625 216.734375 314.75 218.832031 C 316.359375 220.929688 318.042969 222.96875 319.792969 224.949219 C 321.546875 226.929688 323.367188 228.847656 325.25 230.703125 C 327.136719 232.554688 329.085938 234.34375 331.09375 236.058594 C 333.105469 237.777344 335.171875 239.425781 337.296875 241 C 339.421875 242.574219 341.601562 244.070312 343.828125 245.492188 C 346.058594 246.914062 348.335938 248.257812 350.65625 249.523438 C 352.980469 250.785156 355.34375 251.96875 357.75 253.066406 C 360.15625 254.164062 362.59375 255.179688 365.070312 256.109375 L 365.070312 327.566406 L 320.234375 306.328125 C 320.265625 303.554688 320.199219 300.785156 320.03125 298.019531 C 319.867188 295.25 319.601562 292.492188 319.238281 289.742188 C 318.875 286.992188 318.414062 284.261719 317.855469 281.542969 C 317.300781 278.828125 316.644531 276.136719 315.894531 273.464844 C 315.144531 270.796875 314.300781 268.15625 313.363281 265.546875 C 312.425781 262.9375 311.398438 260.363281 310.277344 257.828125 C 309.15625 255.292969 307.945312 252.796875 306.644531 250.347656 C 305.347656 247.898438 303.960938 245.496094 302.492188 243.148438 C 301.023438 240.796875 299.46875 238.5 297.835938 236.257812 C 296.203125 234.019531 294.492188 231.839844 292.703125 229.71875 C 290.914062 227.601562 289.050781 225.550781 287.117188 223.5625 C 285.179688 221.578125 283.175781 219.664062 281.105469 217.820312 C 279.035156 215.976562 276.898438 214.210938 274.699219 212.519531 C 272.503906 210.828125 270.246094 209.214844 267.933594 207.6875 C 265.621094 206.15625 263.257812 204.710938 260.84375 203.347656 C 258.425781 201.988281 255.964844 200.710938 253.460938 199.527344 C 250.953125 198.339844 248.410156 197.242188 245.824219 196.238281 C 243.238281 195.234375 240.621094 194.324219 237.972656 193.503906 C 235.324219 192.6875 232.648438 191.960938 229.949219 191.335938 C 227.246094 190.707031 224.527344 190.175781 221.789062 189.742188 C 219.046875 189.308594 216.296875 188.972656 213.535156 188.734375 C 210.773438 188.496094 208.003906 188.359375 205.230469 188.316406 C 202.460938 188.277344 199.6875 188.335938 196.921875 188.492188 C 194.152344 188.648438 191.390625 188.90625 188.640625 189.257812 C 185.890625 189.613281 183.15625 190.0625 180.4375 190.609375 C 177.722656 191.160156 175.027344 191.804688 172.351562 192.542969 C 169.679688 193.285156 167.039062 194.121094 164.425781 195.050781 C 161.8125 195.976562 159.238281 197 156.695312 198.113281 C 154.15625 199.222656 151.660156 200.425781 149.207031 201.714844 C 146.75 203.007812 144.34375 204.382812 141.988281 205.84375 C 139.632812 207.308594 137.332031 208.851562 135.085938 210.476562 C 132.839844 212.101562 130.652344 213.808594 128.527344 215.589844 C 127.152344 216.671875 125.925781 217.902344 124.84375 219.28125 C 123.765625 220.660156 122.863281 222.148438 122.144531 223.746094 C 121.421875 225.339844 120.902344 227 120.582031 228.722656 C 120.257812 230.445312 120.148438 232.179688 120.246094 233.929688 C 123.222656 327.070312 237.332031 381.136719 311.292969 324.15625 C 311.300781 323.492188 364.949219 349.566406 365.070312 349.398438 L 365.070312 438.96875 C 354.011719 439.050781 343.019531 439.949219 332.097656 441.671875 C 321.171875 443.394531 310.433594 445.917969 299.886719 449.238281 C 289.339844 452.5625 279.09375 456.652344 269.15625 461.503906 C 259.21875 466.355469 249.695312 471.917969 240.585938 478.1875 C 228.636719 469.523438 216.316406 460.429688 204.324219 451.742188 C 200.980469 449.335938 197.5 447.140625 193.886719 445.15625 C 190.277344 443.171875 186.558594 441.414062 182.730469 439.882812 C 178.90625 438.351562 175.003906 437.054688 171.019531 435.996094 C 167.039062 434.9375 163.003906 434.121094 158.925781 433.554688 C 154.84375 432.984375 150.742188 432.664062 146.621094 432.589844 C 142.5 432.519531 138.390625 432.695312 134.292969 433.121094 C 130.195312 433.546875 126.136719 434.222656 122.117188 435.140625 C 118.101562 436.058594 114.15625 437.21875 110.277344 438.613281 C 109.457031 438.878906 108.703125 439.28125 107.917969 439.621094 C 101.6875 424.144531 96.960938 408.21875 93.742188 391.84375 C 90.523438 375.472656 88.867188 358.941406 88.777344 342.257812 C 89.804688 309.378906 58.019531 265.324219 21.769531 273.78125 C 20.855469 274.097656 20.003906 274.535156 19.210938 275.089844 C 18.421875 275.644531 17.722656 276.300781 17.113281 277.050781 C 16.507812 277.804688 16.015625 278.625 15.640625 279.515625 C 15.261719 280.40625 15.015625 281.332031 14.902344 282.289062 C -23.164062 500.394531 152.050781 707.699219 373.628906 706.316406 C 596.199219 709.371094 773.109375 501.59375 735.171875 282.457031 Z M 493.875 222.597656 C 496.074219 221.273438 498.320312 220.03125 500.617188 218.878906 C 502.910156 217.726562 505.246094 216.664062 507.621094 215.6875 C 510 214.714844 512.410156 213.835938 514.855469 213.046875 C 517.296875 212.261719 519.769531 211.566406 522.265625 210.972656 C 524.765625 210.375 527.28125 209.875 529.820312 209.46875 C 532.355469 209.066406 534.902344 208.761719 537.464844 208.554688 C 540.023438 208.347656 542.585938 208.242188 545.15625 208.230469 C 547.722656 208.222656 550.289062 208.3125 552.847656 208.5 C 555.410156 208.6875 557.960938 208.976562 560.5 209.359375 C 563.039062 209.746094 565.558594 210.226562 568.0625 210.804688 C 570.5625 211.386719 573.039062 212.058594 575.492188 212.828125 C 577.941406 213.597656 580.359375 214.460938 582.742188 215.417969 C 585.125 216.375 587.46875 217.421875 589.769531 218.558594 C 592.074219 219.695312 594.328125 220.917969 596.539062 222.230469 C 598.746094 223.539062 600.902344 224.933594 603.003906 226.410156 C 605.105469 227.886719 607.144531 229.441406 609.128906 231.074219 C 611.4375 304.363281 520.960938 352.839844 459.394531 314.0625 L 546.40625 272.847656 L 537.957031 255.019531 L 449.964844 296.699219 C 450.273438 292.992188 450.785156 289.316406 451.507812 285.667969 C 452.230469 282.023438 453.160156 278.425781 454.289062 274.882812 C 455.417969 271.34375 456.742188 267.875 458.265625 264.480469 C 459.789062 261.089844 461.496094 257.792969 463.394531 254.59375 C 465.289062 251.398438 467.359375 248.316406 469.601562 245.351562 C 471.847656 242.386719 474.25 239.558594 476.816406 236.867188 C 479.382812 234.171875 482.089844 231.636719 484.941406 229.25 C 487.792969 226.863281 490.769531 224.648438 493.875 222.597656 Z M 197.234375 318.097656 C 195.203125 317.136719 193.203125 316.109375 191.242188 315.011719 C 189.277344 313.917969 187.355469 312.757812 185.46875 311.535156 C 183.582031 310.308594 181.742188 309.023438 179.941406 307.675781 C 178.144531 306.328125 176.390625 304.917969 174.6875 303.453125 C 172.984375 301.988281 171.332031 300.464844 169.730469 298.886719 C 168.128906 297.3125 166.582031 295.679688 165.089844 294 C 163.597656 292.320312 162.160156 290.589844 160.785156 288.8125 C 159.410156 287.035156 158.09375 285.210938 156.839844 283.347656 C 155.589844 281.480469 154.398438 279.574219 153.273438 277.628906 C 152.148438 275.679688 151.089844 273.699219 150.097656 271.683594 C 149.105469 269.664062 148.183594 267.617188 147.328125 265.539062 C 146.472656 263.457031 145.691406 261.351562 144.976562 259.21875 C 144.265625 257.089844 143.625 254.933594 143.058594 252.757812 C 142.488281 250.585938 141.996094 248.394531 141.574219 246.183594 C 141.152344 243.976562 140.808594 241.757812 140.535156 239.523438 C 140.265625 237.292969 140.070312 235.054688 139.949219 232.808594 C 141.605469 231.324219 143.3125 229.898438 145.066406 228.53125 C 146.824219 227.164062 148.625 225.859375 150.472656 224.621094 C 152.316406 223.378906 154.203125 222.203125 156.132812 221.089844 C 158.0625 219.980469 160.027344 218.9375 162.027344 217.964844 C 164.027344 216.988281 166.058594 216.085938 168.121094 215.253906 C 170.183594 214.417969 172.273438 213.660156 174.390625 212.972656 C 176.507812 212.285156 178.644531 211.667969 180.804688 211.128906 C 182.960938 210.589844 185.136719 210.128906 187.328125 209.738281 C 189.519531 209.351562 191.71875 209.039062 193.933594 208.804688 C 196.144531 208.566406 198.363281 208.410156 200.585938 208.328125 C 202.8125 208.246094 205.035156 208.242188 207.257812 208.316406 C 209.484375 208.386719 211.703125 208.539062 213.914062 208.765625 C 216.128906 208.992188 218.332031 209.296875 220.523438 209.675781 C 222.714844 210.058594 224.894531 210.511719 227.054688 211.042969 C 229.214844 211.574219 231.355469 212.179688 233.472656 212.863281 C 235.589844 213.542969 237.683594 214.292969 239.75 215.121094 C 241.816406 215.945312 243.851562 216.839844 245.855469 217.808594 C 247.859375 218.773438 249.828125 219.808594 251.761719 220.914062 C 253.691406 222.015625 255.585938 223.1875 257.4375 224.421875 C 259.285156 225.65625 261.09375 226.953125 262.855469 228.3125 C 264.613281 229.671875 266.328125 231.09375 267.988281 232.570312 C 269.652344 234.050781 271.261719 235.585938 272.816406 237.175781 C 274.371094 238.769531 275.871094 240.410156 277.3125 242.105469 C 278.753906 243.800781 280.132812 245.542969 281.453125 247.335938 C 282.773438 249.125 284.03125 250.960938 285.226562 252.839844 C 286.417969 254.71875 287.542969 256.632812 288.605469 258.589844 C 289.664062 260.546875 290.65625 262.539062 291.578125 264.5625 C 292.5 266.589844 293.347656 268.644531 294.128906 270.726562 C 294.90625 272.8125 295.613281 274.921875 296.246094 277.054688 C 296.878906 279.1875 297.433594 281.339844 297.917969 283.511719 C 298.402344 285.683594 298.808594 287.871094 299.136719 290.070312 C 299.46875 292.273438 299.722656 294.480469 299.902344 296.699219 L 211.914062 255.019531 L 203.464844 272.847656 L 290.476562 314.0625 C 286.980469 316.105469 283.371094 317.929688 279.652344 319.535156 C 275.933594 321.140625 272.128906 322.515625 268.242188 323.65625 C 264.355469 324.800781 260.414062 325.703125 256.417969 326.367188 C 252.421875 327.03125 248.402344 327.449219 244.355469 327.625 C 240.308594 327.800781 236.265625 327.730469 232.226562 327.414062 C 228.1875 327.097656 224.183594 326.539062 220.214844 325.734375 C 216.242188 324.929688 212.335938 323.890625 208.492188 322.613281 C 204.648438 321.335938 200.894531 319.832031 197.234375 318.097656 Z M 365.070312 460.601562 L 365.070312 620.257812 C 358.898438 604.464844 351.265625 589.414062 342.167969 575.105469 C 333.070312 560.796875 322.679688 547.496094 311 535.203125 C 321.234375 495.183594 341.929688 466.945312 365.070312 460.601562 Z M 384.800781 460.601562 C 407.945312 466.941406 428.640625 495.179688 438.863281 535.214844 C 427.1875 547.5 416.800781 560.796875 407.703125 575.097656 C 398.609375 589.398438 390.972656 604.441406 384.800781 620.226562 Z M 454.953125 519.683594 C 452.304688 510.675781 448.859375 501.980469 444.621094 493.601562 C 440.378906 485.222656 435.414062 477.300781 429.722656 469.832031 C 448.542969 476.640625 465.941406 486.078125 481.917969 498.136719 C 472.546875 504.84375 463.558594 512.027344 454.953125 519.683594 Z M 311.40625 158.929688 C 311.238281 156.386719 311.175781 153.839844 311.210938 151.289062 C 311.25 148.738281 311.390625 146.195312 311.632812 143.65625 C 311.875 141.117188 312.21875 138.59375 312.667969 136.082031 C 313.113281 133.574219 313.660156 131.085938 314.308594 128.617188 C 314.957031 126.152344 315.699219 123.714844 316.542969 121.308594 C 317.386719 118.902344 318.328125 116.535156 319.363281 114.203125 C 320.398438 111.875 321.523438 109.589844 322.746094 107.347656 C 323.964844 105.109375 325.269531 102.921875 326.667969 100.789062 C 328.0625 98.65625 329.542969 96.582031 331.105469 94.566406 C 332.667969 92.550781 334.308594 90.601562 336.03125 88.722656 C 337.75 86.839844 339.542969 85.027344 341.410156 83.292969 C 343.277344 81.554688 345.210938 79.894531 347.210938 78.3125 C 349.210938 76.730469 351.269531 75.234375 353.390625 73.816406 C 355.511719 72.402344 357.6875 71.074219 359.917969 69.835938 C 362.144531 68.597656 364.417969 67.449219 366.738281 66.390625 C 369.058594 65.335938 371.421875 64.375 373.820312 63.507812 C 448.085938 90.125 454.40625 197.0625 384.796875 233.65625 L 384.800781 165.648438 L 365.070312 165.648438 L 365.070312 234.546875 C 361.402344 232.839844 357.855469 230.902344 354.4375 228.734375 C 351.019531 226.566406 347.753906 224.191406 344.644531 221.597656 C 341.535156 219.007812 338.605469 216.226562 335.855469 213.257812 C 333.105469 210.285156 330.558594 207.152344 328.21875 203.851562 C 325.875 200.550781 323.753906 197.109375 321.859375 193.535156 C 319.960938 189.960938 318.304688 186.277344 316.886719 182.484375 C 315.46875 178.695312 314.300781 174.828125 313.382812 170.886719 C 312.464844 166.941406 311.808594 162.957031 311.40625 158.929688 Z M 326.398438 462.652344 C 319.054688 470.839844 312.722656 479.746094 307.40625 489.375 C 302.09375 499.003906 297.925781 509.105469 294.910156 519.683594 C 282.957031 509.285156 270.480469 499.5625 257.476562 490.511719 C 267.996094 483.765625 279.050781 478.050781 290.636719 473.367188 C 302.222656 468.683594 314.144531 465.109375 326.398438 462.652344 Z M 29.71875 341.332031 C 29.769531 324.875 31.03125 308.511719 33.503906 292.242188 C 34.222656 292.316406 34.925781 292.464844 35.613281 292.691406 C 38.0625 293.699219 40.425781 294.882812 42.699219 296.238281 C 44.972656 297.59375 47.136719 299.109375 49.1875 300.785156 C 51.242188 302.460938 53.160156 304.273438 54.945312 306.230469 C 56.730469 308.1875 58.359375 310.265625 59.839844 312.460938 C 61.320312 314.660156 62.628906 316.953125 63.769531 319.34375 C 64.914062 321.730469 65.875 324.191406 66.652344 326.722656 C 67.433594 329.253906 68.023438 331.828125 68.425781 334.445312 C 68.828125 337.066406 69.035156 339.699219 69.046875 342.347656 C 69.054688 352.464844 69.605469 362.554688 70.699219 372.613281 C 71.792969 382.671875 73.425781 392.644531 75.59375 402.527344 C 77.757812 412.410156 80.449219 422.148438 83.664062 431.742188 C 86.878906 441.335938 90.601562 450.730469 94.824219 459.925781 C 98.253906 467.34375 102.019531 474.589844 106.117188 481.664062 C 110.214844 488.738281 114.628906 495.609375 119.359375 502.273438 C 124.089844 508.941406 129.117188 515.375 134.445312 521.578125 C 139.769531 527.777344 145.367188 533.722656 151.242188 539.410156 C 157.113281 545.09375 163.238281 550.496094 169.609375 555.617188 C 175.980469 560.738281 182.574219 565.554688 189.390625 570.066406 C 196.207031 574.582031 203.21875 578.769531 210.417969 582.636719 C 217.621094 586.5 224.988281 590.027344 232.515625 593.210938 C 233.0625 593.203125 233.601562 593.144531 234.136719 593.046875 C 234.675781 592.945312 235.199219 592.800781 235.710938 592.613281 C 236.222656 592.425781 236.714844 592.199219 237.191406 591.933594 C 237.667969 591.664062 238.117188 591.359375 238.539062 591.015625 C 238.964844 590.671875 239.359375 590.296875 239.722656 589.890625 C 240.082031 589.484375 240.410156 589.050781 240.703125 588.589844 C 240.992188 588.125 241.242188 587.644531 241.453125 587.140625 C 241.667969 586.640625 241.835938 586.121094 241.960938 585.59375 C 242.085938 585.0625 242.167969 584.523438 242.207031 583.980469 C 242.246094 583.4375 242.238281 582.894531 242.1875 582.351562 C 242.132812 581.808594 242.039062 581.273438 241.898438 580.746094 C 241.757812 580.21875 241.574219 579.707031 241.351562 579.210938 C 241.125 578.710938 240.863281 578.238281 240.558594 577.785156 C 240.253906 577.332031 239.917969 576.90625 239.542969 576.507812 C 239.171875 576.109375 238.765625 575.746094 238.332031 575.414062 C 237.902344 575.082031 237.441406 574.789062 236.960938 574.535156 C 179.941406 545.105469 142.285156 510.429688 115.707031 457.742188 C 115.898438 457.613281 116.097656 457.496094 116.300781 457.394531 L 120.410156 456.082031 C 175.605469 437.511719 215.976562 488.347656 257.988281 515.308594 C 261.511719 517.761719 264.972656 520.304688 268.367188 522.9375 C 271.757812 525.570312 275.082031 528.289062 278.332031 531.09375 C 281.585938 533.898438 284.761719 536.789062 287.863281 539.757812 C 290.964844 542.726562 293.988281 545.777344 296.933594 548.902344 C 299.875 552.03125 302.738281 555.230469 305.515625 558.507812 C 308.292969 561.785156 310.984375 565.128906 313.585938 568.542969 C 316.191406 571.960938 318.703125 575.441406 321.128906 578.984375 C 323.550781 582.53125 325.878906 586.136719 328.117188 589.804688 C 330.351562 593.472656 332.492188 597.195312 334.535156 600.972656 C 336.578125 604.75 338.519531 608.578125 340.363281 612.457031 C 342.207031 616.335938 343.949219 620.257812 345.589844 624.226562 C 347.230469 628.195312 348.765625 632.207031 350.199219 636.253906 C 351.632812 640.304688 352.957031 644.386719 354.179688 648.503906 C 355.398438 652.621094 356.511719 656.769531 357.515625 660.945312 C 358.519531 665.121094 359.417969 669.320312 360.203125 673.539062 C 360.992188 677.761719 361.667969 682 362.234375 686.257812 C 356.726562 686.046875 351.222656 685.703125 345.730469 685.230469 C 340.234375 684.753906 334.757812 684.148438 329.292969 683.410156 C 323.828125 682.671875 318.382812 681.804688 312.960938 680.808594 C 307.535156 679.808594 302.140625 678.683594 296.769531 677.425781 C 291.402344 676.171875 286.0625 674.789062 280.761719 673.277344 C 275.457031 671.765625 270.195312 670.128906 264.96875 668.367188 C 259.742188 666.601562 254.5625 664.714844 249.429688 662.707031 C 244.292969 660.695312 239.210938 658.5625 234.179688 656.308594 C 229.144531 654.054688 224.167969 651.679688 219.25 649.191406 C 214.332031 646.699219 209.472656 644.089844 204.679688 641.363281 C 199.886719 638.640625 195.160156 635.804688 190.5 632.851562 C 185.84375 629.902344 181.257812 626.84375 176.746094 623.671875 C 172.230469 620.503906 167.796875 617.226562 163.441406 613.84375 C 159.085938 610.464844 154.816406 606.980469 150.625 603.394531 C 146.4375 599.804688 142.335938 596.121094 138.324219 592.339844 C 134.3125 588.558594 130.390625 584.679688 126.5625 580.710938 C 122.738281 576.742188 119.007812 572.679688 115.375 568.53125 C 111.742188 564.382812 108.210938 560.152344 104.777344 555.835938 C 101.347656 551.515625 98.023438 547.121094 94.804688 542.644531 C 91.582031 538.167969 88.472656 533.617188 85.46875 528.992188 C 82.46875 524.367188 79.578125 519.671875 76.800781 514.90625 C 74.019531 510.144531 71.359375 505.316406 68.8125 500.425781 C 66.265625 495.535156 63.835938 490.585938 61.527344 485.578125 C 59.214844 480.570312 57.027344 475.511719 54.957031 470.402344 C 52.890625 465.289062 50.945312 460.128906 49.125 454.925781 C 47.304688 449.71875 45.609375 444.476562 44.039062 439.1875 C 42.464844 433.902344 41.023438 428.582031 39.707031 423.226562 C 38.390625 417.871094 37.203125 412.488281 36.144531 407.078125 C 35.089844 401.664062 34.160156 396.230469 33.363281 390.773438 C 32.5625 385.320312 31.894531 379.847656 31.359375 374.359375 C 30.824219 368.871094 30.417969 363.371094 30.144531 357.863281 C 29.871094 352.359375 29.726562 346.847656 29.71875 341.332031 Z M 387.632812 686.261719 C 401.570312 577.539062 472.746094 525.816406 557.136719 467.722656 C 559.855469 465.773438 562.6875 463.992188 565.625 462.386719 C 568.5625 460.78125 571.585938 459.359375 574.699219 458.121094 C 577.808594 456.886719 580.984375 455.84375 584.226562 454.996094 C 587.464844 454.144531 590.742188 453.496094 594.0625 453.046875 C 597.378906 452.601562 600.710938 452.355469 604.058594 452.3125 C 607.410156 452.273438 610.746094 452.433594 614.074219 452.800781 C 617.402344 453.167969 620.695312 453.734375 623.957031 454.503906 C 627.214844 455.269531 630.414062 456.234375 633.554688 457.394531 C 630.132812 466.375 625.625 474.777344 620.035156 482.59375 C 613.351562 492.46875 606.039062 501.855469 598.101562 510.753906 C 590.164062 519.652344 581.671875 527.984375 572.621094 535.75 C 563.570312 543.511719 554.042969 550.640625 544.039062 557.128906 C 534.039062 563.621094 523.648438 569.417969 512.871094 574.519531 C 512.304688 574.820312 511.773438 575.167969 511.277344 575.570312 C 510.78125 575.972656 510.324219 576.417969 509.914062 576.90625 C 509.503906 577.398438 509.144531 577.921875 508.835938 578.484375 C 508.527344 579.042969 508.273438 579.625 508.078125 580.234375 C 507.882812 580.84375 507.75 581.464844 507.671875 582.101562 C 507.597656 582.734375 507.585938 583.371094 507.636719 584.007812 C 507.683594 584.648438 507.792969 585.273438 507.964844 585.890625 C 508.136719 586.503906 508.363281 587.097656 508.652344 587.671875 C 508.9375 588.242188 509.277344 588.78125 509.667969 589.289062 C 510.058594 589.792969 510.492188 590.257812 510.976562 590.679688 C 511.457031 591.097656 511.972656 591.46875 512.527344 591.789062 C 513.078125 592.109375 513.65625 592.375 514.261719 592.582031 C 514.867188 592.792969 515.484375 592.941406 516.117188 593.027344 C 516.753906 593.117188 517.386719 593.140625 518.027344 593.105469 C 518.664062 593.070312 519.292969 592.972656 519.914062 592.816406 C 520.53125 592.660156 521.132812 592.441406 521.707031 592.167969 C 524.660156 590.792969 527.589844 589.363281 530.492188 587.882812 C 533.394531 586.398438 536.269531 584.867188 539.117188 583.285156 C 541.964844 581.703125 544.78125 580.066406 547.574219 578.386719 C 550.363281 576.703125 553.121094 574.96875 555.851562 573.1875 C 558.578125 571.40625 561.273438 569.578125 563.9375 567.703125 C 566.601562 565.824219 569.230469 563.902344 571.824219 561.929688 C 574.421875 559.960938 576.980469 557.945312 579.503906 555.886719 C 582.027344 553.824219 584.515625 551.71875 586.964844 549.570312 C 589.414062 547.421875 591.824219 545.230469 594.195312 542.996094 C 596.566406 540.761719 598.894531 538.484375 601.1875 536.167969 C 603.476562 533.851562 605.726562 531.492188 607.933594 529.097656 C 610.140625 526.699219 612.304688 524.265625 614.425781 521.789062 C 616.546875 519.316406 618.621094 516.804688 620.652344 514.257812 C 622.683594 511.710938 624.671875 509.128906 626.609375 506.511719 C 628.550781 503.894531 630.441406 501.242188 632.289062 498.558594 C 634.132812 495.871094 635.933594 493.15625 637.679688 490.40625 C 639.429688 487.65625 641.132812 484.878906 642.78125 482.070312 C 644.433594 479.261719 646.035156 476.421875 647.582031 473.558594 C 649.132812 470.691406 650.632812 467.796875 652.082031 464.878906 C 653.527344 461.960938 654.921875 459.015625 656.265625 456.046875 C 657.609375 453.078125 658.898438 450.089844 660.136719 447.074219 C 661.375 444.058594 662.558594 441.023438 663.6875 437.96875 C 664.816406 434.914062 665.890625 431.835938 666.910156 428.742188 C 667.933594 425.648438 668.898438 422.535156 669.808594 419.40625 C 670.71875 416.28125 671.570312 413.136719 672.371094 409.976562 C 673.167969 406.816406 673.910156 403.644531 674.597656 400.460938 C 675.28125 397.273438 675.910156 394.078125 676.484375 390.871094 C 677.054688 387.664062 677.570312 384.445312 678.03125 381.222656 C 678.488281 377.996094 678.890625 374.761719 679.234375 371.523438 C 679.578125 368.28125 679.863281 365.035156 680.089844 361.785156 C 680.320312 358.535156 680.492188 355.28125 680.601562 352.027344 C 680.714844 348.769531 680.773438 345.511719 680.769531 342.253906 C 680.765625 340.886719 680.8125 339.519531 680.917969 338.152344 C 681.019531 336.789062 681.171875 335.429688 681.382812 334.078125 C 681.589844 332.722656 681.851562 331.382812 682.164062 330.046875 C 682.476562 328.714844 682.839844 327.398438 683.257812 326.09375 C 683.671875 324.789062 684.140625 323.503906 684.65625 322.234375 C 685.171875 320.96875 685.738281 319.722656 686.351562 318.496094 C 686.964844 317.273438 687.625 316.078125 688.332031 314.902344 C 689.039062 313.730469 689.789062 312.589844 690.585938 311.476562 C 691.382812 310.363281 692.21875 309.28125 693.097656 308.234375 C 693.980469 307.183594 694.898438 306.171875 695.859375 305.195312 C 696.820312 304.21875 697.816406 303.28125 698.847656 302.382812 C 699.878906 301.484375 700.945312 300.625 702.046875 299.8125 C 703.144531 298.996094 704.273438 298.222656 705.433594 297.496094 C 706.59375 296.769531 707.78125 296.089844 708.992188 295.453125 C 710.203125 294.820312 711.441406 294.230469 712.699219 293.691406 C 713.957031 293.15625 715.234375 292.667969 716.53125 292.226562 C 747.542969 492.878906 589.265625 680.730469 387.632812 686.261719 Z M 387.632812 686.261719 " fill-opacity="1" fill-rule="nonzero"/></g></svg>