<svg xmlns="http://www.w3.org/2000/svg" xmlns:xlink="http://www.w3.org/1999/xlink" width="1000" zoomAndPan="magnify" viewBox="0 0 750 749.999995" height="1000" preserveAspectRatio="xMidYMid meet" version="1.0"><defs><clipPath id="d0ef9921c8"><path d="M 81.445312 16 L 668.695312 16 L 668.695312 734 L 81.445312 734 Z M 81.445312 16 " clip-rule="nonzero"/></clipPath></defs><g clip-path="url(#d0ef9921c8)"><path fill="#ffffff" d="M 618.402344 733.816406 L 131.589844 733.816406 C 104.054688 733.816406 81.445312 711.382812 81.445312 683.675781 L 81.445312 66.320312 C 81.445312 38.785156 103.882812 16.179688 131.589844 16.179688 L 618.402344 16.179688 C 645.9375 16.179688 668.542969 38.617188 668.542969 66.320312 L 668.542969 683.675781 C 668.542969 711.382812 645.9375 733.816406 618.402344 733.816406 Z M 131.589844 36.574219 C 115.269531 36.574219 101.84375 49.835938 101.84375 66.320312 L 101.84375 683.675781 C 101.84375 699.992188 115.101562 713.421875 131.589844 713.421875 L 618.402344 713.421875 C 634.71875 713.421875 648.148438 700.164062 648.148438 683.675781 L 648.148438 66.320312 C 648.148438 50.003906 634.886719 36.574219 618.402344 36.574219 Z M 131.589844 36.574219 " fill-opacity="1" fill-rule="nonzero"/></g><path fill="#ffffff" d="M 274.539062 627.921875 L 163.882812 627.921875 C 158.273438 627.921875 153.6875 623.332031 153.6875 617.722656 L 153.6875 507.070312 C 153.6875 501.460938 158.273438 496.871094 163.882812 496.871094 L 274.539062 496.871094 C 280.148438 496.871094 284.738281 501.460938 284.738281 507.070312 L 284.738281 617.722656 C 284.738281 623.332031 280.316406 627.921875 274.539062 627.921875 Z M 174.082031 607.527344 L 264.339844 607.527344 L 264.339844 517.269531 L 174.082031 517.269531 Z M 174.082031 607.527344 " fill-opacity="1" fill-rule="nonzero"/><path fill="#ffffff" d="M 224.394531 592.226562 C 221.507812 592.226562 218.957031 591.039062 216.917969 589 L 185.980469 556.023438 C 182.070312 551.945312 182.410156 545.484375 186.492188 541.574219 C 190.570312 537.664062 197.03125 538.003906 200.9375 542.085938 L 224.394531 567.070312 L 293.917969 492.621094 C 297.824219 488.542969 304.285156 488.203125 308.363281 492.113281 C 312.445312 496.023438 312.785156 502.480469 308.875 506.558594 L 231.875 589 C 230.003906 591.039062 227.285156 592.226562 224.394531 592.226562 Z M 224.394531 592.226562 " fill-opacity="1" fill-rule="nonzero"/><path fill="#ffffff" d="M 583.726562 552.285156 L 341.339844 552.285156 C 335.730469 552.285156 331.140625 547.695312 331.140625 542.085938 C 331.140625 536.476562 335.730469 531.886719 341.339844 531.886719 L 583.894531 531.886719 C 589.503906 531.886719 594.09375 536.476562 594.09375 542.085938 C 594.09375 547.695312 589.503906 552.285156 583.726562 552.285156 Z M 583.726562 552.285156 " fill-opacity="1" fill-rule="nonzero"/><path fill="#ffffff" d="M 540.722656 597.667969 L 339.980469 597.667969 C 334.371094 597.667969 329.78125 593.078125 329.78125 587.46875 C 329.78125 581.859375 334.371094 577.269531 339.980469 577.269531 L 540.890625 577.269531 C 546.5 577.269531 551.089844 581.859375 551.089844 587.46875 C 551.089844 593.078125 546.332031 597.667969 540.722656 597.667969 Z M 540.722656 597.667969 " fill-opacity="1" fill-rule="nonzero"/><path fill="#ffffff" d="M 274.539062 463.726562 L 163.882812 463.726562 C 158.273438 463.726562 153.6875 459.136719 153.6875 453.527344 L 153.6875 342.875 C 153.6875 337.265625 158.273438 332.675781 163.882812 332.675781 L 274.539062 332.675781 C 280.148438 332.675781 284.738281 337.265625 284.738281 342.875 L 284.738281 453.527344 C 284.738281 459.136719 280.316406 463.726562 274.539062 463.726562 Z M 174.082031 443.328125 L 264.339844 443.328125 L 264.339844 353.070312 L 174.082031 353.070312 Z M 174.082031 443.328125 " fill-opacity="1" fill-rule="nonzero"/><path fill="#ffffff" d="M 224.394531 428.03125 C 221.507812 428.03125 218.957031 426.839844 216.917969 424.800781 L 185.980469 391.828125 C 182.070312 387.746094 182.410156 381.289062 186.492188 377.378906 C 190.570312 373.46875 197.03125 373.808594 200.9375 377.886719 L 224.394531 402.875 L 293.917969 328.425781 C 297.824219 324.34375 304.285156 324.003906 308.363281 327.914062 C 312.445312 331.824219 312.785156 338.285156 308.875 342.363281 L 231.875 424.800781 C 230.003906 426.839844 227.285156 428.03125 224.394531 428.03125 Z M 224.394531 428.03125 " fill-opacity="1" fill-rule="nonzero"/><path fill="#ffffff" d="M 583.726562 388.085938 L 341.339844 388.085938 C 335.730469 388.085938 331.140625 383.496094 331.140625 377.886719 C 331.140625 372.277344 335.730469 367.691406 341.339844 367.691406 L 583.894531 367.691406 C 589.503906 367.691406 594.09375 372.277344 594.09375 377.886719 C 594.09375 383.496094 589.503906 388.085938 583.726562 388.085938 Z M 583.726562 388.085938 " fill-opacity="1" fill-rule="nonzero"/><path fill="#ffffff" d="M 540.722656 433.46875 L 339.980469 433.46875 C 334.371094 433.46875 329.78125 428.882812 329.78125 423.273438 C 329.78125 417.664062 334.371094 413.074219 339.980469 413.074219 L 540.890625 413.074219 C 546.5 413.074219 551.089844 417.664062 551.089844 423.273438 C 551.089844 428.882812 546.332031 433.46875 540.722656 433.46875 Z M 540.722656 433.46875 " fill-opacity="1" fill-rule="nonzero"/><path fill="#ffffff" d="M 274.539062 299.527344 L 163.882812 299.527344 C 158.273438 299.527344 153.6875 294.941406 153.6875 289.332031 L 153.6875 178.675781 C 153.6875 173.066406 158.273438 168.476562 163.882812 168.476562 L 274.539062 168.476562 C 280.148438 168.476562 284.738281 173.066406 284.738281 178.675781 L 284.738281 289.332031 C 284.738281 294.941406 280.316406 299.527344 274.539062 299.527344 Z M 174.082031 279.132812 L 264.339844 279.132812 L 264.339844 188.875 L 174.082031 188.875 Z M 174.082031 279.132812 " fill-opacity="1" fill-rule="nonzero"/><path fill="#ffffff" d="M 224.394531 263.835938 C 221.507812 263.835938 218.957031 262.644531 216.917969 260.605469 L 185.980469 227.628906 C 182.070312 223.550781 182.410156 217.089844 186.492188 213.179688 C 190.570312 209.273438 197.03125 209.613281 200.9375 213.691406 L 224.394531 238.675781 L 293.917969 164.226562 C 297.824219 160.148438 304.285156 159.808594 308.363281 163.71875 C 312.445312 167.628906 312.785156 174.085938 308.875 178.167969 L 231.875 260.605469 C 230.003906 262.644531 227.285156 263.835938 224.394531 263.835938 Z M 224.394531 263.835938 " fill-opacity="1" fill-rule="nonzero"/><path fill="#ffffff" d="M 583.726562 223.890625 L 341.339844 223.890625 C 335.730469 223.890625 331.140625 219.300781 331.140625 213.691406 C 331.140625 208.082031 335.730469 203.492188 341.339844 203.492188 L 583.894531 203.492188 C 589.503906 203.492188 594.09375 208.082031 594.09375 213.691406 C 594.09375 219.300781 589.503906 223.890625 583.726562 223.890625 Z M 583.726562 223.890625 " fill-opacity="1" fill-rule="nonzero"/><path fill="#ffffff" d="M 540.722656 269.273438 L 339.980469 269.273438 C 334.371094 269.273438 329.78125 264.683594 329.78125 259.074219 C 329.78125 253.464844 334.371094 248.875 339.980469 248.875 L 540.890625 248.875 C 546.5 248.875 551.089844 253.464844 551.089844 259.074219 C 551.089844 264.683594 546.332031 269.273438 540.722656 269.273438 Z M 540.722656 269.273438 " fill-opacity="1" fill-rule="nonzero"/><path fill="#ffffff" d="M 508.257812 111.535156 L 241.394531 111.535156 C 235.785156 111.535156 231.195312 106.945312 231.195312 101.335938 C 231.195312 95.726562 235.785156 91.136719 241.394531 91.136719 L 508.257812 91.136719 C 513.867188 91.136719 518.453125 95.726562 518.453125 101.335938 C 518.453125 106.945312 513.867188 111.535156 508.257812 111.535156 Z M 508.257812 111.535156 " fill-opacity="1" fill-rule="nonzero"/></svg>