<svg xmlns="http://www.w3.org/2000/svg" xmlns:xlink="http://www.w3.org/1999/xlink" width="1000" zoomAndPan="magnify" viewBox="0 0 750 749.999995" height="1000" preserveAspectRatio="xMidYMid meet" version="1.0"><defs><clipPath id="113279002f"><path d="M 14.035156 14.035156 L 736 14.035156 L 736 736 L 14.035156 736 Z M 14.035156 14.035156 " clip-rule="nonzero"/></clipPath></defs><g clip-path="url(#113279002f)"><path fill="#ffffff" d="M 730.460938 543.316406 C 708.894531 534.226562 687.175781 526.855469 665.371094 521.253906 C 665.398438 520.519531 665.414062 519.785156 665.414062 519.054688 C 665.414062 504.328125 660.128906 490.820312 651.351562 480.304688 L 651.351562 419.40625 C 666.820312 417.652344 682.292969 411.378906 697.660156 400.550781 C 748.988281 364.410156 736.691406 308.289062 728.558594 271.15625 C 722.988281 245.742188 706.242188 182.355469 671 142.84375 C 662.761719 133.617188 652.863281 128.734375 642.347656 128.734375 C 631.835938 128.734375 621.933594 133.617188 613.695312 142.84375 C 578.46875 182.355469 561.710938 245.742188 556.136719 271.15625 C 548.003906 308.289062 535.707031 364.410156 587.035156 400.550781 C 602.402344 411.378906 617.875 417.640625 633.347656 419.40625 L 633.347656 465.640625 C 624.839844 461.074219 615.132812 458.484375 604.816406 458.484375 C 603.375 458.484375 601.925781 458.527344 600.484375 458.632812 C 593.761719 446.695312 583.128906 437.304688 570.367188 432.152344 C 558.921875 417.429688 541.25 408.710938 522.511719 408.710938 C 490.296875 408.710938 463.859375 434.011719 462.046875 465.792969 C 443.535156 476.921875 431.851562 497.261719 431.851562 519.082031 C 431.851562 521.929688 432.046875 524.746094 432.4375 527.546875 C 388.34375 541.128906 343.933594 561.710938 299.691406 589.074219 L 299.691406 457.226562 C 309.15625 465.65625 321.601562 470.792969 335.246094 470.792969 C 364.769531 470.792969 388.777344 446.785156 388.777344 417.265625 C 388.777344 413.492188 388.386719 409.777344 387.625 406.136719 C 402.496094 396.324219 411.753906 379.507812 411.753906 361.398438 C 411.753906 345.613281 404.714844 330.710938 392.894531 320.628906 C 397.253906 312.734375 399.589844 303.808594 399.589844 294.703125 C 399.589844 281.269531 394.574219 268.460938 385.632812 258.652344 C 388.074219 252.4375 389.347656 245.757812 389.347656 239.03125 C 389.347656 211.097656 367.855469 188.105469 340.535156 185.710938 C 332.597656 165.414062 312.992188 151.769531 290.703125 151.769531 C 268.417969 151.769531 248.8125 165.429688 240.875 185.710938 C 213.554688 188.105469 192.0625 211.113281 192.0625 239.03125 C 192.0625 245.757812 193.335938 252.4375 195.777344 258.652344 C 189.515625 265.511719 185.203125 273.839844 183.148438 282.824219 C 169.296875 269.976562 152.640625 262.457031 134.742188 262.457031 C 86.648438 262.457031 47.542969 316.628906 47.542969 383.207031 C 47.542969 445.585938 81.886719 497.066406 125.753906 503.3125 L 125.753906 550.730469 C 93.296875 543.617188 59.523438 537.117188 24.476562 531.246094 C 21.871094 530.808594 19.203125 531.542969 17.183594 533.25 C 15.160156 534.960938 14.007812 537.476562 14.007812 540.109375 L 14.007812 726.972656 C 14.007812 731.929688 18.035156 735.957031 22.992188 735.957031 L 726.941406 735.957031 C 731.898438 735.957031 735.929688 731.929688 735.929688 726.972656 L 735.929688 551.585938 C 735.929688 547.972656 733.757812 544.710938 730.433594 543.300781 Z M 597.414062 385.871094 C 558.984375 358.808594 563.941406 319.65625 573.722656 275.023438 C 578.976562 250.984375 594.734375 191.164062 627.132812 154.828125 C 631.847656 149.523438 637.121094 146.722656 642.363281 146.722656 C 647.605469 146.722656 652.878906 149.523438 657.597656 154.828125 C 690.007812 191.164062 705.75 250.984375 711.007812 275.023438 C 720.785156 319.65625 725.757812 358.808594 687.3125 385.871094 C 675.074219 394.484375 663.183594 399.652344 651.351562 401.386719 L 651.351562 357.25 L 690.351562 318.246094 C 693.855469 314.742188 693.855469 309.050781 690.351562 305.53125 C 686.847656 302.027344 681.15625 302.027344 677.636719 305.53125 L 651.335938 331.832031 L 651.335938 288.503906 C 651.335938 283.542969 647.304688 279.515625 642.347656 279.515625 C 637.390625 279.515625 633.363281 283.542969 633.363281 288.503906 L 633.363281 331.832031 L 607.0625 305.53125 C 603.554688 302.027344 597.863281 302.027344 594.359375 305.53125 C 590.855469 309.035156 590.855469 314.726562 594.359375 318.246094 L 633.363281 357.25 L 633.363281 401.386719 C 621.53125 399.652344 609.621094 394.484375 597.386719 385.871094 Z M 449.871094 519.097656 C 449.871094 502.234375 459.695312 486.609375 474.914062 479.300781 C 478.132812 477.757812 480.125 474.449219 480.007812 470.882812 C 479.992188 470.359375 479.976562 469.835938 479.976562 469.296875 C 479.976562 445.8125 499.085938 426.699219 522.574219 426.699219 C 536.410156 426.699219 549.441406 433.46875 557.425781 444.808594 C 558.503906 446.335938 560.03125 447.503906 561.8125 448.117188 C 573.167969 452.085938 582.363281 460.746094 587.035156 471.84375 C 588.667969 475.738281 592.800781 477.96875 596.980469 477.191406 C 599.574219 476.695312 602.238281 476.457031 604.890625 476.457031 C 627.699219 476.457031 646.378906 494.472656 647.425781 517.03125 C 597.835938 506.488281 547.839844 504.914062 497.980469 512.460938 C 482.058594 514.875 466.078125 518.230469 450.035156 522.496094 C 449.945312 521.359375 449.902344 520.222656 449.902344 519.066406 Z M 212.460938 267.519531 C 215.742188 264.746094 216.609375 260.042969 214.511719 256.285156 C 211.59375 251.042969 210.050781 245.082031 210.050781 239.03125 C 210.050781 219.425781 226 203.472656 245.605469 203.472656 C 246.117188 203.472656 246.625 203.472656 247.117188 203.503906 C 251.433594 203.683594 255.191406 200.839844 256.226562 196.6875 C 260.164062 180.8125 274.347656 169.730469 290.734375 169.730469 C 307.121094 169.730469 321.304688 180.8125 325.242188 196.6875 C 326.277344 200.839844 330.109375 203.699219 334.347656 203.503906 C 334.84375 203.488281 335.351562 203.472656 335.863281 203.472656 C 355.46875 203.472656 371.417969 219.425781 371.417969 239.03125 C 371.417969 245.066406 369.875 251.042969 366.953125 256.285156 C 364.871094 260.042969 365.726562 264.746094 369.007812 267.519531 C 377.035156 274.304688 381.648438 284.203125 381.648438 294.703125 C 381.648438 303 378.878906 310.773438 373.636719 317.183594 C 371.972656 319.222656 371.285156 321.886719 371.746094 324.476562 C 372.210938 327.070312 373.800781 329.316406 376.078125 330.648438 C 387.011719 337 393.792969 348.785156 393.792969 361.414062 C 393.792969 375.175781 385.738281 387.832031 373.246094 393.660156 C 369.007812 395.636719 366.984375 400.535156 368.617188 404.921875 C 370.085938 408.863281 370.820312 413.027344 370.820312 417.28125 C 370.820312 436.886719 354.867188 452.835938 335.261719 452.835938 C 315.65625 452.835938 299.707031 436.886719 299.707031 417.28125 L 299.707031 386.035156 C 300.078125 385.707031 300.4375 385.347656 300.753906 384.957031 L 337.238281 339.574219 C 340.355469 335.710938 339.742188 330.050781 335.859375 326.933594 C 331.996094 323.820312 326.335938 324.433594 323.21875 328.3125 L 299.691406 357.578125 L 299.691406 243.046875 C 299.691406 238.085938 295.660156 234.058594 290.703125 234.058594 C 285.746094 234.058594 281.71875 238.085938 281.71875 243.046875 L 281.71875 313.335938 L 257.960938 283.785156 C 254.847656 279.917969 249.199219 279.304688 245.320312 282.40625 C 241.457031 285.523438 240.84375 291.167969 243.945312 295.046875 L 280.429688 340.429688 C 280.820312 340.910156 281.253906 341.328125 281.703125 341.703125 L 281.703125 417.265625 C 281.703125 436.871094 265.75 452.820312 246.144531 452.820312 C 232.367188 452.820312 220.113281 445.078125 214.183594 432.871094 C 219.140625 417.714844 221.925781 400.925781 221.925781 383.21875 C 221.925781 360.769531 217.464844 339.742188 209.71875 321.707031 C 209.511719 320.058594 208.851562 318.488281 207.773438 317.183594 C 207.683594 317.0625 207.609375 316.945312 207.503906 316.839844 C 205.660156 312.976562 203.652344 309.246094 201.511719 305.710938 C 200.375 302.207031 199.757812 298.523438 199.757812 294.71875 C 199.757812 284.21875 204.371094 274.316406 212.402344 267.535156 Z M 86.875 457.03125 C 73.125 437.378906 65.546875 411.167969 65.546875 383.21875 C 65.546875 355.273438 73.125 329.0625 86.875 309.410156 C 99.949219 290.734375 116.964844 280.445312 134.773438 280.445312 C 152.578125 280.445312 169.59375 290.734375 182.671875 309.410156 C 183.507812 310.59375 184.316406 311.820312 185.097656 313.050781 C 186.847656 317.875 189.289062 322.441406 192.375 326.589844 C 199.9375 343.289062 204 362.792969 204 383.21875 C 204 411.167969 196.417969 437.378906 182.671875 457.03125 C 171.8125 472.53125 158.242188 482.238281 143.757812 485.082031 L 143.757812 398.003906 L 179.34375 353.746094 C 182.460938 349.878906 181.847656 344.21875 177.96875 341.101562 C 174.101562 337.988281 168.441406 338.601562 165.324219 342.480469 L 143.742188 369.320312 L 143.742188 336.476562 C 143.742188 331.519531 139.714844 327.488281 134.757812 327.488281 C 129.800781 327.488281 125.769531 331.519531 125.769531 336.476562 L 125.769531 420.949219 L 101.671875 384.75 C 98.914062 380.613281 93.34375 379.492188 89.210938 382.246094 C 85.074219 385.003906 83.953125 390.574219 86.707031 394.707031 L 124.453125 451.398438 C 124.839844 451.984375 125.289062 452.492188 125.769531 452.941406 L 125.769531 485.082031 C 111.273438 482.222656 97.703125 472.53125 86.859375 457.03125 Z M 143.757812 503.328125 C 169.460938 499.671875 191.867188 480.46875 206.035156 452.6875 C 215.980469 464.011719 230.402344 470.792969 246.191406 470.792969 C 259.835938 470.792969 272.28125 465.65625 281.746094 457.226562 L 281.746094 592.96875 C 238.867188 578.8125 192.871094 566.066406 143.757812 554.789062 Z M 32.011719 718 L 32.011719 550.761719 C 235.003906 585.75 393.210938 641.945312 502.953125 718 Z M 717.984375 718 L 533.550781 718 C 474.464844 673.308594 400.144531 634.917969 311.253906 603.09375 C 448.539062 518.886719 585.269531 503.566406 717.984375 557.605469 Z M 102.765625 142.304688 C 124.570312 142.304688 142.304688 124.570312 142.304688 102.765625 C 142.304688 80.957031 124.570312 63.222656 102.765625 63.222656 C 80.957031 63.222656 63.222656 80.957031 63.222656 102.765625 C 63.222656 124.570312 80.957031 142.304688 102.765625 142.304688 Z M 102.765625 81.210938 C 114.65625 81.210938 124.332031 90.886719 124.332031 102.78125 C 124.332031 114.671875 114.65625 124.347656 102.765625 124.347656 C 90.871094 124.347656 81.195312 114.671875 81.195312 102.78125 C 81.195312 90.886719 90.871094 81.210938 102.765625 81.210938 Z M 93.777344 39.617188 L 93.777344 23.039062 C 93.777344 18.082031 97.808594 14.050781 102.765625 14.050781 C 107.722656 14.050781 111.75 18.082031 111.75 23.039062 L 111.75 39.617188 C 111.75 44.578125 107.722656 48.605469 102.765625 48.605469 C 97.808594 48.605469 93.777344 44.578125 93.777344 39.617188 Z M 141.0625 64.464844 C 137.558594 60.960938 137.558594 55.269531 141.0625 51.75 L 152.789062 40.023438 C 156.292969 36.519531 161.984375 36.519531 165.503906 40.023438 C 169.011719 43.527344 169.011719 49.21875 165.503906 52.738281 L 153.777344 64.464844 C 152.027344 66.21875 149.71875 67.101562 147.429688 67.101562 C 145.136719 67.101562 142.828125 66.21875 141.078125 64.464844 Z M 165.925781 93.792969 L 182.503906 93.792969 C 187.464844 93.792969 191.492188 97.820312 191.492188 102.78125 C 191.492188 107.738281 187.464844 111.765625 182.503906 111.765625 L 165.925781 111.765625 C 160.96875 111.765625 156.9375 107.738281 156.9375 102.78125 C 156.9375 97.820312 160.96875 93.792969 165.925781 93.792969 Z M 165.503906 152.804688 C 169.011719 156.308594 169.011719 162 165.503906 165.519531 C 163.753906 167.273438 161.445312 168.15625 159.15625 168.15625 C 156.863281 168.15625 154.558594 167.273438 152.804688 165.519531 L 141.078125 153.792969 C 137.574219 150.289062 137.574219 144.597656 141.078125 141.078125 C 144.582031 137.574219 150.273438 137.574219 153.792969 141.078125 L 165.519531 152.804688 Z M 102.765625 156.9375 C 107.722656 156.9375 111.75 160.96875 111.75 165.925781 L 111.75 182.503906 C 111.75 187.464844 107.722656 191.492188 102.765625 191.492188 C 97.808594 191.492188 93.777344 187.464844 93.777344 182.503906 L 93.777344 165.925781 C 93.777344 160.96875 97.808594 156.9375 102.765625 156.9375 Z M 64.453125 141.078125 C 67.957031 144.582031 67.957031 150.273438 64.453125 153.792969 L 52.722656 165.519531 C 50.972656 167.273438 48.664062 168.15625 46.375 168.15625 C 44.082031 168.15625 41.777344 167.273438 40.023438 165.519531 C 36.519531 162.015625 36.519531 156.324219 40.023438 152.804688 L 51.75 141.078125 C 55.253906 137.574219 60.945312 137.574219 64.464844 141.078125 Z M 14.035156 102.78125 C 14.035156 97.820312 18.066406 93.792969 23.023438 93.792969 L 39.605469 93.792969 C 44.5625 93.792969 48.589844 97.820312 48.589844 102.78125 C 48.589844 107.738281 44.5625 111.765625 39.605469 111.765625 L 23.023438 111.765625 C 18.066406 111.765625 14.035156 107.738281 14.035156 102.78125 Z M 40.023438 52.738281 C 36.519531 49.234375 36.519531 43.542969 40.023438 40.023438 C 43.527344 36.519531 49.21875 36.519531 52.738281 40.023438 L 64.464844 51.75 C 67.972656 55.253906 67.972656 60.945312 64.464844 64.464844 C 62.714844 66.21875 60.40625 67.101562 58.117188 67.101562 C 55.824219 67.101562 53.519531 66.21875 51.765625 64.464844 L 40.039062 52.738281 Z M 40.023438 52.738281 " fill-opacity="1" fill-rule="nonzero"/></g></svg>