<svg xmlns="http://www.w3.org/2000/svg" xmlns:xlink="http://www.w3.org/1999/xlink" width="1000" zoomAndPan="magnify" viewBox="0 0 750 749.999995" height="1000" preserveAspectRatio="xMidYMid meet" version="1.0"><defs><clipPath id="cb78725404"><path d="M 8.242188 60.503906 L 741.742188 60.503906 L 741.742188 689.753906 L 8.242188 689.753906 Z M 8.242188 60.503906 " clip-rule="nonzero"/></clipPath></defs><g clip-path="url(#cb78725404)"><path fill="#ffffff" d="M 223.425781 636.355469 L 599.792969 257.429688 C 599.90625 257.3125 599.941406 257.160156 600.050781 257.039062 C 601.242188 255.824219 602.367188 254.550781 603.433594 253.222656 C 604.5 251.894531 605.5 250.519531 606.433594 249.09375 C 607.363281 247.667969 608.226562 246.203125 609.015625 244.691406 C 609.804688 243.183594 610.519531 241.640625 611.160156 240.0625 C 611.800781 238.484375 612.359375 236.878906 612.84375 235.246094 C 613.328125 233.613281 613.730469 231.960938 614.050781 230.289062 C 614.375 228.617188 614.617188 226.933594 614.773438 225.238281 C 614.933594 223.542969 615.007812 221.84375 615.003906 220.140625 C 614.996094 218.4375 614.90625 216.738281 614.734375 215.042969 C 614.5625 213.351562 614.3125 211.667969 613.976562 210 C 613.640625 208.328125 613.222656 206.679688 612.730469 205.050781 C 612.234375 203.421875 611.660156 201.820312 611.007812 200.246094 C 610.355469 198.675781 609.628906 197.136719 608.828125 195.632812 C 608.027344 194.128906 607.15625 192.671875 606.210938 191.253906 C 605.269531 189.835938 604.257812 188.464844 603.183594 187.148438 C 602.105469 185.828125 600.96875 184.5625 599.769531 183.355469 C 595.792969 179.488281 591.304688 176.351562 586.308594 173.945312 L 609.632812 150.46875 C 609.894531 150.242188 610.144531 149.957031 610.40625 149.683594 L 610.425781 149.699219 L 610.566406 149.523438 C 610.699219 149.382812 610.847656 149.257812 610.960938 149.125 C 611.046875 149.027344 611.0625 148.902344 611.144531 148.804688 C 612.296875 147.582031 613.386719 146.304688 614.414062 144.980469 C 615.445312 143.652344 616.40625 142.277344 617.304688 140.855469 C 618.199219 139.4375 619.027344 137.976562 619.785156 136.476562 C 620.542969 134.976562 621.226562 133.445312 621.835938 131.878906 C 622.445312 130.316406 622.980469 128.722656 623.4375 127.109375 C 623.894531 125.492188 624.273438 123.855469 624.574219 122.203125 C 624.875 120.550781 625.097656 118.890625 625.238281 117.214844 C 625.378906 115.539062 625.4375 113.863281 625.417969 112.183594 C 625.398438 110.503906 625.300781 108.828125 625.121094 107.160156 C 624.941406 105.488281 624.679688 103.832031 624.339844 102.1875 C 624.003906 100.542969 623.585938 98.917969 623.089844 97.3125 C 622.59375 95.707031 622.023438 94.128906 621.378906 92.578125 C 620.730469 91.027344 620.011719 89.511719 619.222656 88.03125 C 618.429688 86.546875 617.566406 85.109375 616.636719 83.710938 C 615.707031 82.308594 614.714844 80.960938 613.65625 79.65625 C 612.59375 78.351562 611.476562 77.101562 610.296875 75.90625 C 607.886719 73.457031 605.257812 71.273438 602.414062 69.347656 C 599.570312 67.421875 596.5625 65.800781 593.390625 64.472656 C 590.222656 63.148438 586.953125 62.152344 583.585938 61.480469 C 580.21875 60.808594 576.816406 60.472656 573.378906 60.480469 L 573.289062 60.480469 C 569.878906 60.480469 566.496094 60.816406 563.152344 61.488281 C 559.804688 62.160156 556.558594 63.15625 553.410156 64.472656 C 550.261719 65.792969 547.273438 67.40625 544.449219 69.320312 C 541.621094 71.234375 539.011719 73.40625 536.617188 75.839844 L 536.515625 75.90625 L 470.972656 141.894531 C 468.644531 139.804688 466.144531 137.945312 463.476562 136.3125 C 460.808594 134.679688 458.015625 133.304688 455.097656 132.179688 C 452.179688 131.054688 449.183594 130.207031 446.109375 129.628906 C 443.035156 129.054688 439.933594 128.757812 436.804688 128.746094 L 436.714844 128.746094 C 433.289062 128.746094 429.898438 129.082031 426.539062 129.757812 C 423.179688 130.433594 419.921875 131.433594 416.761719 132.761719 C 413.601562 134.085938 410.605469 135.710938 407.769531 137.632812 C 404.933594 139.558594 402.316406 141.742188 399.914062 144.1875 L 399.890625 144.222656 L 23.546875 523.125 L 23.476562 523.183594 L 23.34375 523.347656 C 22.972656 523.726562 22.628906 524.128906 22.3125 524.550781 C 22.207031 524.679688 22.140625 524.820312 22.039062 524.953125 C 20.921875 526.183594 19.863281 527.460938 18.867188 528.789062 C 17.871094 530.117188 16.9375 531.492188 16.070312 532.90625 C 15.203125 534.324219 14.40625 535.777344 13.675781 537.269531 C 12.949219 538.765625 12.292969 540.289062 11.707031 541.84375 C 11.125 543.398438 10.613281 544.976562 10.179688 546.578125 C 9.746094 548.183594 9.386719 549.800781 9.109375 551.4375 C 8.828125 553.078125 8.625 554.722656 8.5 556.378906 C 8.375 558.035156 8.332031 559.695312 8.363281 561.355469 C 8.398438 563.015625 8.507812 564.671875 8.699219 566.320312 C 8.886719 567.96875 9.15625 569.609375 9.5 571.234375 C 9.847656 572.855469 10.269531 574.460938 10.765625 576.046875 C 11.265625 577.628906 11.835938 579.1875 12.480469 580.71875 C 13.128906 582.25 13.84375 583.746094 14.632812 585.207031 C 15.417969 586.671875 16.273438 588.089844 17.195312 589.472656 C 18.117188 590.855469 19.105469 592.1875 20.152344 593.476562 C 21.203125 594.765625 22.308594 596 23.476562 597.183594 C 25.882812 599.621094 28.507812 601.796875 31.347656 603.714844 C 34.1875 605.628906 37.1875 607.246094 40.351562 608.566406 C 43.515625 609.882812 46.777344 610.875 50.136719 611.542969 C 53.496094 612.210938 56.890625 612.539062 60.316406 612.53125 L 60.328125 612.53125 C 63.742188 612.539062 67.125 612.210938 70.476562 611.546875 C 73.824219 610.882812 77.078125 609.894531 80.230469 608.585938 C 83.386719 607.277344 86.378906 605.671875 89.214844 603.769531 C 92.050781 601.863281 94.667969 599.699219 97.074219 597.277344 L 97.144531 597.234375 L 97.183594 597.1875 L 97.207031 597.167969 L 97.25 597.117188 C 97.492188 596.867188 97.847656 596.46875 98.242188 596.03125 L 162.765625 531.078125 C 166.046875 533.980469 169.644531 536.425781 173.546875 538.414062 L 150.164062 561.953125 C 150.082031 562.019531 150.042969 562.117188 149.964844 562.183594 C 149.867188 562.277344 149.75 562.34375 149.652344 562.441406 C 149.25 562.847656 148.980469 563.332031 148.59375 563.746094 C 148.09375 564.269531 147.640625 564.824219 147.234375 565.421875 C 146.171875 566.652344 145.171875 567.933594 144.230469 569.261719 C 143.289062 570.589844 142.410156 571.957031 141.597656 573.363281 C 140.785156 574.773438 140.035156 576.214844 139.355469 577.695312 C 138.675781 579.171875 138.066406 580.679688 137.527344 582.214844 C 136.988281 583.75 136.519531 585.304688 136.125 586.882812 C 135.730469 588.460938 135.410156 590.054688 135.164062 591.664062 C 134.917969 593.269531 134.746094 594.886719 134.648438 596.511719 C 134.554688 598.136719 134.53125 599.761719 134.585938 601.386719 C 134.640625 603.011719 134.773438 604.632812 134.980469 606.246094 C 135.183594 607.859375 135.464844 609.460938 135.820312 611.046875 C 136.175781 612.636719 136.601562 614.203125 137.101562 615.753906 C 137.605469 617.300781 138.175781 618.820312 138.816406 620.316406 C 139.460938 621.8125 140.171875 623.273438 140.949219 624.703125 C 141.726562 626.128906 142.570312 627.519531 143.476562 628.871094 C 144.386719 630.21875 145.355469 631.523438 146.382812 632.785156 C 147.410156 634.046875 148.496094 635.253906 149.640625 636.414062 C 152.046875 638.855469 154.667969 641.035156 157.507812 642.957031 C 160.351562 644.875 163.351562 646.492188 166.515625 647.8125 C 169.679688 649.132812 172.945312 650.128906 176.304688 650.796875 C 179.667969 651.464844 183.0625 651.796875 186.492188 651.789062 L 186.503906 651.789062 C 189.757812 651.785156 192.980469 651.476562 196.171875 650.863281 C 199.367188 650.246094 202.476562 649.339844 205.496094 648.136719 C 208.515625 646.929688 211.398438 645.453125 214.140625 643.703125 C 216.882812 641.953125 219.433594 639.960938 221.796875 637.726562 C 221.878906 637.664062 221.972656 637.628906 222.050781 637.566406 C 222.4375 637.265625 222.800781 636.949219 223.148438 636.609375 L 223.371094 636.425781 Z M 581.195312 201.824219 C 581.800781 202.433594 582.375 203.070312 582.917969 203.734375 C 583.460938 204.398438 583.96875 205.085938 584.445312 205.800781 C 584.917969 206.515625 585.359375 207.25 585.761719 208.007812 C 586.164062 208.765625 586.53125 209.539062 586.859375 210.332031 C 587.1875 211.125 587.472656 211.929688 587.722656 212.753906 C 587.972656 213.574219 588.179688 214.402344 588.347656 215.246094 C 588.511719 216.085938 588.640625 216.933594 588.722656 217.789062 C 588.808594 218.640625 588.851562 219.496094 588.851562 220.355469 C 588.851562 221.210938 588.808594 222.066406 588.726562 222.921875 C 588.644531 223.773438 588.519531 224.621094 588.351562 225.464844 C 588.1875 226.304688 587.980469 227.136719 587.734375 227.957031 C 587.484375 228.78125 587.199219 229.585938 586.871094 230.378906 C 586.546875 231.171875 586.183594 231.949219 585.78125 232.707031 C 585.378906 233.464844 584.9375 234.199219 584.464844 234.914062 C 583.992188 235.628906 583.484375 236.320312 582.941406 236.984375 C 582.398438 237.648438 581.828125 238.285156 581.222656 238.894531 L 581.144531 239.007812 L 536.464844 283.996094 L 512.914062 283.996094 C 512.054688 283.996094 511.203125 284.078125 510.359375 284.246094 C 509.515625 284.414062 508.695312 284.664062 507.902344 284.992188 C 507.105469 285.320312 506.351562 285.722656 505.636719 286.203125 C 504.921875 286.679688 504.257812 287.222656 503.652344 287.832031 C 503.042969 288.441406 502.5 289.101562 502.023438 289.816406 C 501.542969 290.53125 501.140625 291.285156 500.8125 292.082031 C 500.484375 292.875 500.234375 293.695312 500.066406 294.539062 C 499.898438 295.382812 499.816406 296.234375 499.816406 297.09375 C 499.824219 297.859375 499.894531 298.617188 500.035156 299.371094 C 500.175781 300.121094 500.382812 300.855469 500.652344 301.570312 C 500.925781 302.285156 501.257812 302.972656 501.648438 303.628906 C 502.042969 304.285156 502.488281 304.902344 502.992188 305.480469 C 503.492188 306.054688 504.042969 306.585938 504.636719 307.0625 C 505.234375 307.542969 505.867188 307.964844 506.539062 308.332031 C 507.210938 308.699219 507.90625 309.003906 508.632812 309.246094 C 509.359375 309.492188 510.101562 309.667969 510.855469 309.777344 L 495.628906 325.109375 L 472.070312 325.109375 C 471.210938 325.109375 470.359375 325.191406 469.515625 325.359375 C 468.671875 325.527344 467.851562 325.773438 467.058594 326.105469 C 466.261719 326.433594 465.507812 326.835938 464.792969 327.3125 C 464.078125 327.792969 463.417969 328.335938 462.808594 328.941406 C 462.199219 329.550781 461.65625 330.214844 461.179688 330.929688 C 460.699219 331.644531 460.296875 332.398438 459.96875 333.195312 C 459.640625 333.988281 459.390625 334.808594 459.222656 335.652344 C 459.058594 336.496094 458.972656 337.347656 458.972656 338.207031 C 458.980469 338.972656 459.054688 339.730469 459.195312 340.484375 C 459.335938 341.234375 459.539062 341.96875 459.8125 342.683594 C 460.082031 343.402344 460.414062 344.085938 460.808594 344.742188 C 461.199219 345.398438 461.648438 346.015625 462.152344 346.59375 C 462.652344 347.171875 463.203125 347.699219 463.800781 348.179688 C 464.394531 348.660156 465.03125 349.082031 465.703125 349.449219 C 466.375 349.816406 467.070312 350.121094 467.796875 350.363281 C 468.523438 350.605469 469.265625 350.78125 470.023438 350.890625 L 454.796875 366.21875 L 431.242188 366.21875 C 430.382812 366.21875 429.53125 366.304688 428.6875 366.472656 C 427.84375 366.636719 427.023438 366.886719 426.230469 367.214844 C 425.433594 367.542969 424.679688 367.949219 423.964844 368.425781 C 423.25 368.902344 422.585938 369.445312 421.976562 370.054688 C 421.371094 370.664062 420.828125 371.324219 420.347656 372.039062 C 419.871094 372.753906 419.46875 373.511719 419.140625 374.304688 C 418.808594 375.101562 418.5625 375.917969 418.394531 376.761719 C 418.226562 377.605469 418.144531 378.457031 418.144531 379.320312 C 418.148438 380.085938 418.222656 380.84375 418.363281 381.59375 C 418.503906 382.347656 418.710938 383.082031 418.980469 383.796875 C 419.253906 384.511719 419.585938 385.199219 419.976562 385.855469 C 420.371094 386.511719 420.816406 387.128906 421.320312 387.703125 C 421.824219 388.28125 422.371094 388.808594 422.96875 389.289062 C 423.566406 389.769531 424.199219 390.191406 424.871094 390.558594 C 425.542969 390.925781 426.242188 391.230469 426.96875 391.472656 C 427.691406 391.714844 428.433594 391.890625 429.191406 392.003906 L 413.964844 407.332031 L 390.410156 407.332031 C 389.550781 407.332031 388.699219 407.414062 387.855469 407.582031 C 387.011719 407.75 386.191406 408 385.398438 408.328125 C 384.601562 408.65625 383.847656 409.058594 383.132812 409.539062 C 382.417969 410.015625 381.753906 410.558594 381.148438 411.167969 C 380.539062 411.773438 379.996094 412.4375 379.519531 413.152344 C 379.039062 413.867188 378.636719 414.621094 378.308594 415.417969 C 377.980469 416.210938 377.730469 417.03125 377.5625 417.875 C 377.394531 418.71875 377.3125 419.570312 377.3125 420.429688 C 377.320312 421.195312 377.390625 421.953125 377.53125 422.707031 C 377.671875 423.457031 377.878906 424.191406 378.152344 424.90625 C 378.421875 425.625 378.753906 426.308594 379.144531 426.964844 C 379.539062 427.621094 379.988281 428.238281 380.488281 428.816406 C 380.992188 429.394531 381.542969 429.921875 382.136719 430.402344 C 382.734375 430.878906 383.367188 431.304688 384.039062 431.667969 C 384.710938 432.035156 385.410156 432.339844 386.136719 432.585938 C 386.859375 432.828125 387.601562 433.003906 388.359375 433.113281 L 373.132812 448.445312 L 349.582031 448.445312 C 348.722656 448.441406 347.871094 448.527344 347.027344 448.695312 C 346.183594 448.863281 345.363281 449.109375 344.566406 449.4375 C 343.773438 449.769531 343.019531 450.171875 342.300781 450.648438 C 341.585938 451.125 340.925781 451.667969 340.316406 452.277344 C 339.710938 452.886719 339.164062 453.546875 338.6875 454.261719 C 338.210938 454.980469 337.808594 455.734375 337.476562 456.527344 C 337.148438 457.324219 336.902344 458.140625 336.734375 458.984375 C 336.566406 459.828125 336.484375 460.683594 336.484375 461.542969 C 336.488281 462.308594 336.5625 463.066406 336.703125 463.816406 C 336.84375 464.570312 337.050781 465.304688 337.320312 466.019531 C 337.589844 466.734375 337.921875 467.421875 338.316406 468.078125 C 338.707031 468.734375 339.15625 469.351562 339.660156 469.925781 C 340.160156 470.503906 340.710938 471.03125 341.304688 471.511719 C 341.902344 471.992188 342.535156 472.414062 343.207031 472.78125 C 343.878906 473.148438 344.578125 473.453125 345.304688 473.695312 C 346.027344 473.9375 346.769531 474.117188 347.527344 474.226562 L 332.300781 489.554688 L 308.738281 489.554688 C 307.878906 489.554688 307.027344 489.636719 306.183594 489.804688 C 305.339844 489.972656 304.519531 490.222656 303.726562 490.550781 C 302.929688 490.878906 302.175781 491.28125 301.460938 491.761719 C 300.746094 492.238281 300.082031 492.78125 299.472656 493.390625 C 298.867188 493.996094 298.324219 494.660156 297.84375 495.375 C 297.367188 496.089844 296.964844 496.84375 296.636719 497.640625 C 296.304688 498.433594 296.058594 499.253906 295.890625 500.097656 C 295.722656 500.941406 295.640625 501.792969 295.640625 502.652344 C 295.644531 503.417969 295.71875 504.179688 295.859375 504.929688 C 296 505.683594 296.207031 506.417969 296.476562 507.132812 C 296.75 507.847656 297.082031 508.535156 297.472656 509.191406 C 297.867188 509.847656 298.316406 510.464844 298.816406 511.042969 C 299.320312 511.621094 299.871094 512.148438 300.46875 512.628906 C 301.0625 513.105469 301.699219 513.53125 302.371094 513.894531 C 303.042969 514.261719 303.742188 514.566406 304.46875 514.808594 C 305.195312 515.050781 305.933594 515.230469 306.691406 515.339844 L 291.46875 530.667969 L 267.90625 530.667969 C 267.046875 530.667969 266.195312 530.75 265.351562 530.917969 C 264.507812 531.085938 263.6875 531.332031 262.894531 531.660156 C 262.097656 531.992188 261.34375 532.394531 260.628906 532.871094 C 259.914062 533.351562 259.253906 533.894531 258.644531 534.5 C 258.035156 535.109375 257.492188 535.769531 257.015625 536.488281 C 256.535156 537.203125 256.132812 537.957031 255.804688 538.75 C 255.476562 539.546875 255.226562 540.367188 255.058594 541.210938 C 254.894531 542.054688 254.808594 542.90625 254.808594 543.765625 C 254.816406 544.53125 254.890625 545.289062 255.03125 546.042969 C 255.171875 546.792969 255.375 547.527344 255.648438 548.242188 C 255.917969 548.960938 256.25 549.644531 256.644531 550.300781 C 257.035156 550.960938 257.484375 551.578125 257.988281 552.152344 C 258.492188 552.730469 259.039062 553.257812 259.636719 553.738281 C 260.234375 554.21875 260.867188 554.640625 261.539062 555.007812 C 262.210938 555.375 262.910156 555.679688 263.636719 555.921875 C 264.363281 556.164062 265.101562 556.339844 265.859375 556.449219 L 236.582031 585.929688 C 236.035156 583.71875 235.339844 581.550781 234.5 579.433594 C 233.65625 577.3125 232.679688 575.261719 231.558594 573.273438 C 230.441406 571.285156 229.195312 569.382812 227.820312 567.566406 C 226.441406 565.75 224.949219 564.03125 223.34375 562.414062 C 221.734375 560.800781 220.027344 559.296875 218.214844 557.914062 C 216.40625 556.527344 214.507812 555.269531 212.527344 554.140625 C 210.546875 553.011719 208.5 552.023438 206.386719 551.171875 C 204.269531 550.320312 202.109375 549.613281 199.898438 549.054688 L 205.53125 543.382812 C 208.195312 542.953125 210.808594 542.316406 213.375 541.472656 C 215.9375 540.632812 218.417969 539.59375 220.820312 538.363281 C 223.21875 537.128906 225.507812 535.714844 227.6875 534.125 C 229.863281 532.53125 231.90625 530.777344 233.808594 528.863281 C 233.96875 528.699219 234.074219 528.503906 234.234375 528.335938 L 234.28125 528.300781 L 565.90625 194.484375 C 568.800781 194.785156 571.5625 195.566406 574.1875 196.828125 C 576.8125 198.089844 579.148438 199.753906 581.195312 201.824219 Z M 178.664062 473.347656 C 179.257812 472.746094 179.882812 472.171875 180.535156 471.632812 C 181.1875 471.089844 181.867188 470.582031 182.570312 470.109375 C 183.273438 469.636719 183.996094 469.195312 184.742188 468.792969 C 185.488281 468.390625 186.253906 468.027344 187.035156 467.699219 C 187.816406 467.371094 188.613281 467.085938 189.425781 466.835938 C 190.234375 466.589844 191.058594 466.382812 191.886719 466.214844 C 192.71875 466.046875 193.558594 465.921875 194.402344 465.839844 C 195.246094 465.753906 196.089844 465.710938 196.9375 465.710938 C 197.785156 465.710938 198.632812 465.753906 199.476562 465.835938 C 200.320312 465.921875 201.15625 466.046875 201.988281 466.210938 C 202.820312 466.378906 203.640625 466.585938 204.453125 466.832031 C 205.261719 467.078125 206.058594 467.367188 206.84375 467.691406 C 207.625 468.019531 208.390625 468.382812 209.136719 468.785156 C 209.882812 469.1875 210.609375 469.625 211.3125 470.097656 C 212.015625 470.574219 212.691406 471.078125 213.347656 471.621094 C 214 472.160156 214.625 472.734375 215.21875 473.335938 C 215.8125 473.9375 216.375 474.566406 216.910156 475.222656 C 217.441406 475.875 217.941406 476.554688 218.410156 477.261719 C 218.875 477.964844 219.308594 478.6875 219.707031 479.433594 C 220.101562 480.179688 220.464844 480.941406 220.789062 481.722656 C 221.113281 482.5 221.398438 483.296875 221.648438 484.101562 C 221.894531 484.910156 222.101562 485.726562 222.273438 486.554688 C 222.441406 487.382812 222.570312 488.21875 222.660156 489.058594 C 222.75 489.898438 222.796875 490.738281 222.804688 491.582031 C 222.8125 492.429688 222.78125 493.273438 222.707031 494.113281 C 222.636719 494.953125 222.523438 495.789062 222.367188 496.621094 C 222.214844 497.453125 222.023438 498.273438 221.789062 499.085938 C 221.558594 499.898438 221.289062 500.695312 220.976562 501.484375 C 220.667969 502.269531 220.324219 503.039062 219.9375 503.792969 C 219.554688 504.542969 219.136719 505.277344 218.683594 505.988281 C 218.230469 506.703125 217.742188 507.390625 217.222656 508.054688 C 216.703125 508.722656 216.152344 509.363281 215.570312 509.972656 L 215.167969 510.378906 L 214.96875 510.609375 C 214.371094 511.203125 213.746094 511.761719 213.09375 512.292969 C 212.441406 512.824219 211.761719 513.320312 211.0625 513.785156 C 210.359375 514.246094 209.636719 514.675781 208.890625 515.066406 C 208.148438 515.460938 207.386719 515.8125 206.609375 516.132812 C 205.828125 516.449219 205.035156 516.726562 204.230469 516.96875 C 203.425781 517.207031 202.609375 517.40625 201.78125 517.566406 C 200.957031 517.722656 200.125 517.84375 199.289062 517.921875 C 198.449219 517.996094 197.609375 518.035156 196.769531 518.027344 C 195.929688 518.023438 195.089844 517.976562 194.253906 517.890625 C 193.417969 517.800781 192.585938 517.675781 191.765625 517.503906 C 190.941406 517.335938 190.125 517.125 189.324219 516.878906 C 188.519531 516.628906 187.730469 516.339844 186.957031 516.011719 C 186.179688 515.6875 185.425781 515.324219 184.683594 514.921875 C 183.945312 514.519531 183.226562 514.082031 182.53125 513.613281 C 181.835938 513.140625 181.164062 512.636719 180.519531 512.097656 C 179.871094 511.558594 179.253906 510.992188 178.660156 510.394531 C 178.0625 509.785156 177.492188 509.144531 176.949219 508.480469 C 176.410156 507.816406 175.90625 507.125 175.433594 506.410156 C 174.960938 505.695312 174.527344 504.960938 174.125 504.203125 C 173.726562 503.449219 173.363281 502.671875 173.039062 501.878906 C 172.710938 501.089844 172.425781 500.28125 172.179688 499.460938 C 171.933594 498.640625 171.726562 497.8125 171.5625 496.972656 C 171.394531 496.132812 171.273438 495.285156 171.1875 494.433594 C 171.105469 493.582031 171.0625 492.726562 171.0625 491.871094 C 171.0625 491.015625 171.105469 490.160156 171.1875 489.308594 C 171.273438 488.457031 171.394531 487.609375 171.5625 486.769531 C 171.726562 485.929688 171.933594 485.097656 172.179688 484.277344 C 172.425781 483.460938 172.710938 482.652344 173.039062 481.859375 C 173.363281 481.070312 173.726562 480.292969 174.125 479.535156 C 174.527344 478.78125 174.960938 478.042969 175.433594 477.328125 C 175.90625 476.617188 176.410156 475.925781 176.953125 475.261719 C 177.492188 474.59375 178.0625 473.957031 178.664062 473.347656 Z M 573.328125 86.675781 L 573.378906 86.675781 C 575.085938 86.675781 576.777344 86.847656 578.449219 87.183594 C 580.125 87.519531 581.746094 88.019531 583.320312 88.679688 C 584.894531 89.34375 586.386719 90.152344 587.800781 91.109375 C 589.210938 92.070312 590.515625 93.160156 591.710938 94.375 C 592.3125 94.996094 592.882812 95.644531 593.421875 96.320312 C 593.960938 96.992188 594.464844 97.695312 594.933594 98.417969 C 595.40625 99.140625 595.839844 99.886719 596.238281 100.65625 C 596.632812 101.421875 596.992188 102.207031 597.3125 103.007812 C 597.636719 103.808594 597.917969 104.625 598.15625 105.453125 C 598.398438 106.28125 598.601562 107.121094 598.757812 107.972656 C 598.917969 108.820312 599.035156 109.675781 599.113281 110.535156 C 599.1875 111.394531 599.222656 112.257812 599.214844 113.121094 C 599.207031 113.984375 599.15625 114.84375 599.066406 115.703125 C 598.972656 116.5625 598.839844 117.414062 598.664062 118.261719 C 598.488281 119.105469 598.273438 119.941406 598.015625 120.765625 C 597.757812 121.589844 597.460938 122.402344 597.125 123.195312 C 596.789062 123.992188 596.417969 124.769531 596.003906 125.527344 C 595.59375 126.289062 595.144531 127.023438 594.660156 127.742188 C 594.175781 128.457031 593.660156 129.144531 593.109375 129.8125 C 592.558594 130.476562 591.976562 131.113281 591.363281 131.71875 L 247.007812 478.332031 C 246.460938 476.121094 245.765625 473.957031 244.921875 471.839844 C 244.082031 469.722656 243.101562 467.671875 241.980469 465.6875 C 240.863281 463.703125 239.617188 461.800781 238.242188 459.984375 C 236.867188 458.167969 235.375 456.453125 233.769531 454.839844 C 232.160156 453.226562 230.453125 451.726562 228.644531 450.339844 C 226.835938 448.957031 224.941406 447.699219 222.960938 446.574219 C 220.980469 445.445312 218.9375 444.453125 216.824219 443.601562 C 214.710938 442.75 212.550781 442.042969 210.34375 441.484375 L 239.570312 412.054688 C 239.6875 412.808594 239.867188 413.546875 240.113281 414.265625 C 240.359375 414.984375 240.664062 415.679688 241.035156 416.347656 C 241.402344 417.011719 241.824219 417.640625 242.304688 418.230469 C 242.785156 418.824219 243.3125 419.367188 243.886719 419.867188 C 244.464844 420.363281 245.078125 420.808594 245.734375 421.199219 C 246.386719 421.585938 247.070312 421.914062 247.78125 422.183594 C 248.496094 422.453125 249.226562 422.65625 249.972656 422.796875 C 250.722656 422.9375 251.476562 423.007812 252.238281 423.015625 C 253.097656 423.015625 253.949219 422.929688 254.792969 422.765625 C 255.636719 422.597656 256.457031 422.347656 257.25 422.019531 C 258.046875 421.691406 258.800781 421.285156 259.515625 420.808594 C 260.230469 420.332031 260.894531 419.789062 261.503906 419.179688 C 262.109375 418.570312 262.652344 417.910156 263.132812 417.195312 C 263.609375 416.480469 264.011719 415.722656 264.339844 414.929688 C 264.671875 414.136719 264.917969 413.316406 265.085938 412.472656 C 265.253906 411.628906 265.335938 410.777344 265.335938 409.914062 L 265.335938 386.117188 L 280.414062 370.9375 C 280.527344 371.691406 280.707031 372.425781 280.953125 373.148438 C 281.199219 373.867188 281.503906 374.5625 281.875 375.230469 C 282.242188 375.894531 282.664062 376.523438 283.144531 377.117188 C 283.625 377.707031 284.152344 378.253906 284.726562 378.753906 C 285.304688 379.25 285.917969 379.695312 286.574219 380.085938 C 287.226562 380.472656 287.910156 380.804688 288.625 381.070312 C 289.335938 381.339844 290.066406 381.542969 290.816406 381.683594 C 291.5625 381.824219 292.320312 381.898438 293.082031 381.902344 C 293.941406 381.902344 294.792969 381.820312 295.636719 381.652344 C 296.480469 381.484375 297.300781 381.238281 298.09375 380.90625 C 298.890625 380.578125 299.644531 380.175781 300.359375 379.699219 C 301.074219 379.21875 301.738281 378.675781 302.34375 378.070312 C 302.953125 377.460938 303.496094 376.796875 303.972656 376.082031 C 304.453125 375.367188 304.855469 374.613281 305.183594 373.816406 C 305.511719 373.023438 305.761719 372.203125 305.929688 371.359375 C 306.097656 370.515625 306.179688 369.664062 306.179688 368.804688 L 306.179688 344.996094 L 321.242188 329.832031 C 321.359375 330.582031 321.539062 331.320312 321.785156 332.039062 C 322.03125 332.761719 322.335938 333.453125 322.707031 334.121094 C 323.074219 334.789062 323.496094 335.417969 323.976562 336.007812 C 324.457031 336.597656 324.984375 337.144531 325.558594 337.640625 C 326.136719 338.140625 326.75 338.585938 327.40625 338.972656 C 328.058594 339.363281 328.742188 339.691406 329.457031 339.960938 C 330.167969 340.230469 330.898438 340.433594 331.648438 340.574219 C 332.394531 340.710938 333.148438 340.785156 333.910156 340.792969 C 334.773438 340.792969 335.625 340.707031 336.46875 340.539062 C 337.3125 340.375 338.128906 340.125 338.925781 339.796875 C 339.71875 339.46875 340.476562 339.0625 341.191406 338.585938 C 341.90625 338.109375 342.566406 337.566406 343.175781 336.957031 C 343.785156 336.347656 344.328125 335.6875 344.804688 334.972656 C 345.28125 334.257812 345.6875 333.5 346.015625 332.707031 C 346.34375 331.910156 346.59375 331.09375 346.757812 330.25 C 346.925781 329.40625 347.011719 328.554688 347.011719 327.691406 L 347.011719 303.890625 L 362.074219 288.722656 C 362.191406 289.472656 362.371094 290.210938 362.617188 290.929688 C 362.863281 291.652344 363.167969 292.34375 363.539062 293.011719 C 363.90625 293.675781 364.328125 294.304688 364.808594 294.898438 C 365.289062 295.488281 365.816406 296.035156 366.390625 296.53125 C 366.96875 297.03125 367.582031 297.472656 368.238281 297.863281 C 368.890625 298.25 369.574219 298.582031 370.285156 298.847656 C 371 299.117188 371.730469 299.320312 372.476562 299.460938 C 373.226562 299.601562 373.980469 299.671875 374.742188 299.679688 C 375.601562 299.679688 376.453125 299.597656 377.296875 299.429688 C 378.140625 299.261719 378.960938 299.011719 379.753906 298.683594 C 380.550781 298.355469 381.304688 297.953125 382.019531 297.472656 C 382.734375 296.996094 383.398438 296.453125 384.003906 295.84375 C 384.613281 295.238281 385.15625 294.574219 385.632812 293.859375 C 386.113281 293.144531 386.515625 292.390625 386.84375 291.59375 C 387.171875 290.800781 387.421875 289.980469 387.589844 289.136719 C 387.757812 288.292969 387.839844 287.441406 387.839844 286.582031 L 387.839844 262.785156 L 402.90625 247.617188 C 403.019531 248.367188 403.203125 249.105469 403.449219 249.824219 C 403.695312 250.542969 404 251.238281 404.367188 251.902344 C 404.738281 252.570312 405.160156 253.199219 405.640625 253.789062 C 406.121094 254.378906 406.648438 254.925781 407.222656 255.421875 C 407.796875 255.921875 408.414062 256.363281 409.066406 256.753906 C 409.722656 257.140625 410.40625 257.46875 411.117188 257.738281 C 411.828125 258.007812 412.558594 258.210938 413.308594 258.351562 C 414.054688 258.488281 414.8125 258.5625 415.570312 258.566406 C 416.433594 258.570312 417.285156 258.484375 418.128906 258.316406 C 418.972656 258.148438 419.789062 257.902344 420.585938 257.574219 C 421.378906 257.242188 422.136719 256.839844 422.851562 256.363281 C 423.566406 255.886719 424.226562 255.34375 424.835938 254.734375 C 425.445312 254.125 425.988281 253.464844 426.464844 252.75 C 426.941406 252.03125 427.347656 251.277344 427.675781 250.484375 C 428.003906 249.6875 428.253906 248.871094 428.417969 248.027344 C 428.585938 247.183594 428.671875 246.328125 428.671875 245.46875 L 428.671875 221.675781 L 443.75 206.496094 C 443.855469 207.160156 444.015625 207.808594 444.226562 208.445312 C 444.4375 209.082031 444.695312 209.699219 445.003906 210.292969 C 445.3125 210.890625 445.664062 211.457031 446.0625 212 C 446.457031 212.539062 446.894531 213.046875 447.371094 213.515625 C 447.851562 213.988281 448.359375 214.417969 448.90625 214.808594 C 449.453125 215.199219 450.023438 215.546875 450.625 215.847656 C 451.222656 216.148438 451.84375 216.398438 452.480469 216.601562 C 453.121094 216.804688 453.773438 216.957031 454.433594 217.054688 C 454.824219 217.667969 455.261719 218.238281 455.75 218.773438 C 456.941406 219.8125 458.273438 220.609375 459.753906 221.164062 C 461.234375 221.714844 462.765625 221.988281 464.347656 221.984375 C 465.980469 221.984375 467.5625 221.695312 469.089844 221.105469 C 470.613281 220.519531 471.984375 219.679688 473.199219 218.582031 C 473.839844 218.015625 474.417969 217.390625 474.933594 216.710938 C 475.453125 216.027344 475.898438 215.304688 476.273438 214.535156 C 476.648438 213.765625 476.945312 212.96875 477.164062 212.140625 C 477.382812 211.316406 477.519531 210.472656 477.570312 209.621094 C 477.625 208.765625 477.59375 207.914062 477.480469 207.066406 C 477.363281 206.21875 477.167969 205.390625 476.890625 204.582031 C 476.613281 203.773438 476.261719 203 475.828125 202.257812 C 475.398438 201.519531 474.902344 200.828125 474.335938 200.1875 C 472.988281 198.703125 471.382812 197.59375 469.515625 196.867188 L 469.515625 180.558594 L 484.578125 165.390625 C 484.695312 166.140625 484.875 166.878906 485.121094 167.597656 C 485.367188 168.316406 485.675781 169.011719 486.042969 169.675781 C 486.410156 170.34375 486.835938 170.972656 487.316406 171.5625 C 487.792969 172.15625 488.320312 172.699219 488.898438 173.199219 C 489.472656 173.695312 490.085938 174.140625 490.742188 174.527344 C 491.394531 174.917969 492.078125 175.246094 492.792969 175.515625 C 493.503906 175.78125 494.234375 175.988281 494.980469 176.125 C 495.730469 176.265625 496.484375 176.339844 497.246094 176.34375 C 498.105469 176.34375 498.957031 176.261719 499.800781 176.09375 C 500.644531 175.925781 501.464844 175.679688 502.261719 175.347656 C 503.054688 175.019531 503.808594 174.617188 504.523438 174.140625 C 505.242188 173.660156 505.902344 173.117188 506.511719 172.507812 C 507.117188 171.902344 507.660156 171.238281 508.140625 170.523438 C 508.617188 169.808594 509.019531 169.054688 509.351562 168.257812 C 509.679688 167.464844 509.925781 166.644531 510.09375 165.800781 C 510.261719 164.957031 510.34375 164.105469 510.34375 163.246094 L 510.34375 139.449219 L 555.113281 94.375 L 555.140625 94.339844 C 556.324219 93.128906 557.617188 92.042969 559.019531 91.089844 C 560.417969 90.136719 561.902344 89.332031 563.460938 88.675781 C 565.023438 88.015625 566.636719 87.519531 568.296875 87.183594 C 569.957031 86.847656 571.632812 86.679688 573.328125 86.675781 Z M 436.753906 154.945312 L 436.792969 154.945312 C 439.652344 154.957031 442.425781 155.4375 445.125 156.382812 C 447.820312 157.328125 450.289062 158.691406 452.527344 160.464844 L 160.160156 454.820312 L 160.089844 454.878906 L 160.074219 454.890625 L 159.914062 455.089844 C 159.558594 455.453125 159.230469 455.839844 158.925781 456.246094 C 158.820312 456.371094 158.753906 456.515625 158.65625 456.644531 C 157.085938 458.375 155.640625 460.199219 154.3125 462.121094 C 152.988281 464.046875 151.796875 466.046875 150.742188 468.128906 C 149.683594 470.210938 148.769531 472.355469 148 474.558594 C 147.226562 476.761719 146.605469 479.007812 146.136719 481.292969 C 145.664062 483.582031 145.347656 485.890625 145.183594 488.21875 C 145.023438 490.546875 145.015625 492.875 145.164062 495.207031 C 145.3125 497.535156 145.617188 499.847656 146.074219 502.136719 C 146.53125 504.425781 147.140625 506.675781 147.898438 508.882812 L 110.402344 546.675781 C 109.855469 544.464844 109.160156 542.296875 108.320312 540.179688 C 107.480469 538.058594 106.5 536.007812 105.382812 534.019531 C 104.265625 532.035156 103.019531 530.128906 101.644531 528.3125 C 100.269531 526.492188 98.777344 524.777344 97.167969 523.160156 C 95.5625 521.542969 93.851562 520.042969 92.042969 518.65625 C 90.230469 517.269531 88.335938 516.011719 86.355469 514.882812 C 84.375 513.753906 82.328125 512.761719 80.214844 511.910156 C 78.101562 511.058594 75.9375 510.351562 73.730469 509.789062 L 102.960938 480.363281 C 103.074219 481.113281 103.253906 481.851562 103.5 482.570312 C 103.746094 483.292969 104.054688 483.984375 104.421875 484.652344 C 104.789062 485.320312 105.214844 485.949219 105.691406 486.539062 C 106.171875 487.128906 106.699219 487.675781 107.273438 488.171875 C 107.851562 488.671875 108.464844 489.113281 109.121094 489.503906 C 109.773438 489.894531 110.457031 490.222656 111.167969 490.492188 C 111.882812 490.757812 112.613281 490.964844 113.359375 491.101562 C 114.109375 491.242188 114.863281 491.316406 115.625 491.320312 C 116.484375 491.320312 117.335938 491.238281 118.179688 491.070312 C 119.023438 490.902344 119.84375 490.65625 120.640625 490.324219 C 121.433594 489.996094 122.1875 489.59375 122.902344 489.117188 C 123.621094 488.636719 124.28125 488.09375 124.890625 487.488281 C 125.496094 486.878906 126.039062 486.214844 126.519531 485.5 C 126.996094 484.785156 127.398438 484.03125 127.730469 483.234375 C 128.058594 482.441406 128.304688 481.621094 128.472656 480.777344 C 128.640625 479.933594 128.722656 479.082031 128.722656 478.222656 L 128.722656 454.421875 L 143.789062 439.253906 C 143.90625 440.007812 144.085938 440.742188 144.332031 441.464844 C 144.578125 442.183594 144.882812 442.878906 145.253906 443.542969 C 145.621094 444.210938 146.046875 444.835938 146.523438 445.429688 C 147.003906 446.019531 147.53125 446.566406 148.105469 447.0625 C 148.683594 447.558594 149.296875 448.003906 149.953125 448.394531 C 150.605469 448.78125 151.289062 449.109375 152 449.378906 C 152.714844 449.648438 153.445312 449.851562 154.191406 449.992188 C 154.941406 450.128906 155.695312 450.203125 156.457031 450.207031 C 157.316406 450.210938 158.167969 450.125 159.011719 449.957031 C 159.855469 449.789062 160.675781 449.542969 161.46875 449.214844 C 162.265625 448.886719 163.019531 448.480469 163.734375 448.003906 C 164.449219 447.527344 165.113281 446.984375 165.71875 446.375 C 166.328125 445.765625 166.871094 445.105469 167.347656 444.390625 C 167.828125 443.675781 168.230469 442.917969 168.558594 442.125 C 168.886719 441.328125 169.136719 440.511719 169.304688 439.667969 C 169.472656 438.824219 169.554688 437.972656 169.554688 437.109375 L 169.554688 413.316406 L 184.632812 398.136719 C 184.746094 398.890625 184.925781 399.625 185.171875 400.347656 C 185.417969 401.066406 185.726562 401.761719 186.09375 402.425781 C 186.460938 403.09375 186.886719 403.722656 187.363281 404.3125 C 187.84375 404.90625 188.371094 405.449219 188.949219 405.949219 C 189.523438 406.445312 190.136719 406.890625 190.792969 407.28125 C 191.445312 407.667969 192.128906 408 192.84375 408.265625 C 193.554688 408.535156 194.285156 408.738281 195.035156 408.878906 C 195.78125 409.019531 196.539062 409.089844 197.296875 409.097656 C 198.160156 409.097656 199.011719 409.015625 199.855469 408.847656 C 200.699219 408.679688 201.519531 408.429688 202.3125 408.101562 C 203.105469 407.773438 203.863281 407.371094 204.578125 406.890625 C 205.292969 406.414062 205.953125 405.871094 206.5625 405.261719 C 207.171875 404.65625 207.714844 403.992188 208.191406 403.277344 C 208.667969 402.5625 209.074219 401.808594 209.402344 401.011719 C 209.730469 400.21875 209.980469 399.398438 210.148438 398.554688 C 210.3125 397.710938 210.398438 396.859375 210.398438 396 L 210.398438 372.195312 L 225.460938 357.027344 C 225.578125 357.78125 225.757812 358.515625 226.003906 359.238281 C 226.25 359.957031 226.558594 360.652344 226.925781 361.316406 C 227.292969 361.984375 227.71875 362.613281 228.195312 363.203125 C 228.675781 363.796875 229.203125 364.339844 229.777344 364.835938 C 230.355469 365.335938 230.96875 365.777344 231.625 366.167969 C 232.277344 366.558594 232.960938 366.886719 233.671875 367.15625 C 234.386719 367.421875 235.117188 367.628906 235.863281 367.765625 C 236.613281 367.90625 237.367188 367.980469 238.128906 367.984375 C 238.988281 367.984375 239.839844 367.902344 240.683594 367.734375 C 241.527344 367.566406 242.347656 367.320312 243.140625 366.988281 C 243.9375 366.660156 244.691406 366.257812 245.40625 365.78125 C 246.121094 365.300781 246.785156 364.757812 247.394531 364.152344 C 248 363.542969 248.542969 362.878906 249.023438 362.164062 C 249.5 361.449219 249.902344 360.695312 250.230469 359.898438 C 250.5625 359.105469 250.808594 358.285156 250.976562 357.441406 C 251.144531 356.597656 251.226562 355.746094 251.226562 354.886719 L 251.226562 331.089844 L 266.292969 315.921875 C 266.410156 316.671875 266.589844 317.410156 266.835938 318.128906 C 267.082031 318.851562 267.390625 319.542969 267.757812 320.210938 C 268.125 320.875 268.550781 321.503906 269.027344 322.09375 C 269.507812 322.6875 270.035156 323.230469 270.613281 323.730469 C 271.1875 324.226562 271.800781 324.667969 272.457031 325.058594 C 273.109375 325.449219 273.792969 325.777344 274.503906 326.046875 C 275.21875 326.3125 275.949219 326.515625 276.695312 326.65625 C 277.445312 326.796875 278.199219 326.867188 278.960938 326.875 C 279.820312 326.875 280.671875 326.792969 281.515625 326.625 C 282.359375 326.457031 283.179688 326.207031 283.972656 325.878906 C 284.769531 325.550781 285.523438 325.148438 286.238281 324.667969 C 286.953125 324.191406 287.617188 323.648438 288.222656 323.039062 C 288.832031 322.429688 289.375 321.769531 289.855469 321.054688 C 290.332031 320.339844 290.734375 319.585938 291.0625 318.789062 C 291.394531 317.996094 291.640625 317.175781 291.808594 316.332031 C 291.976562 315.488281 292.058594 314.636719 292.058594 313.777344 L 292.058594 289.984375 L 307.125 274.8125 C 307.242188 275.566406 307.421875 276.300781 307.667969 277.023438 C 307.914062 277.742188 308.222656 278.433594 308.589844 279.101562 C 308.957031 279.765625 309.382812 280.394531 309.863281 280.984375 C 310.339844 281.574219 310.867188 282.121094 311.445312 282.617188 C 312.019531 283.117188 312.632812 283.558594 313.289062 283.949219 C 313.941406 284.335938 314.625 284.664062 315.335938 284.933594 C 316.050781 285.203125 316.777344 285.40625 317.527344 285.542969 C 318.273438 285.683594 319.03125 285.757812 319.789062 285.761719 C 320.652344 285.761719 321.503906 285.679688 322.347656 285.511719 C 323.191406 285.34375 324.007812 285.097656 324.804688 284.765625 C 325.597656 284.4375 326.355469 284.035156 327.070312 283.558594 C 327.785156 283.078125 328.445312 282.535156 329.054688 281.929688 C 329.664062 281.320312 330.207031 280.65625 330.683594 279.941406 C 331.160156 279.226562 331.566406 278.472656 331.894531 277.675781 C 332.222656 276.882812 332.472656 276.0625 332.636719 275.21875 C 332.804688 274.375 332.890625 273.523438 332.890625 272.664062 L 332.890625 248.875 L 347.96875 233.695312 C 348.082031 234.449219 348.265625 235.183594 348.507812 235.90625 C 348.753906 236.625 349.0625 237.316406 349.429688 237.984375 C 349.796875 238.652344 350.222656 239.277344 350.703125 239.871094 C 351.179688 240.460938 351.710938 241.007812 352.285156 241.503906 C 352.859375 242.003906 353.476562 242.445312 354.128906 242.835938 C 354.785156 243.222656 355.464844 243.554688 356.179688 243.820312 C 356.890625 244.089844 357.621094 244.292969 358.371094 244.433594 C 359.117188 244.570312 359.871094 244.644531 360.632812 244.652344 C 361.492188 244.652344 362.347656 244.566406 363.191406 244.398438 C 364.035156 244.234375 364.851562 243.984375 365.648438 243.65625 C 366.441406 243.328125 367.199219 242.921875 367.914062 242.445312 C 368.628906 241.96875 369.289062 241.425781 369.898438 240.816406 C 370.507812 240.207031 371.050781 239.546875 371.527344 238.832031 C 372.003906 238.117188 372.410156 237.359375 372.738281 236.566406 C 373.066406 235.769531 373.316406 234.953125 373.480469 234.109375 C 373.648438 233.265625 373.734375 232.414062 373.730469 231.550781 L 373.730469 207.757812 L 418.503906 162.683594 L 418.542969 162.621094 L 418.566406 162.605469 C 419.75 161.394531 421.042969 160.308594 422.441406 159.355469 C 423.84375 158.402344 425.324219 157.59375 426.886719 156.9375 C 428.449219 156.28125 430.058594 155.78125 431.722656 155.449219 C 433.382812 155.113281 435.058594 154.945312 436.753906 154.945312 Z M 42.050781 578.710938 C 41.449219 578.101562 40.875 577.464844 40.335938 576.800781 C 39.796875 576.132812 39.289062 575.445312 38.816406 574.730469 C 38.34375 574.015625 37.910156 573.28125 37.507812 572.523438 C 37.105469 571.765625 36.742188 570.992188 36.417969 570.199219 C 36.09375 569.40625 35.808594 568.597656 35.558594 567.777344 C 35.3125 566.957031 35.105469 566.128906 34.941406 565.285156 C 34.773438 564.445312 34.652344 563.601562 34.566406 562.746094 C 34.484375 561.894531 34.441406 561.039062 34.441406 560.183594 C 34.441406 559.328125 34.484375 558.472656 34.566406 557.617188 C 34.652344 556.765625 34.773438 555.917969 34.941406 555.078125 C 35.105469 554.238281 35.3125 553.410156 35.558594 552.585938 C 35.808594 551.765625 36.09375 550.960938 36.417969 550.167969 C 36.742188 549.375 37.105469 548.601562 37.507812 547.84375 C 37.910156 547.085938 38.34375 546.351562 38.816406 545.636719 C 39.289062 544.921875 39.796875 544.230469 40.335938 543.566406 C 40.875 542.902344 41.449219 542.265625 42.050781 541.65625 C 42.644531 541.050781 43.269531 540.480469 43.921875 539.9375 C 44.574219 539.398438 45.253906 538.890625 45.957031 538.414062 C 46.660156 537.941406 47.382812 537.503906 48.128906 537.101562 C 48.875 536.699219 49.640625 536.332031 50.421875 536.007812 C 51.207031 535.679688 52 535.390625 52.8125 535.144531 C 53.625 534.894531 54.445312 534.6875 55.277344 534.519531 C 56.105469 534.355469 56.945312 534.230469 57.789062 534.144531 C 58.632812 534.0625 59.476562 534.019531 60.324219 534.019531 C 61.171875 534.019531 62.019531 534.058594 62.863281 534.144531 C 63.707031 534.226562 64.542969 534.351562 65.375 534.515625 C 66.207031 534.683594 67.027344 534.890625 67.839844 535.136719 C 68.652344 535.386719 69.449219 535.671875 70.230469 536 C 71.011719 536.324219 71.777344 536.6875 72.523438 537.089844 C 73.269531 537.492188 73.996094 537.929688 74.699219 538.40625 C 75.402344 538.878906 76.082031 539.386719 76.734375 539.925781 C 77.386719 540.46875 78.011719 541.039062 78.609375 541.640625 C 79.210938 542.25 79.78125 542.890625 80.320312 543.554688 C 80.859375 544.21875 81.367188 544.910156 81.839844 545.625 C 82.3125 546.339844 82.75 547.074219 83.148438 547.832031 C 83.550781 548.589844 83.914062 549.363281 84.238281 550.15625 C 84.5625 550.949219 84.851562 551.757812 85.097656 552.578125 C 85.34375 553.398438 85.550781 554.226562 85.714844 555.070312 C 85.882812 555.910156 86.007812 556.757812 86.089844 557.609375 C 86.175781 558.460938 86.214844 559.316406 86.21875 560.171875 C 86.21875 561.03125 86.175781 561.886719 86.09375 562.738281 C 86.011719 563.589844 85.886719 564.4375 85.71875 565.277344 C 85.554688 566.121094 85.347656 566.949219 85.101562 567.769531 C 84.855469 568.589844 84.570312 569.398438 84.246094 570.191406 C 83.921875 570.984375 83.558594 571.757812 83.15625 572.515625 C 82.757812 573.273438 82.320312 574.011719 81.847656 574.726562 C 81.378906 575.441406 80.871094 576.132812 80.332031 576.796875 C 79.792969 577.460938 79.222656 578.101562 78.621094 578.710938 C 78.023438 579.3125 77.398438 579.886719 76.746094 580.425781 C 76.09375 580.964844 75.414062 581.472656 74.710938 581.945312 C 74.007812 582.421875 73.28125 582.859375 72.535156 583.261719 C 71.789062 583.664062 71.023438 584.027344 70.242188 584.351562 C 69.457031 584.679688 68.660156 584.964844 67.851562 585.214844 C 67.039062 585.460938 66.21875 585.667969 65.386719 585.835938 C 64.554688 586 63.71875 586.125 62.871094 586.210938 C 62.027344 586.292969 61.183594 586.335938 60.335938 586.335938 C 59.488281 586.335938 58.640625 586.292969 57.796875 586.210938 C 56.953125 586.125 56.117188 586 55.285156 585.835938 C 54.453125 585.667969 53.632812 585.460938 52.820312 585.214844 C 52.007812 584.964844 51.210938 584.679688 50.429688 584.351562 C 49.648438 584.027344 48.882812 583.664062 48.136719 583.261719 C 47.390625 582.859375 46.664062 582.421875 45.960938 581.945312 C 45.257812 581.472656 44.578125 580.964844 43.925781 580.425781 C 43.273438 579.886719 42.648438 579.3125 42.050781 578.710938 Z M 168.222656 617.957031 C 167.625 617.347656 167.054688 616.714844 166.515625 616.050781 C 165.980469 615.386719 165.472656 614.699219 165.003906 613.988281 C 164.53125 613.277344 164.09375 612.542969 163.695312 611.789062 C 163.292969 611.035156 162.933594 610.265625 162.605469 609.472656 C 162.28125 608.683594 161.996094 607.882812 161.75 607.0625 C 161.5 606.246094 161.292969 605.417969 161.128906 604.582031 C 160.960938 603.746094 160.835938 602.902344 160.75 602.050781 C 160.667969 601.203125 160.625 600.351562 160.621094 599.496094 C 160.621094 598.644531 160.660156 597.789062 160.742188 596.941406 C 160.820312 596.089844 160.945312 595.246094 161.105469 594.410156 C 161.269531 593.570312 161.472656 592.742188 161.71875 591.925781 C 161.960938 591.105469 162.242188 590.300781 162.566406 589.511719 C 162.886719 588.71875 163.246094 587.945312 163.644531 587.191406 C 164.042969 586.433594 164.472656 585.699219 164.941406 584.988281 C 165.410156 584.273438 165.914062 583.582031 166.449219 582.917969 C 166.984375 582.253906 167.550781 581.617188 168.148438 581.007812 L 168.222656 580.9375 L 168.367188 580.792969 C 168.964844 580.199219 169.589844 579.632812 170.246094 579.097656 C 170.898438 578.5625 171.574219 578.0625 172.277344 577.597656 C 172.980469 577.128906 173.703125 576.695312 174.449219 576.300781 C 175.191406 575.90625 175.957031 575.546875 176.734375 575.226562 C 177.515625 574.902344 178.308594 574.621094 179.117188 574.378906 C 179.925781 574.136719 180.742188 573.933594 181.570312 573.769531 C 182.398438 573.609375 183.234375 573.488281 184.074219 573.40625 C 184.914062 573.324219 185.753906 573.285156 186.597656 573.289062 C 187.441406 573.292969 188.28125 573.335938 189.121094 573.421875 C 189.960938 573.507812 190.792969 573.632812 191.621094 573.800781 C 192.449219 573.96875 193.265625 574.175781 194.070312 574.421875 C 194.878906 574.667969 195.671875 574.957031 196.449219 575.28125 C 197.226562 575.609375 197.988281 575.972656 198.730469 576.371094 C 199.472656 576.773438 200.191406 577.207031 200.890625 577.679688 C 201.59375 578.152344 202.265625 578.65625 202.917969 579.195312 C 203.566406 579.730469 204.1875 580.300781 204.78125 580.898438 C 205.382812 581.507812 205.953125 582.148438 206.496094 582.8125 C 207.035156 583.476562 207.539062 584.167969 208.011719 584.882812 C 208.484375 585.59375 208.921875 586.332031 209.324219 587.089844 C 209.726562 587.84375 210.089844 588.621094 210.414062 589.414062 C 210.738281 590.203125 211.023438 591.011719 211.273438 591.832031 C 211.519531 592.652344 211.726562 593.480469 211.890625 594.324219 C 212.058594 595.164062 212.183594 596.007812 212.265625 596.863281 C 212.347656 597.714844 212.390625 598.570312 212.390625 599.425781 C 212.390625 600.28125 212.351562 601.136719 212.269531 601.988281 C 212.183594 602.84375 212.0625 603.6875 211.894531 604.527344 C 211.730469 605.371094 211.523438 606.199219 211.277344 607.019531 C 211.03125 607.839844 210.746094 608.648438 210.421875 609.441406 C 210.097656 610.234375 209.734375 611.007812 209.332031 611.765625 C 208.933594 612.523438 208.496094 613.257812 208.023438 613.972656 C 207.550781 614.6875 207.046875 615.378906 206.507812 616.042969 C 205.96875 616.707031 205.398438 617.347656 204.796875 617.957031 C 204.199219 618.558594 203.574219 619.132812 202.921875 619.671875 C 202.269531 620.214844 201.589844 620.722656 200.886719 621.199219 C 200.183594 621.671875 199.457031 622.109375 198.710938 622.511719 C 197.964844 622.914062 197.199219 623.28125 196.417969 623.605469 C 195.636719 623.933594 194.839844 624.222656 194.027344 624.46875 C 193.214844 624.71875 192.394531 624.925781 191.5625 625.089844 C 190.730469 625.257812 189.894531 625.382812 189.046875 625.46875 C 188.203125 625.550781 187.359375 625.59375 186.511719 625.59375 C 185.660156 625.59375 184.816406 625.550781 183.972656 625.46875 C 183.128906 625.382812 182.289062 625.257812 181.457031 625.089844 C 180.625 624.925781 179.804688 624.71875 178.992188 624.46875 C 178.183594 624.222656 177.382812 623.933594 176.601562 623.605469 C 175.820312 623.28125 175.054688 622.914062 174.308594 622.511719 C 173.5625 622.109375 172.835938 621.671875 172.132812 621.199219 C 171.429688 620.722656 170.75 620.214844 170.097656 619.671875 C 169.445312 619.132812 168.820312 618.558594 168.222656 617.957031 Z M 726.554688 295.027344 C 727.753906 293.8125 728.894531 292.539062 729.96875 291.210938 C 731.046875 289.882812 732.054688 288.507812 733 287.082031 C 733.941406 285.65625 734.8125 284.1875 735.609375 282.675781 C 736.410156 281.164062 737.132812 279.617188 737.78125 278.035156 C 738.429688 276.457031 739 274.847656 739.492188 273.207031 C 739.980469 271.570312 740.390625 269.914062 740.722656 268.238281 C 741.050781 266.558594 741.296875 264.871094 741.460938 263.167969 C 741.625 261.46875 741.707031 259.761719 741.707031 258.054688 C 741.703125 256.34375 741.617188 254.640625 741.449219 252.9375 C 741.28125 251.238281 741.03125 249.546875 740.699219 247.871094 C 740.363281 246.195312 739.949219 244.539062 739.457031 242.902344 C 738.960938 241.265625 738.386719 239.660156 737.734375 238.078125 C 737.082031 236.5 736.355469 234.953125 735.554688 233.445312 C 734.75 231.9375 733.878906 230.46875 732.929688 229.046875 C 731.984375 227.621094 730.972656 226.246094 729.894531 224.921875 C 728.8125 223.597656 727.671875 222.328125 726.46875 221.113281 C 724.066406 218.683594 721.449219 216.507812 718.617188 214.59375 C 715.78125 212.679688 712.789062 211.066406 709.632812 209.746094 C 706.480469 208.429688 703.226562 207.433594 699.875 206.761719 C 696.523438 206.089844 693.136719 205.753906 689.71875 205.753906 L 689.628906 205.753906 C 686.28125 205.757812 682.96875 206.082031 679.683594 206.730469 C 676.398438 207.375 673.207031 208.332031 670.109375 209.597656 C 667.011719 210.863281 664.0625 212.414062 661.265625 214.25 C 658.46875 216.085938 655.875 218.175781 653.480469 220.515625 L 653.46875 220.488281 L 653.363281 220.578125 L 653.378906 220.605469 L 652.929688 221.039062 C 652.859375 221.109375 652.757812 221.132812 652.6875 221.207031 L 276.835938 599.714844 L 276.730469 599.835938 C 276.609375 599.957031 276.460938 600.039062 276.335938 600.164062 C 275.644531 600.859375 275.167969 601.675781 274.519531 602.402344 C 274.328125 602.679688 274.050781 602.898438 273.878906 603.191406 C 272.820312 604.425781 271.820312 605.707031 270.882812 607.035156 C 269.945312 608.359375 269.066406 609.726562 268.257812 611.136719 C 267.445312 612.546875 266.699219 613.988281 266.019531 615.464844 C 265.34375 616.945312 264.734375 618.449219 264.199219 619.984375 C 263.660156 621.519531 263.195312 623.074219 262.800781 624.652344 C 262.410156 626.230469 262.089844 627.824219 261.84375 629.429688 C 261.597656 631.039062 261.429688 632.652344 261.335938 634.277344 C 261.238281 635.898438 261.222656 637.523438 261.277344 639.148438 C 261.332031 640.773438 261.464844 642.394531 261.671875 644.003906 C 261.878906 645.617188 262.160156 647.21875 262.515625 648.804688 C 262.871094 650.390625 263.300781 651.957031 263.800781 653.503906 C 264.300781 655.050781 264.875 656.570312 265.515625 658.066406 C 266.160156 659.558594 266.871094 661.019531 267.648438 662.445312 C 268.425781 663.875 269.269531 665.261719 270.175781 666.609375 C 271.085938 667.960938 272.054688 669.265625 273.082031 670.523438 C 274.109375 671.78125 275.195312 672.992188 276.335938 674.148438 C 277.5 675.328125 278.71875 676.453125 279.992188 677.515625 C 281.265625 678.578125 282.585938 679.578125 283.953125 680.515625 C 285.324219 681.449219 286.734375 682.320312 288.1875 683.117188 C 289.640625 683.917969 291.125 684.644531 292.648438 685.304688 C 294.171875 685.960938 295.722656 686.539062 297.300781 687.046875 C 298.882812 687.554688 300.480469 687.984375 302.101562 688.335938 C 303.722656 688.6875 305.355469 688.960938 307.003906 689.15625 C 308.648438 689.351562 310.300781 689.464844 311.960938 689.5 C 313.617188 689.535156 315.273438 689.492188 316.925781 689.367188 C 318.582031 689.242188 320.222656 689.039062 321.859375 688.753906 C 323.492188 688.46875 325.109375 688.109375 326.707031 687.671875 C 328.308594 687.230469 329.882812 686.714844 331.429688 686.125 C 332.980469 685.535156 334.496094 684.867188 335.980469 684.132812 C 337.46875 683.394531 338.914062 682.585938 340.320312 681.710938 C 341.726562 680.832031 343.089844 679.890625 344.40625 678.878906 C 345.722656 677.871094 346.988281 676.800781 348.199219 675.671875 C 348.339844 675.566406 348.484375 675.496094 348.621094 675.390625 C 349.113281 675.003906 349.582031 674.59375 350.027344 674.160156 L 350.039062 674.148438 L 350.042969 674.148438 L 726.480469 295.136719 Z M 689.667969 231.949219 C 691.363281 231.949219 693.042969 232.117188 694.707031 232.453125 C 696.367188 232.785156 697.984375 233.28125 699.546875 233.9375 C 701.113281 234.59375 702.597656 235.394531 704 236.347656 C 705.40625 237.296875 706.703125 238.375 707.894531 239.585938 C 708.5 240.191406 709.070312 240.828125 709.613281 241.492188 C 710.15625 242.15625 710.664062 242.847656 711.140625 243.558594 C 711.613281 244.273438 712.050781 245.007812 712.457031 245.765625 C 712.859375 246.523438 713.222656 247.296875 713.550781 248.089844 C 713.878906 248.882812 714.164062 249.6875 714.414062 250.507812 C 714.660156 251.332031 714.867188 252.160156 715.035156 253 C 715.203125 253.84375 715.328125 254.6875 715.414062 255.542969 C 715.496094 256.394531 715.539062 257.25 715.539062 258.109375 C 715.539062 258.964844 715.5 259.820312 715.417969 260.671875 C 715.332031 261.527344 715.207031 262.375 715.042969 263.214844 C 714.878906 264.054688 714.671875 264.886719 714.421875 265.707031 C 714.175781 266.527344 713.890625 267.335938 713.5625 268.128906 C 713.238281 268.921875 712.875 269.695312 712.472656 270.453125 C 712.070312 271.210938 711.632812 271.945312 711.160156 272.660156 C 710.6875 273.375 710.179688 274.066406 709.636719 274.730469 C 709.097656 275.394531 708.523438 276.03125 707.921875 276.640625 L 707.882812 276.667969 L 663.136719 321.71875 L 639.601562 321.71875 C 638.742188 321.71875 637.890625 321.800781 637.046875 321.96875 C 636.203125 322.136719 635.382812 322.386719 634.585938 322.714844 C 633.792969 323.042969 633.039062 323.445312 632.324219 323.925781 C 631.605469 324.402344 630.945312 324.945312 630.335938 325.554688 C 629.730469 326.160156 629.1875 326.824219 628.707031 327.539062 C 628.230469 328.253906 627.828125 329.007812 627.5 329.804688 C 627.167969 330.597656 626.921875 331.417969 626.753906 332.261719 C 626.585938 333.105469 626.503906 333.957031 626.503906 334.816406 C 626.507812 335.582031 626.582031 336.339844 626.722656 337.09375 C 626.863281 337.84375 627.070312 338.578125 627.339844 339.292969 C 627.609375 340.007812 627.941406 340.691406 628.332031 341.347656 C 628.726562 342.003906 629.171875 342.621094 629.675781 343.199219 C 630.175781 343.773438 630.726562 344.300781 631.320312 344.78125 C 631.914062 345.261719 632.550781 345.683594 633.21875 346.050781 C 633.890625 346.417969 634.585938 346.722656 635.3125 346.964844 C 636.039062 347.210938 636.777344 347.386719 637.535156 347.5 L 622.308594 362.832031 L 598.757812 362.832031 C 597.898438 362.832031 597.046875 362.914062 596.203125 363.082031 C 595.359375 363.25 594.539062 363.496094 593.746094 363.828125 C 592.949219 364.15625 592.195312 364.558594 591.480469 365.035156 C 590.765625 365.515625 590.101562 366.058594 589.496094 366.664062 C 588.886719 367.273438 588.34375 367.933594 587.863281 368.652344 C 587.386719 369.367188 586.984375 370.121094 586.65625 370.914062 C 586.324219 371.710938 586.078125 372.53125 585.910156 373.375 C 585.742188 374.21875 585.660156 375.070312 585.660156 375.929688 C 585.664062 376.695312 585.738281 377.453125 585.878906 378.203125 C 586.019531 378.957031 586.226562 379.691406 586.496094 380.40625 C 586.765625 381.121094 587.097656 381.808594 587.492188 382.464844 C 587.882812 383.121094 588.332031 383.738281 588.835938 384.3125 C 589.335938 384.890625 589.886719 385.417969 590.480469 385.898438 C 591.078125 386.378906 591.710938 386.800781 592.382812 387.167969 C 593.054688 387.535156 593.753906 387.839844 594.476562 388.082031 C 595.203125 388.324219 595.945312 388.5 596.703125 388.613281 L 581.476562 403.941406 L 557.929688 403.941406 C 557.066406 403.941406 556.214844 404.027344 555.371094 404.191406 C 554.527344 404.359375 553.710938 404.609375 552.914062 404.9375 C 552.121094 405.265625 551.363281 405.671875 550.648438 406.148438 C 549.933594 406.625 549.273438 407.167969 548.664062 407.777344 C 548.054688 408.386719 547.511719 409.046875 547.035156 409.761719 C 546.558594 410.476562 546.152344 411.234375 545.824219 412.027344 C 545.496094 412.824219 545.246094 413.640625 545.082031 414.484375 C 544.914062 415.328125 544.828125 416.179688 544.828125 417.042969 C 544.835938 417.804688 544.910156 418.566406 545.050781 419.316406 C 545.191406 420.070312 545.394531 420.800781 545.667969 421.515625 C 545.9375 422.234375 546.269531 422.917969 546.660156 423.574219 C 547.054688 424.230469 547.5 424.847656 548.003906 425.425781 C 548.507812 426.003906 549.054688 426.53125 549.652344 427.007812 C 550.246094 427.488281 550.882812 427.914062 551.550781 428.277344 C 552.222656 428.644531 552.921875 428.949219 553.648438 429.195312 C 554.371094 429.4375 555.113281 429.613281 555.871094 429.726562 L 540.644531 445.054688 L 517.097656 445.054688 C 516.238281 445.054688 515.386719 445.136719 514.542969 445.304688 C 513.699219 445.472656 512.878906 445.71875 512.085938 446.050781 C 511.289062 446.378906 510.535156 446.78125 509.820312 447.257812 C 509.105469 447.738281 508.441406 448.28125 507.832031 448.886719 C 507.226562 449.496094 506.683594 450.160156 506.203125 450.875 C 505.726562 451.589844 505.324219 452.34375 504.996094 453.140625 C 504.664062 453.933594 504.417969 454.753906 504.25 455.597656 C 504.082031 456.441406 504 457.292969 504 458.152344 C 504.003906 458.917969 504.078125 459.675781 504.21875 460.429688 C 504.359375 461.179688 504.566406 461.914062 504.835938 462.628906 C 505.109375 463.34375 505.4375 464.03125 505.832031 464.6875 C 506.226562 465.34375 506.671875 465.960938 507.175781 466.535156 C 507.675781 467.113281 508.226562 467.640625 508.820312 468.121094 C 509.417969 468.601562 510.050781 469.023438 510.722656 469.390625 C 511.394531 469.757812 512.089844 470.0625 512.816406 470.304688 C 513.542969 470.546875 514.285156 470.726562 515.039062 470.835938 L 499.828125 486.152344 L 476.269531 486.152344 C 475.40625 486.152344 474.554688 486.238281 473.710938 486.402344 C 472.867188 486.570312 472.050781 486.820312 471.253906 487.148438 C 470.460938 487.476562 469.703125 487.878906 468.988281 488.359375 C 468.273438 488.835938 467.613281 489.378906 467.003906 489.988281 C 466.394531 490.597656 465.851562 491.257812 465.375 491.972656 C 464.898438 492.6875 464.492188 493.441406 464.164062 494.238281 C 463.835938 495.03125 463.585938 495.851562 463.417969 496.695312 C 463.253906 497.539062 463.167969 498.390625 463.167969 499.25 C 463.175781 500.015625 463.25 500.777344 463.390625 501.527344 C 463.53125 502.28125 463.734375 503.015625 464.007812 503.730469 C 464.277344 504.445312 464.609375 505.132812 465.003906 505.789062 C 465.394531 506.445312 465.84375 507.0625 466.347656 507.640625 C 466.847656 508.214844 467.398438 508.746094 467.996094 509.222656 C 468.59375 509.703125 469.226562 510.125 469.898438 510.492188 C 470.570312 510.859375 471.269531 511.164062 471.996094 511.40625 C 472.71875 511.648438 473.460938 511.824219 474.21875 511.9375 L 458.996094 527.265625 L 435.425781 527.265625 C 434.566406 527.265625 433.710938 527.347656 432.867188 527.515625 C 432.023438 527.683594 431.207031 527.929688 430.410156 528.257812 C 429.617188 528.589844 428.859375 528.992188 428.144531 529.46875 C 427.429688 529.949219 426.769531 530.492188 426.160156 531.097656 C 425.550781 531.707031 425.007812 532.367188 424.53125 533.085938 C 424.054688 533.800781 423.648438 534.554688 423.320312 535.347656 C 422.992188 536.144531 422.746094 536.964844 422.578125 537.808594 C 422.410156 538.652344 422.324219 539.503906 422.328125 540.363281 C 422.332031 541.128906 422.40625 541.886719 422.546875 542.640625 C 422.6875 543.394531 422.894531 544.128906 423.164062 544.84375 C 423.4375 545.558594 423.769531 546.246094 424.164062 546.902344 C 424.554688 547.558594 425.003906 548.175781 425.507812 548.753906 C 426.011719 549.332031 426.5625 549.859375 427.15625 550.339844 C 427.753906 550.820312 428.390625 551.242188 429.0625 551.609375 C 429.734375 551.976562 430.433594 552.28125 431.160156 552.523438 C 431.886719 552.765625 432.628906 552.941406 433.386719 553.050781 L 418.164062 568.375 L 394.59375 568.375 C 393.734375 568.375 392.882812 568.457031 392.039062 568.625 C 391.195312 568.792969 390.375 569.042969 389.582031 569.371094 C 388.785156 569.699219 388.03125 570.101562 387.316406 570.582031 C 386.601562 571.058594 385.9375 571.601562 385.332031 572.210938 C 384.722656 572.816406 384.179688 573.480469 383.703125 574.195312 C 383.222656 574.910156 382.820312 575.664062 382.492188 576.460938 C 382.164062 577.253906 381.914062 578.074219 381.746094 578.917969 C 381.578125 579.761719 381.496094 580.613281 381.496094 581.472656 C 381.5 582.238281 381.574219 583 381.714844 583.75 C 381.855469 584.503906 382.0625 585.238281 382.335938 585.953125 C 382.605469 586.671875 382.9375 587.355469 383.332031 588.015625 C 383.726562 588.671875 384.171875 589.289062 384.675781 589.867188 C 385.179688 590.441406 385.730469 590.972656 386.328125 591.449219 C 386.925781 591.929688 387.558594 592.351562 388.230469 592.71875 C 388.902344 593.085938 389.601562 593.390625 390.328125 593.632812 C 391.054688 593.875 391.796875 594.050781 392.554688 594.160156 L 363.269531 623.648438 C 362.71875 621.4375 362.023438 619.273438 361.183594 617.15625 C 360.339844 615.039062 359.359375 612.988281 358.242188 611.003906 C 357.125 609.019531 355.878906 607.117188 354.503906 605.300781 C 353.128906 603.484375 351.640625 601.769531 350.03125 600.152344 C 348.425781 598.539062 346.71875 597.035156 344.910156 595.652344 C 343.101562 594.265625 341.210938 593.007812 339.230469 591.878906 C 337.253906 590.75 335.207031 589.757812 333.097656 588.902344 C 330.984375 588.046875 328.824219 587.339844 326.617188 586.777344 L 670.710938 240.210938 C 670.949219 240.007812 671.179688 239.742188 671.421875 239.492188 L 671.4375 239.507812 C 672.628906 238.308594 673.925781 237.238281 675.332031 236.292969 C 676.734375 235.351562 678.214844 234.554688 679.777344 233.90625 C 681.339844 233.257812 682.949219 232.769531 684.605469 232.441406 C 686.265625 232.109375 687.9375 231.945312 689.628906 231.949219 Z M 294.910156 655.675781 C 294.3125 655.074219 293.75 654.441406 293.210938 653.78125 C 292.675781 653.121094 292.175781 652.4375 291.707031 651.730469 C 291.234375 651.023438 290.800781 650.292969 290.402344 649.546875 C 290.003906 648.796875 289.644531 648.027344 289.320312 647.242188 C 288.992188 646.457031 288.707031 645.660156 288.460938 644.847656 C 288.214844 644.035156 288.003906 643.210938 287.839844 642.378906 C 287.671875 641.546875 287.542969 640.707031 287.457031 639.863281 C 287.371094 639.019531 287.324219 638.171875 287.320312 637.324219 C 287.316406 636.472656 287.351562 635.625 287.429688 634.78125 C 287.507812 633.933594 287.625 633.09375 287.78125 632.261719 C 287.941406 631.425781 288.140625 630.601562 288.378906 629.785156 C 288.617188 628.96875 288.894531 628.167969 289.210938 627.378906 C 289.527344 626.59375 289.878906 625.820312 290.269531 625.066406 C 290.660156 624.3125 291.085938 623.578125 291.546875 622.867188 C 292.007812 622.152344 292.503906 621.464844 293.03125 620.800781 C 293.558594 620.132812 294.121094 619.496094 294.710938 618.886719 L 294.9375 618.683594 L 295.351562 618.269531 C 295.949219 617.683594 296.574219 617.132812 297.226562 616.609375 C 297.878906 616.085938 298.554688 615.597656 299.257812 615.140625 C 299.957031 614.6875 300.679688 614.265625 301.421875 613.878906 C 302.160156 613.496094 302.921875 613.148438 303.695312 612.835938 C 304.472656 612.523438 305.261719 612.253906 306.0625 612.019531 C 306.867188 611.785156 307.679688 611.589844 308.5 611.4375 C 309.320312 611.28125 310.148438 611.167969 310.980469 611.097656 C 311.816406 611.023438 312.648438 610.988281 313.484375 611 C 314.320312 611.007812 315.152344 611.054688 315.984375 611.144531 C 316.816406 611.238281 317.640625 611.367188 318.457031 611.539062 C 319.277344 611.707031 320.085938 611.917969 320.882812 612.167969 C 321.679688 612.417969 322.464844 612.707031 323.234375 613.035156 C 324.003906 613.359375 324.753906 613.722656 325.488281 614.125 C 326.222656 614.523438 326.933594 614.960938 327.625 615.429688 C 328.316406 615.898438 328.984375 616.402344 329.625 616.9375 C 330.269531 617.472656 330.882812 618.039062 331.46875 618.632812 C 332.078125 619.230469 332.65625 619.859375 333.203125 620.511719 C 333.75 621.167969 334.265625 621.847656 334.746094 622.554688 C 335.226562 623.257812 335.671875 623.988281 336.082031 624.738281 C 336.492188 625.484375 336.863281 626.253906 337.195312 627.039062 C 337.527344 627.824219 337.824219 628.625 338.078125 629.441406 C 338.332031 630.253906 338.546875 631.082031 338.71875 631.917969 C 338.894531 632.753906 339.027344 633.59375 339.117188 634.445312 C 339.207031 635.292969 339.253906 636.144531 339.261719 637 C 339.269531 637.851562 339.234375 638.703125 339.15625 639.554688 C 339.082031 640.40625 338.960938 641.25 338.800781 642.085938 C 338.640625 642.925781 338.441406 643.753906 338.199219 644.574219 C 337.957031 645.394531 337.675781 646.199219 337.355469 646.988281 C 337.035156 647.78125 336.675781 648.554688 336.277344 649.308594 C 335.878906 650.066406 335.445312 650.800781 334.976562 651.511719 C 334.507812 652.226562 334.003906 652.914062 333.46875 653.578125 C 332.929688 654.242188 332.363281 654.878906 331.761719 655.484375 C 331.164062 656.09375 330.535156 656.667969 329.878906 657.214844 C 329.222656 657.761719 328.539062 658.273438 327.832031 658.753906 C 327.125 659.230469 326.398438 659.671875 325.648438 660.082031 C 324.898438 660.488281 324.128906 660.855469 323.339844 661.1875 C 322.554688 661.519531 321.753906 661.8125 320.9375 662.0625 C 320.121094 662.316406 319.296875 662.527344 318.460938 662.699219 C 317.625 662.871094 316.78125 663 315.929688 663.089844 C 315.082031 663.175781 314.230469 663.222656 313.375 663.226562 C 312.523438 663.234375 311.671875 663.195312 310.820312 663.117188 C 309.972656 663.035156 309.128906 662.914062 308.289062 662.753906 C 307.449219 662.589844 306.621094 662.386719 305.804688 662.144531 C 304.984375 661.898438 304.183594 661.617188 303.390625 661.292969 C 302.601562 660.96875 301.828125 660.609375 301.074219 660.210938 C 300.320312 659.808594 299.585938 659.375 298.875 658.902344 C 298.164062 658.433594 297.476562 657.925781 296.8125 657.386719 C 296.152344 656.847656 295.515625 656.277344 294.910156 655.675781 Z M 294.910156 655.675781 " fill-opacity="1" fill-rule="nonzero"/></g></svg>