<svg xmlns="http://www.w3.org/2000/svg" xmlns:xlink="http://www.w3.org/1999/xlink" width="1000" zoomAndPan="magnify" viewBox="0 0 750 749.999995" height="1000" preserveAspectRatio="xMidYMid meet" version="1.0"><defs><clipPath id="e33b9292e5"><path d="M 15.191406 15.191406 L 734.441406 15.191406 L 734.441406 734.441406 L 15.191406 734.441406 Z M 15.191406 15.191406 " clip-rule="nonzero"/></clipPath></defs><path fill="#ffffff" d="M 304.988281 282.347656 C 304.988281 282.199219 304.835938 282.050781 304.835938 281.898438 C 295.691406 262.109375 275.601562 248.316406 252.367188 248.316406 C 220.433594 248.316406 194.496094 274.253906 194.496094 306.1875 C 194.496094 338.121094 220.433594 363.90625 252.367188 363.90625 C 275.601562 363.90625 295.691406 350.113281 304.835938 330.324219 C 304.835938 330.171875 304.988281 330.023438 304.988281 330.023438 C 308.285156 322.675781 310.085938 314.730469 310.085938 306.1875 C 310.085938 297.640625 308.285156 289.695312 304.988281 282.347656 Z M 252.214844 332.722656 C 237.523438 332.722656 225.53125 320.730469 225.53125 306.035156 C 225.53125 291.34375 237.523438 279.351562 252.214844 279.351562 C 266.90625 279.351562 278.902344 291.34375 278.902344 306.035156 C 278.902344 320.878906 266.90625 332.722656 252.214844 332.722656 Z M 252.214844 332.722656 " fill-opacity="1" fill-rule="nonzero"/><path fill="#ffffff" d="M 525.367188 308.136719 L 508.128906 327.175781 L 475.144531 327.175781 L 463.902344 319.679688 C 462.101562 318.480469 459.554688 318.480469 457.90625 319.828125 L 448.011719 327.175781 L 434.515625 317.582031 C 432.71875 316.230469 430.167969 316.230469 428.371094 317.582031 L 414.878906 327.175781 L 404.382812 318.628906 C 402.433594 317.128906 399.734375 317.128906 397.789062 318.628906 L 387.144531 327.175781 L 317.28125 327.175781 C 319.378906 320.578125 320.578125 313.53125 320.578125 306.1875 C 320.578125 298.839844 319.378906 291.792969 317.28125 285.199219 L 504.828125 285.199219 Z M 525.367188 308.136719 " fill-opacity="1" fill-rule="nonzero"/><path fill="#ffffff" d="M 268.40625 306.1875 C 268.40625 315.03125 261.210938 322.226562 252.367188 322.226562 C 243.519531 322.226562 236.324219 315.03125 236.324219 306.1875 C 236.324219 297.339844 243.519531 290.144531 252.367188 290.144531 C 261.210938 289.996094 268.40625 297.191406 268.40625 306.1875 Z M 268.40625 306.1875 " fill-opacity="1" fill-rule="nonzero"/><path fill="#ffffff" d="M 589.234375 348.3125 L 561.347656 515.472656 C 561.347656 515.472656 561.199219 515.625 561.199219 515.625 L 522.519531 509.175781 C 522.371094 509.175781 522.371094 509.027344 522.371094 508.878906 L 528.367188 472.597656 L 546.207031 366.003906 C 546.207031 365.855469 546.207031 365.703125 546.359375 365.554688 L 550.40625 341.71875 C 550.40625 341.71875 550.554688 341.566406 550.554688 341.566406 C 551.605469 341.867188 553.402344 342.015625 558.5 342.917969 C 565.546875 343.816406 583.988281 346.515625 589.234375 348.3125 Z M 589.234375 348.3125 " fill-opacity="1" fill-rule="nonzero"/><path fill="#ffffff" d="M 534.964844 369.003906 L 518.324219 468.699219 C 403.933594 551.003906 350.710938 534.515625 245.019531 501.832031 C 226.128906 495.984375 206.640625 489.988281 184.601562 483.839844 C 174.257812 481.140625 166.011719 473.046875 162.5625 462.402344 C 158.964844 451.609375 160.765625 440.066406 167.511719 431.667969 C 175.457031 421.175781 188.949219 416.378906 201.84375 419.375 L 317.878906 446.960938 C 316.230469 459.402344 319.679688 471.996094 327.773438 481.742188 C 336.320312 492.085938 348.613281 497.785156 361.808594 497.785156 C 362.707031 497.785156 363.753906 497.785156 364.65625 497.632812 C 374.550781 498.535156 401.234375 485.488281 452.359375 458.355469 C 465.851562 451.308594 477.394531 445.160156 481.140625 443.664062 C 483.839844 442.613281 485.191406 439.613281 484.140625 436.917969 C 483.089844 434.21875 480.09375 432.867188 477.394531 433.917969 C 473.046875 435.566406 462.402344 441.265625 447.410156 449.058594 C 432.269531 457.15625 413.378906 467.050781 397.335938 474.847656 C 372.601562 486.839844 366.753906 487.289062 365.703125 487.140625 C 365.253906 486.988281 364.804688 486.988281 364.355469 486.988281 C 353.261719 487.738281 342.917969 483.390625 335.871094 474.847656 C 328.675781 466.300781 326.277344 455.054688 329.125 444.261719 C 329.125 444.113281 329.125 444.113281 329.273438 443.960938 C 329.273438 443.664062 329.425781 443.511719 329.425781 443.214844 C 332.273438 421.324219 364.207031 409.179688 389.839844 399.4375 C 398.988281 395.988281 407.683594 392.691406 414.128906 389.242188 C 468.847656 366.003906 513.675781 365.253906 534.964844 369.003906 Z M 534.964844 369.003906 " fill-opacity="1" fill-rule="nonzero"/><path fill="#ffffff" d="M 496.734375 216.234375 L 496.734375 221.632812 C 496.734375 224.480469 494.335938 226.878906 491.488281 226.878906 C 488.636719 226.878906 486.238281 224.480469 486.238281 221.632812 L 486.238281 216.234375 C 486.238281 213.386719 488.636719 210.988281 491.488281 210.988281 C 494.335938 210.988281 496.734375 213.386719 496.734375 216.234375 Z M 496.734375 216.234375 " fill-opacity="1" fill-rule="nonzero"/><path fill="#ffffff" d="M 485.488281 232.875 C 485.488281 235.722656 483.089844 238.125 480.242188 238.125 L 474.847656 238.125 C 471.996094 238.125 469.597656 235.722656 469.597656 232.875 C 469.597656 230.027344 471.996094 227.628906 474.847656 227.628906 L 480.242188 227.628906 C 483.089844 227.628906 485.488281 230.027344 485.488281 232.875 Z M 485.488281 232.875 " fill-opacity="1" fill-rule="nonzero"/><path fill="#ffffff" d="M 513.375 232.875 C 513.375 235.722656 510.976562 238.125 508.128906 238.125 L 502.730469 238.125 C 499.882812 238.125 497.484375 235.722656 497.484375 232.875 C 497.484375 230.027344 499.882812 227.628906 502.730469 227.628906 L 508.128906 227.628906 C 510.976562 227.628906 513.375 230.027344 513.375 232.875 Z M 513.375 232.875 " fill-opacity="1" fill-rule="nonzero"/><path fill="#ffffff" d="M 496.734375 244.121094 L 496.734375 249.515625 C 496.734375 252.367188 494.335938 254.765625 491.488281 254.765625 C 488.636719 254.765625 486.238281 252.367188 486.238281 249.515625 L 486.238281 244.121094 C 486.238281 241.269531 488.636719 238.871094 491.488281 238.871094 C 494.335938 238.871094 496.734375 241.269531 496.734375 244.121094 Z M 496.734375 244.121094 " fill-opacity="1" fill-rule="nonzero"/><path fill="#ffffff" d="M 333.320312 374.851562 C 333.320312 377.699219 330.921875 380.097656 328.074219 380.097656 L 322.675781 380.097656 C 319.828125 380.097656 317.429688 377.699219 317.429688 374.851562 C 317.429688 372 319.828125 369.601562 322.675781 369.601562 L 328.074219 369.601562 C 330.921875 369.601562 333.320312 371.851562 333.320312 374.851562 Z M 333.320312 374.851562 " fill-opacity="1" fill-rule="nonzero"/><path fill="#ffffff" d="M 344.566406 358.207031 L 344.566406 363.605469 C 344.566406 366.453125 342.167969 368.851562 339.320312 368.851562 C 336.46875 368.851562 334.070312 366.453125 334.070312 363.605469 L 334.070312 358.207031 C 334.070312 355.359375 336.46875 352.960938 339.320312 352.960938 C 342.167969 352.960938 344.566406 355.210938 344.566406 358.207031 Z M 344.566406 358.207031 " fill-opacity="1" fill-rule="nonzero"/><path fill="#ffffff" d="M 361.207031 374.851562 C 361.207031 377.699219 358.808594 380.097656 355.960938 380.097656 L 350.5625 380.097656 C 347.714844 380.097656 345.316406 377.699219 345.316406 374.851562 C 345.316406 372 347.714844 369.601562 350.5625 369.601562 L 355.960938 369.601562 C 358.808594 369.601562 361.207031 371.851562 361.207031 374.851562 Z M 361.207031 374.851562 " fill-opacity="1" fill-rule="nonzero"/><path fill="#ffffff" d="M 344.566406 386.09375 L 344.566406 391.492188 C 344.566406 394.339844 342.167969 396.738281 339.320312 396.738281 C 336.46875 396.738281 334.070312 394.339844 334.070312 391.492188 L 334.070312 386.09375 C 334.070312 383.246094 336.46875 380.847656 339.320312 380.847656 C 342.167969 380.847656 344.566406 383.09375 344.566406 386.09375 Z M 344.566406 386.09375 " fill-opacity="1" fill-rule="nonzero"/><g clip-path="url(#e33b9292e5)"><path fill="#ffffff" d="M 375 734.804688 C 326.277344 734.804688 279.199219 725.210938 234.976562 706.472656 C 192.246094 688.480469 153.867188 662.546875 120.585938 629.414062 C 87.605469 596.429688 61.667969 557.902344 43.527344 515.023438 C 24.789062 470.796875 15.191406 423.722656 15.191406 375 C 15.191406 326.277344 24.789062 279.199219 43.527344 234.976562 C 61.519531 192.246094 87.453125 153.867188 120.585938 120.585938 C 153.570312 87.605469 192.097656 61.667969 234.976562 43.527344 C 279.199219 24.789062 326.277344 15.191406 375 15.191406 C 423.722656 15.191406 470.796875 24.789062 515.023438 43.527344 C 557.75 61.519531 596.128906 87.453125 629.414062 120.585938 C 662.394531 153.570312 688.332031 192.097656 706.472656 234.976562 C 725.210938 279.5 734.804688 326.574219 734.804688 375 C 734.804688 423.722656 725.210938 470.796875 706.472656 515.023438 C 688.480469 557.75 662.546875 596.128906 629.414062 629.414062 C 596.429688 662.394531 557.902344 688.332031 515.023438 706.472656 C 470.796875 725.210938 423.722656 734.804688 375 734.804688 Z M 375 43.078125 C 191.949219 43.078125 43.078125 191.949219 43.078125 375 C 43.078125 558.050781 191.949219 706.921875 375 706.921875 C 558.050781 706.921875 706.921875 558.050781 706.921875 375 C 706.921875 191.949219 558.050781 43.078125 375 43.078125 Z M 375 43.078125 " fill-opacity="1" fill-rule="nonzero"/></g></svg>