<svg xmlns="http://www.w3.org/2000/svg" xmlns:xlink="http://www.w3.org/1999/xlink" width="1000" zoomAndPan="magnify" viewBox="0 0 750 749.999995" height="1000" preserveAspectRatio="xMidYMid meet" version="1.0"><defs><clipPath id="a439918481"><path d="M 14.75 14.75 L 735.5 14.75 L 735.5 735.5 L 14.75 735.5 Z M 14.75 14.75 " clip-rule="nonzero"/></clipPath></defs><g clip-path="url(#a439918481)"><path fill="#ffffff" d="M 375 14.753906 C 360.160156 14.753906 346.136719 20.449219 335.546875 31.839844 C 335.546875 31.839844 335.425781 31.839844 335.425781 32.011719 C 321.257812 47.195312 299.101562 51.585938 280.195312 42.964844 C 280.195312 42.960938 280.058594 42.953125 280.058594 42.964844 C 251.765625 30.015625 217.980469 43.996094 207.132812 73.144531 C 199.871094 92.664062 181.027344 105.269531 160.191406 104.507812 C 129.097656 103.355469 103.238281 129.203125 104.382812 160.292969 C 105.152344 181.101562 92.535156 199.949219 72.996094 207.207031 C 41.46875 220.070312 31.175781 251.53125 42.792969 280.15625 C 51.46875 299.089844 47.058594 321.3125 31.789062 335.492188 C 20.246094 346.308594 14.71875 360.222656 14.753906 374.988281 C 14.753906 389.757812 20.40625 403.671875 31.789062 414.496094 C 47.058594 428.671875 51.46875 450.894531 42.792969 469.828125 C 29.972656 498.359375 43.15625 530.40625 72.996094 542.777344 C 92.535156 550.039062 105.148438 568.882812 104.382812 589.691406 C 103.238281 620.78125 129.09375 646.625 160.191406 645.476562 C 181.015625 644.703125 199.835938 657.3125 207.105469 676.8125 C 207.113281 676.824219 207.105469 676.824219 207.105469 676.8125 C 217.953125 705.96875 251.738281 719.9375 280.03125 706.992188 C 280.03125 706.980469 280.167969 706.976562 280.167969 706.992188 C 299.070312 698.378906 321.230469 702.777344 335.402344 717.949219 C 335.402344 717.949219 335.539062 717.949219 335.539062 718.121094 C 346.164062 729.550781 359.859375 735.199219 375.015625 735.199219 C 390.175781 735.199219 403.910156 729.480469 414.46875 718.121094 C 414.46875 718.121094 414.589844 718.121094 414.589844 717.949219 C 428.761719 702.765625 450.914062 698.375 469.824219 706.992188 C 469.824219 707 469.960938 707.007812 469.960938 706.992188 C 498.253906 719.9375 532.039062 705.960938 542.886719 676.8125 C 542.890625 676.800781 542.886719 676.796875 542.886719 676.8125 C 550.15625 657.3125 569.003906 644.710938 589.824219 645.476562 C 589.824219 645.476562 589.945312 645.476562 589.945312 645.476562 C 589.945312 645.476562 590.082031 645.476562 590.082031 645.476562 C 621.082031 646.488281 646.832031 620.734375 645.691406 589.71875 C 644.933594 568.90625 657.539062 550.0625 677.078125 542.800781 C 712.429688 528.128906 717.894531 492.652344 707.28125 469.855469 C 698.601562 450.917969 703.019531 428.695312 718.285156 414.519531 C 729.511719 403.523438 735.261719 390.054688 735.261719 375.015625 C 735.261719 359.972656 729.785156 346.40625 718.285156 335.515625 C 703.015625 321.339844 698.601562 299.117188 707.28125 280.183594 C 720.574219 248.503906 703.03125 216.523438 677.078125 207.234375 C 657.539062 199.976562 644.925781 181.128906 645.691406 160.324219 C 646.835938 129.234375 620.976562 103.394531 589.882812 104.535156 C 569.066406 105.308594 550.242188 92.710938 542.964844 73.226562 L 542.964844 73.054688 C 532.117188 43.898438 498.332031 29.925781 470.039062 42.878906 C 470.039062 42.886719 469.921875 42.890625 469.921875 42.878906 C 451.019531 51.488281 428.882812 47.085938 414.710938 31.921875 C 414.710938 31.921875 414.59375 31.921875 414.59375 31.75 C 403.917969 20.355469 389.871094 14.664062 375.03125 14.664062 Z M 589.949219 645.511719 C 590.789062 645.511719 591.617188 645.511719 592.4375 645.339844 Z M 375 40.285156 C 382.46875 40.285156 389.929688 43.316406 395.554688 49.332031 C 395.554688 49.332031 395.691406 49.332031 395.691406 49.332031 C 417.371094 72.644531 451.675781 79.464844 480.628906 66.214844 C 495.644531 59.375 512.871094 66.488281 518.648438 81.921875 C 518.65625 81.933594 518.648438 81.921875 518.648438 81.921875 C 529.746094 111.757812 558.851562 131.183594 590.667969 130.019531 C 607.207031 129.417969 620.425781 142.628906 619.816406 159.144531 L 619.816406 159.316406 C 618.734375 189.703125 636.78125 217.164062 664.421875 229.222656 C 665.476562 230.0625 666.667969 230.734375 667.9375 231.207031 C 683.449219 236.972656 690.605469 254.226562 683.71875 269.253906 C 668.914062 303.671875 680.761719 336.035156 700.605469 354.261719 C 712.726562 365.515625 712.726562 384.195312 700.605469 395.449219 C 675.128906 419.390625 672.019531 452.960938 683.71875 480.484375 C 690.605469 495.511719 683.449219 512.769531 667.9375 518.527344 C 636.667969 530.410156 619.507812 558.972656 619.816406 590.421875 L 619.816406 590.59375 C 620.417969 607.109375 607.207031 620.324219 590.667969 619.71875 C 555.101562 618.378906 528.6875 641.484375 518.652344 667.816406 C 512.878906 683.265625 495.652344 690.390625 480.628906 683.550781 C 451.679688 670.296875 417.371094 677.121094 395.695312 700.4375 C 395.695312 700.4375 395.574219 700.4375 395.574219 700.4375 C 384.328125 712.460938 365.734375 712.460938 354.488281 700.4375 C 354.488281 700.4375 354.367188 700.4375 354.367188 700.4375 C 332.691406 677.117188 298.359375 670.300781 269.40625 683.550781 C 254.386719 690.390625 237.15625 683.257812 231.386719 667.816406 C 220.289062 637.984375 191.1875 618.554688 159.367188 619.722656 C 142.828125 620.339844 129.609375 607.113281 130.21875 590.597656 C 130.824219 552.585938 106.238281 527.609375 82.097656 518.605469 C 66.585938 512.839844 59.429688 495.589844 66.316406 480.558594 C 81.652344 443.851562 68.164062 413.875 49.429688 395.523438 C 37.3125 384.273438 37.3125 365.589844 49.429688 354.339844 C 77.421875 326.496094 76.660156 294.269531 66.316406 269.328125 C 59.429688 254.300781 66.585938 237.046875 82.097656 231.285156 C 115.070312 218.550781 131.238281 187.574219 130.21875 159.390625 L 130.21875 159.21875 C 129.613281 142.703125 142.828125 129.488281 159.367188 130.09375 C 191.1875 131.261719 220.289062 111.832031 231.386719 81.996094 C 237.144531 66.523438 254.398438 59.394531 269.433594 66.238281 C 298.382812 79.492188 332.691406 72.671875 354.367188 49.355469 C 354.367188 49.355469 354.488281 49.355469 354.488281 49.355469 C 360.109375 43.34375 367.550781 40.308594 375.019531 40.308594 L 375.019531 40.300781 Z M 375 40.285156 " fill-opacity="1" fill-rule="nonzero"/></g><path fill="#ffffff" d="M 592.640625 220.707031 C 582.746094 220.980469 572.945312 225.011719 565.675781 232.695312 C 565.675781 232.703125 565.675781 232.710938 565.675781 232.695312 L 374.222656 435.40625 L 273.628906 334.820312 C 258.664062 319.855469 234.015625 319.855469 219.050781 334.820312 C 204.089844 349.785156 204.089844 374.433594 219.050781 389.398438 L 347.710938 518.058594 C 362.96875 533.300781 388.226562 532.953125 403.042969 517.285156 L 621.765625 285.699219 C 636.289062 270.316406 635.601562 245.679688 620.230469 231.144531 C 612.539062 223.882812 602.5625 220.410156 592.664062 220.6875 Z M 620.207031 231.164062 C 619.03125 230.050781 617.660156 229.175781 616.160156 228.570312 Z M 593.34375 246.289062 C 596.605469 246.117188 599.902344 247.371094 602.542969 249.855469 C 607.8125 254.84375 608.046875 262.777344 603.070312 268.050781 L 384.347656 499.613281 C 379.253906 505 371.148438 505.128906 365.902344 499.886719 L 237.246094 371.226562 C 232.113281 366.097656 232.113281 358.164062 237.246094 353.03125 C 242.378906 347.902344 250.304688 347.902344 255.4375 353.03125 L 365.375 462.96875 C 367.832031 465.429688 371.179688 466.785156 374.652344 466.742188 C 378.125 466.742188 381.429688 465.246094 383.820312 462.722656 L 584.371094 250.382812 C 586.863281 247.746094 590.082031 246.378906 593.34375 246.289062 Z M 593.34375 246.289062 " fill-opacity="1" fill-rule="nonzero"/><path fill="#ffffff" d="M 375 104.816406 C 225.933594 104.816406 104.816406 225.933594 104.816406 375 C 104.816406 524.066406 225.929688 645.1875 375 645.183594 C 524.066406 645.183594 645.183594 524.066406 645.183594 375 C 645.183594 357.574219 643.578125 340.714844 640.410156 324.164062 C 639.765625 320.808594 637.820312 317.851562 634.992188 315.9375 C 632.167969 314.019531 628.699219 313.304688 625.34375 313.949219 C 621.992188 314.582031 619.035156 316.539062 617.117188 319.367188 C 615.203125 322.191406 614.488281 325.660156 615.132812 329.011719 C 617.996094 343.980469 619.453125 359.152344 619.453125 375 C 619.453125 510.160156 510.160156 619.449219 375 619.453125 C 239.839844 619.453125 130.546875 510.160156 130.546875 375 C 130.546875 239.839844 239.839844 130.550781 375 130.546875 C 443.074219 130.546875 504.441406 158.226562 548.765625 203.042969 C 551.144531 205.550781 554.4375 207 557.898438 207.054688 C 561.355469 207.054688 564.691406 205.765625 567.152344 203.335938 C 569.613281 200.902344 570.988281 197.582031 570.96875 194.125 C 570.953125 190.664062 569.542969 187.359375 567.058594 184.949219 C 518.101562 135.449219 450.066406 104.816406 375 104.816406 Z M 375 104.816406 " fill-opacity="1" fill-rule="nonzero"/><path fill="#ffffff" d="M 375 156.277344 C 254.316406 156.277344 156.277344 254.359375 156.277344 375 C 156.277344 495.640625 254.316406 593.722656 375 593.722656 C 495.292969 593.722656 593.167969 496.832031 593.71875 376.65625 C 593.738281 373.246094 592.398438 369.964844 590 367.539062 C 587.597656 365.117188 584.332031 363.742188 580.917969 363.726562 C 577.507812 363.710938 574.226562 365.046875 571.804688 367.449219 C 569.375 369.851562 568.007812 373.117188 567.988281 376.53125 C 567.5 482.847656 481.527344 567.984375 375 567.984375 C 268.214844 567.984375 182.011719 481.742188 182.011719 374.996094 C 182.011719 268.253906 268.214844 182.007812 375 182.007812 C 429.351562 182.007812 478.511719 204.578125 513.585938 240.660156 C 515.929688 243.242188 519.222656 244.761719 522.707031 244.875 C 526.191406 245.046875 529.574219 243.675781 532.078125 241.242188 C 534.578125 238.8125 535.984375 235.472656 535.976562 231.984375 C 535.96875 228.5 534.546875 225.164062 532.03125 222.746094 C 492.308594 181.886719 436.480469 156.28125 375 156.28125 Z M 375 156.277344 " fill-opacity="1" fill-rule="nonzero"/><path fill="#ffffff" d="M 589.949219 645.511719 C 590.789062 645.511719 591.617188 645.511719 592.4375 645.339844 Z M 589.949219 645.511719 " fill-opacity="1" fill-rule="nonzero"/><path fill="#ffffff" d="M 589.949219 645.511719 C 590.785156 645.535156 591.617188 645.484375 592.4375 645.359375 Z M 589.949219 645.511719 " fill-opacity="1" fill-rule="nonzero"/></svg>