<svg xmlns="http://www.w3.org/2000/svg" xmlns:xlink="http://www.w3.org/1999/xlink" width="1000" zoomAndPan="magnify" viewBox="0 0 750 749.999995" height="1000" preserveAspectRatio="xMidYMid meet" version="1.0"><defs><clipPath id="f5717ebac5"><path d="M 12.46875 12.46875 L 737.71875 12.46875 L 737.71875 737.71875 L 12.46875 737.71875 Z M 12.46875 12.46875 " clip-rule="nonzero"/></clipPath></defs><path fill="#ffffff" d="M 622.273438 554.292969 C 622.273438 557.582031 624.9375 560.25 628.226562 560.25 L 652.300781 560.25 C 655.59375 560.25 658.257812 557.582031 658.257812 554.292969 L 658.257812 530.21875 C 658.257812 526.929688 655.59375 524.265625 652.300781 524.265625 L 628.226562 524.265625 C 624.9375 524.265625 622.273438 526.929688 622.273438 530.21875 Z M 622.273438 554.292969 " fill-opacity="1" fill-rule="nonzero"/><path fill="#ffffff" d="M 622.273438 622.808594 C 622.273438 626.097656 624.9375 628.761719 628.226562 628.761719 L 652.300781 628.761719 C 655.59375 628.761719 658.257812 626.097656 658.257812 622.808594 L 658.257812 598.734375 C 658.257812 595.445312 655.59375 592.777344 652.300781 592.777344 L 628.226562 592.777344 C 624.9375 592.777344 622.273438 595.445312 622.273438 598.734375 Z M 622.273438 622.808594 " fill-opacity="1" fill-rule="nonzero"/><path fill="#ffffff" d="M 622.273438 691.324219 C 622.273438 694.613281 624.9375 697.277344 628.226562 697.277344 L 652.300781 697.277344 C 655.59375 697.277344 658.257812 694.613281 658.257812 691.324219 L 658.257812 667.25 C 658.257812 663.960938 655.59375 661.292969 652.300781 661.292969 L 628.226562 661.292969 C 624.9375 661.292969 622.273438 663.960938 622.273438 667.25 Z M 622.273438 691.324219 " fill-opacity="1" fill-rule="nonzero"/><path fill="#ffffff" d="M 628.226562 491.75 L 652.300781 491.75 C 655.59375 491.75 658.257812 489.082031 658.257812 485.792969 L 658.257812 461.71875 C 658.257812 458.429688 655.59375 455.765625 652.300781 455.765625 L 628.226562 455.765625 C 624.9375 455.765625 622.273438 458.429688 622.273438 461.71875 L 622.273438 485.792969 C 622.273438 489.082031 624.9375 491.75 628.226562 491.75 Z M 628.226562 491.75 " fill-opacity="1" fill-rule="nonzero"/><path fill="#ffffff" d="M 564.609375 554.292969 C 564.609375 557.582031 567.277344 560.25 570.566406 560.25 L 594.640625 560.25 C 597.929688 560.25 600.59375 557.582031 600.59375 554.292969 L 600.59375 530.21875 C 600.59375 526.929688 597.929688 524.265625 594.640625 524.265625 L 570.566406 524.265625 C 567.277344 524.265625 564.609375 526.929688 564.609375 530.21875 Z M 564.609375 554.292969 " fill-opacity="1" fill-rule="nonzero"/><path fill="#ffffff" d="M 564.609375 622.808594 C 564.609375 626.097656 567.277344 628.761719 570.566406 628.761719 L 594.640625 628.761719 C 597.929688 628.761719 600.59375 626.097656 600.59375 622.808594 L 600.59375 598.734375 C 600.59375 595.445312 597.929688 592.777344 594.640625 592.777344 L 570.566406 592.777344 C 567.277344 592.777344 564.609375 595.445312 564.609375 598.734375 Z M 564.609375 622.808594 " fill-opacity="1" fill-rule="nonzero"/><path fill="#ffffff" d="M 564.609375 691.324219 C 564.609375 694.613281 567.277344 697.277344 570.566406 697.277344 L 594.640625 697.277344 C 597.929688 697.277344 600.59375 694.613281 600.59375 691.324219 L 600.59375 667.25 C 600.59375 663.960938 597.929688 661.292969 594.640625 661.292969 L 570.566406 661.292969 C 567.277344 661.292969 564.609375 663.960938 564.609375 667.25 Z M 564.609375 691.324219 " fill-opacity="1" fill-rule="nonzero"/><path fill="#ffffff" d="M 570.566406 491.75 L 594.640625 491.75 C 597.929688 491.75 600.59375 489.082031 600.59375 485.792969 L 600.59375 461.71875 C 600.59375 458.429688 597.929688 455.765625 594.640625 455.765625 L 570.566406 455.765625 C 567.277344 455.765625 564.609375 458.429688 564.609375 461.71875 L 564.609375 485.792969 C 564.609375 489.082031 567.277344 491.75 570.566406 491.75 Z M 570.566406 491.75 " fill-opacity="1" fill-rule="nonzero"/><path fill="#ffffff" d="M 142.546875 53.414062 C 129.550781 53.414062 119.007812 63.953125 119.007812 76.949219 C 119.007812 89.949219 129.550781 100.488281 142.546875 100.488281 C 155.546875 100.488281 166.085938 89.949219 166.085938 76.949219 C 166.085938 63.9375 155.546875 53.414062 142.546875 53.414062 Z M 142.546875 53.414062 " fill-opacity="1" fill-rule="nonzero"/><path fill="#ffffff" d="M 386.890625 536.265625 C 383.601562 536.265625 380.9375 538.929688 380.9375 542.21875 L 380.9375 689.476562 C 380.9375 692.765625 383.601562 695.433594 386.890625 695.433594 L 410.964844 695.433594 C 414.253906 695.433594 416.921875 692.765625 416.921875 689.476562 L 416.921875 542.21875 C 416.921875 538.929688 414.253906 536.265625 410.964844 536.265625 Z M 386.890625 536.265625 " fill-opacity="1" fill-rule="nonzero"/><path fill="#ffffff" d="M 466.199219 536.265625 C 462.910156 536.265625 460.246094 538.929688 460.246094 542.21875 L 460.246094 689.476562 C 460.246094 692.765625 462.910156 695.433594 466.199219 695.433594 L 490.273438 695.433594 C 493.566406 695.433594 496.230469 692.765625 496.230469 689.476562 L 496.230469 542.21875 C 496.230469 538.929688 493.566406 536.265625 490.273438 536.265625 Z M 466.199219 536.265625 " fill-opacity="1" fill-rule="nonzero"/><path fill="#ffffff" d="M 294.585938 537.589844 L 259.730469 554.5625 C 257.140625 555.828125 256.070312 558.9375 257.320312 561.527344 C 258.226562 563.390625 260.074219 564.460938 262.011719 564.460938 C 262.769531 564.460938 263.558594 564.296875 264.289062 563.941406 L 299.140625 546.96875 C 301.730469 545.703125 302.804688 542.589844 301.554688 540 C 300.289062 537.394531 297.175781 536.324219 294.585938 537.589844 Z M 294.585938 537.589844 " fill-opacity="1" fill-rule="nonzero"/><path fill="#ffffff" d="M 304.5 426.597656 C 305.78125 424.023438 304.738281 420.894531 302.164062 419.617188 L 267.472656 402.316406 C 264.898438 401.035156 261.773438 402.078125 260.492188 404.652344 C 259.210938 407.230469 260.253906 410.355469 262.828125 411.636719 L 297.519531 428.933594 C 298.261719 429.308594 299.050781 429.484375 299.839844 429.484375 C 301.746094 429.484375 303.59375 428.429688 304.5 426.597656 Z M 304.5 426.597656 " fill-opacity="1" fill-rule="nonzero"/><path fill="#ffffff" d="M 525.917969 264.867188 C 526.09375 264.882812 526.273438 264.898438 526.4375 264.898438 C 529.085938 264.898438 531.351562 262.886719 531.617188 260.207031 L 535.476562 221.632812 C 535.757812 218.773438 533.671875 216.214844 530.800781 215.929688 C 527.957031 215.648438 525.378906 217.734375 525.097656 220.589844 L 521.242188 259.167969 C 520.972656 262.023438 523.058594 264.585938 525.917969 264.867188 Z M 525.917969 264.867188 " fill-opacity="1" fill-rule="nonzero"/><path fill="#ffffff" d="M 625.324219 329.347656 C 626.261719 329.347656 627.214844 329.097656 628.0625 328.558594 L 660.996094 308.101562 C 663.4375 306.585938 664.195312 303.367188 662.679688 300.925781 C 661.160156 298.484375 657.945312 297.726562 655.503906 299.246094 L 622.570312 319.703125 C 620.128906 321.21875 619.371094 324.4375 620.886719 326.878906 C 621.886719 328.46875 623.582031 329.347656 625.324219 329.347656 Z M 625.324219 329.347656 " fill-opacity="1" fill-rule="nonzero"/><g clip-path="url(#f5717ebac5)"><path fill="#ffffff" d="M 732.308594 727.097656 L 686.261719 727.097656 L 686.261719 366.195312 C 686.261719 363.324219 683.925781 360.984375 681.050781 360.984375 C 678.175781 360.984375 675.839844 363.324219 675.839844 366.195312 L 675.839844 413.824219 L 587.820312 413.824219 L 587.820312 386.832031 L 650.84375 386.832031 C 653.714844 386.832031 656.054688 384.496094 656.054688 381.621094 C 656.054688 378.746094 653.714844 376.410156 650.84375 376.410156 L 587.820312 376.410156 L 587.820312 340.082031 C 587.820312 337.210938 585.484375 334.871094 582.609375 334.871094 C 579.738281 334.871094 577.398438 337.210938 577.398438 340.082031 L 577.398438 376.410156 L 489.382812 376.410156 L 489.382812 366.195312 C 489.382812 363.324219 487.042969 360.984375 484.171875 360.984375 C 481.296875 360.984375 478.960938 363.324219 478.960938 366.195312 L 478.960938 480.152344 C 478.960938 483.023438 481.296875 485.359375 484.171875 485.359375 C 487.042969 485.359375 489.382812 483.023438 489.382812 480.152344 L 489.382812 424.246094 L 675.839844 424.246094 L 675.839844 727.097656 L 353.945312 727.097656 L 353.945312 511.714844 L 531.871094 511.714844 L 531.871094 706.390625 C 531.871094 709.261719 534.210938 711.601562 537.082031 711.601562 C 539.957031 711.601562 542.292969 709.261719 542.292969 706.390625 L 542.292969 453.8125 C 542.292969 450.941406 539.957031 448.601562 537.082031 448.601562 L 505.296875 448.601562 C 502.421875 448.601562 500.085938 450.941406 500.085938 453.8125 L 500.085938 501.292969 L 464.011719 501.292969 L 464.011719 453.8125 C 464.011719 450.941406 461.675781 448.601562 458.800781 448.601562 L 427.015625 448.601562 C 424.140625 448.601562 421.804688 450.941406 421.804688 453.8125 L 421.804688 501.292969 L 385.714844 501.292969 L 385.714844 453.8125 C 385.714844 450.941406 383.378906 448.601562 380.503906 448.601562 L 348.71875 448.601562 C 345.84375 448.601562 343.507812 450.941406 343.507812 453.8125 L 343.507812 727.097656 L 212.984375 727.097656 L 212.984375 718.570312 C 212.984375 703.949219 201.085938 692.066406 186.484375 692.066406 L 186.109375 692.066406 L 186.109375 145.988281 L 191.292969 145.988281 C 201.222656 145.988281 209.292969 137.917969 209.292969 127.988281 L 209.292969 118.816406 L 409.609375 118.816406 L 409.609375 128.804688 C 409.609375 137.425781 416.621094 144.4375 425.242188 144.4375 L 427.65625 144.4375 L 427.65625 245.410156 C 416.429688 247.6875 407.957031 257.632812 407.957031 269.527344 C 407.957031 271.507812 408.210938 273.445312 408.65625 275.335938 L 347.394531 308.742188 L 329.972656 308.742188 C 323.808594 308.742188 318.808594 313.746094 318.808594 319.910156 L 318.808594 335.972656 C 318.808594 342.136719 323.808594 347.140625 329.972656 347.140625 L 535.476562 347.140625 C 541.636719 347.140625 546.640625 342.136719 546.640625 335.972656 L 546.640625 319.910156 C 546.640625 313.746094 541.636719 308.742188 535.476562 308.742188 L 517.726562 308.742188 L 434.90625 263.738281 C 432.375 262.367188 429.21875 263.304688 427.832031 265.820312 C 426.464844 268.351562 427.402344 271.507812 429.917969 272.894531 L 442.410156 279.683594 C 439.789062 282.214844 436.273438 283.730469 432.554688 283.730469 C 427.089844 283.730469 422.042969 280.53125 419.703125 275.585938 C 418.8125 273.695312 418.351562 271.65625 418.351562 269.542969 C 418.351562 261.710938 424.722656 255.355469 432.539062 255.355469 C 437.125 255.355469 441.457031 257.589844 444.121094 261.339844 C 445.789062 263.675781 449.050781 264.226562 451.386719 262.5625 C 453.738281 260.894531 454.273438 257.648438 452.609375 255.296875 C 449.078125 250.335938 443.867188 246.914062 438.046875 245.574219 L 438.046875 144.46875 L 440.457031 144.46875 C 449.078125 144.46875 456.089844 137.457031 456.089844 128.835938 L 456.089844 118.847656 L 487.089844 118.847656 C 489.960938 118.847656 492.300781 116.507812 492.300781 113.636719 L 492.300781 93.148438 C 492.300781 91.765625 491.75 90.4375 490.78125 89.472656 L 447.902344 46.59375 C 446.921875 45.613281 445.59375 45.058594 444.210938 45.058594 L 209.277344 45.058594 L 209.277344 42.171875 C 209.277344 37.363281 207.398438 32.851562 204.007812 29.441406 L 192.320312 17.753906 C 188.925781 14.359375 184.398438 12.484375 179.589844 12.484375 L 105.476562 12.484375 C 100.667969 12.484375 96.15625 14.359375 92.746094 17.753906 L 81.058594 29.441406 C 80.375 30.128906 79.75 30.886719 79.199219 31.660156 L 28.101562 31.660156 C 19.484375 31.660156 12.46875 38.671875 12.46875 47.292969 L 12.46875 76.398438 C 12.46875 83.726562 17.679688 90.15625 24.84375 91.691406 L 49.15625 96.871094 C 49.527344 96.945312 49.882812 96.988281 50.242188 96.988281 C 52.652344 96.988281 54.8125 95.308594 55.332031 92.867188 C 55.929688 90.050781 54.140625 87.28125 51.328125 86.6875 L 27.015625 81.507812 C 24.632812 81 22.890625 78.855469 22.890625 76.414062 L 22.890625 47.277344 C 22.890625 44.40625 25.230469 42.066406 28.101562 42.066406 L 75.789062 42.066406 C 75.789062 42.097656 75.789062 42.128906 75.789062 42.15625 L 75.789062 127.988281 C 75.789062 137.917969 83.859375 145.988281 93.789062 145.988281 L 98.96875 145.988281 L 98.96875 692.066406 L 98.597656 692.066406 C 83.976562 692.066406 72.097656 703.964844 72.097656 718.570312 L 72.097656 727.097656 L 17.679688 727.097656 C 14.808594 727.097656 12.46875 729.4375 12.46875 732.308594 C 12.46875 735.183594 14.808594 737.519531 17.679688 737.519531 L 732.308594 737.519531 C 735.183594 737.519531 737.519531 735.183594 737.519531 732.308594 C 737.519531 729.4375 735.183594 727.097656 732.308594 727.097656 Z M 577.398438 413.824219 L 489.382812 413.824219 L 489.382812 386.832031 L 577.398438 386.832031 Z M 510.507812 459.023438 L 531.871094 459.023438 L 531.871094 501.292969 L 510.507812 501.292969 Z M 432.226562 459.023438 L 453.589844 459.023438 L 453.589844 501.292969 L 432.226562 501.292969 Z M 353.945312 459.023438 L 375.308594 459.023438 L 375.308594 501.292969 L 353.945312 501.292969 Z M 535.476562 319.152344 C 535.890625 319.152344 536.21875 319.476562 536.21875 319.894531 L 536.21875 335.960938 C 536.21875 336.375 535.890625 336.703125 535.476562 336.703125 L 329.972656 336.703125 C 329.558594 336.703125 329.230469 336.375 329.230469 335.960938 L 329.230469 319.894531 C 329.230469 319.476562 329.558594 319.152344 329.972656 319.152344 Z M 432.566406 294.136719 C 440.132812 294.136719 447.246094 290.59375 451.863281 284.789062 L 495.917969 308.730469 L 369.175781 308.730469 L 413.214844 284.714844 C 417.828125 290.566406 424.960938 294.136719 432.566406 294.136719 Z M 218.671875 108.394531 L 242.730469 88.667969 L 266.789062 108.394531 Z M 300.941406 108.394531 L 325 88.667969 L 349.0625 108.394531 Z M 381.085938 108.394531 L 405.144531 88.667969 L 429.203125 108.394531 Z M 445.699219 128.804688 C 445.699219 131.679688 443.363281 134.015625 440.488281 134.015625 L 425.242188 134.015625 C 422.371094 134.015625 420.03125 131.679688 420.03125 128.804688 L 420.03125 118.816406 L 445.699219 118.816406 Z M 481.90625 95.308594 L 481.90625 108.394531 L 445.640625 108.394531 L 413.363281 81.9375 L 443.691406 57.089844 Z M 429.203125 55.46875 L 405.144531 75.195312 L 381.085938 55.46875 Z M 396.925781 81.921875 L 365.082031 108.023438 L 333.234375 81.921875 L 365.082031 55.824219 Z M 349.0625 55.46875 L 325 75.195312 L 300.941406 55.46875 Z M 284.507812 55.46875 L 316.785156 81.921875 L 284.507812 108.378906 L 283.242188 108.378906 L 250.964844 81.921875 L 283.242188 55.46875 Z M 266.789062 55.46875 L 242.730469 75.195312 L 218.671875 55.46875 Z M 209.304688 61.273438 L 234.511719 81.9375 L 209.304688 102.601562 Z M 93.789062 135.566406 C 89.605469 135.566406 86.210938 132.171875 86.210938 127.988281 L 86.210938 42.15625 C 86.210938 40.132812 87 38.226562 88.429688 36.796875 L 100.117188 25.109375 C 101.546875 23.679688 103.453125 22.890625 105.476562 22.890625 L 179.605469 22.890625 C 181.597656 22.890625 183.550781 23.695312 184.964844 25.109375 L 196.652344 36.796875 C 198.082031 38.226562 198.871094 40.132812 198.871094 42.15625 L 198.871094 127.988281 C 198.871094 132.171875 195.476562 135.566406 191.292969 135.566406 Z M 109.957031 300.601562 L 142.53125 232.738281 L 175.109375 300.601562 L 142.53125 367.640625 Z M 175.121094 458.503906 L 142.546875 526.363281 L 109.972656 458.503906 L 142.546875 391.460938 Z M 112.457031 145.988281 L 172.636719 145.988281 L 142.546875 208.652344 Z M 136.757812 220.695312 L 109.378906 277.71875 L 109.378906 163.675781 Z M 136.742188 379.550781 L 109.390625 435.859375 L 109.390625 323.257812 Z M 136.757812 538.40625 L 109.378906 595.429688 L 109.378906 481.386719 Z M 109.957031 618.3125 L 142.53125 550.453125 L 175.109375 618.3125 L 142.53125 685.351562 Z M 134.210938 692.066406 L 109.390625 692.066406 L 109.390625 640.988281 Z M 175.703125 640.972656 L 175.703125 692.054688 L 150.871094 692.054688 Z M 148.324219 538.40625 L 175.703125 481.386719 L 175.703125 595.429688 Z M 148.339844 379.550781 L 175.703125 323.257812 L 175.703125 435.859375 Z M 148.324219 220.695312 L 175.703125 163.675781 L 175.703125 277.71875 Z M 202.578125 727.097656 L 82.519531 727.097656 L 82.519531 718.570312 C 82.519531 709.695312 89.738281 702.488281 98.597656 702.488281 L 186.484375 702.488281 C 195.355469 702.488281 202.5625 709.710938 202.5625 718.570312 L 202.5625 727.097656 Z M 202.578125 727.097656 " fill-opacity="1" fill-rule="nonzero"/></g></svg>