<svg xmlns="http://www.w3.org/2000/svg" xmlns:xlink="http://www.w3.org/1999/xlink" width="1000" zoomAndPan="magnify" viewBox="0 0 750 749.999995" height="1000" preserveAspectRatio="xMidYMid meet" version="1.0"><defs><clipPath id="03a48dae0b"><path d="M 23.820312 6 L 725.820312 6 L 725.820312 743.824219 L 23.820312 743.824219 Z M 23.820312 6 " clip-rule="nonzero"/></clipPath></defs><g clip-path="url(#03a48dae0b)"><path fill="#ffffff" d="M 408.726562 172.535156 L 474.621094 177.40625 C 478.527344 177.695312 481.691406 180.175781 482.902344 183.898438 C 484.109375 187.621094 483.011719 191.492188 480.019531 194.023438 L 429.574219 236.695312 L 445.304688 300.867188 C 446.234375 304.667969 444.855469 308.449219 441.6875 310.746094 C 438.519531 313.046875 434.496094 313.195312 431.171875 311.136719 L 375 276.34375 L 318.824219 311.136719 C 315.5 313.195312 311.476562 313.046875 308.308594 310.746094 C 305.144531 308.449219 303.761719 304.667969 304.691406 300.867188 L 320.417969 236.695312 L 269.976562 194.023438 C 266.984375 191.492188 265.886719 187.621094 267.09375 183.898438 C 268.304688 180.175781 271.46875 177.695312 275.375 177.40625 L 341.265625 172.535156 L 366.261719 111.371094 C 367.742188 107.746094 371.082031 105.5 375 105.5 C 378.914062 105.5 382.253906 107.746094 383.734375 111.371094 Z M 322.277344 669.367188 C 316.085938 680.382812 309.992188 691.566406 303.410156 702.058594 C 301.078125 706.320312 300.640625 711.191406 301.835938 715.632812 C 303.054688 720.191406 305.980469 724.28125 310.308594 726.777344 C 314.65625 729.289062 319.675781 729.785156 324.246094 728.5625 C 328.808594 727.339844 332.894531 724.414062 335.390625 720.089844 L 337.730469 716.035156 L 337.929688 715.671875 L 338.09375 715.40625 L 357.121094 682.449219 C 359.628906 678.101562 360.128906 673.082031 358.90625 668.511719 C 357.742188 664.164062 355.027344 660.246094 351.03125 657.730469 C 350.605469 657.523438 350.191406 657.28125 349.792969 657.015625 C 345.597656 654.8125 340.839844 654.417969 336.492188 655.582031 C 331.929688 656.800781 327.84375 659.730469 325.34375 664.054688 Z M 282.515625 626.136719 C 285.03125 622.039062 289 619.261719 293.417969 618.078125 C 297.992188 616.855469 303.007812 617.355469 307.355469 619.859375 L 307.410156 619.890625 C 311.707031 622.390625 314.613281 626.460938 315.832031 631.007812 C 317.050781 635.566406 316.558594 640.578125 314.046875 644.90625 L 286.597656 692.476562 C 284.085938 696.570312 280.117188 699.347656 275.699219 700.535156 C 271.132812 701.757812 266.113281 701.261719 261.765625 698.75 L 261.707031 698.722656 C 257.410156 696.222656 254.5 692.148438 253.289062 687.605469 C 252.066406 683.046875 252.558594 678.035156 255.066406 673.707031 Z M 235.277344 585.101562 L 203.207031 640.648438 C 200.328125 645.628906 199.757812 651.367188 201.15625 656.589844 C 202.5 661.605469 205.640625 666.113281 210.269531 669.007812 C 210.65625 669.1875 211.027344 669.398438 211.386719 669.636719 C 216.257812 672.285156 221.804688 672.78125 226.863281 671.425781 C 232.082031 670.023438 236.765625 666.65625 239.648438 661.660156 L 247.511719 648.050781 C 253.492188 637.410156 259.394531 626.632812 265.75 616.480469 L 271.71875 606.152344 C 274.597656 601.164062 275.167969 595.40625 273.765625 590.171875 C 272.414062 585.117188 269.210938 580.570312 264.46875 577.664062 C 264.097656 577.476562 263.738281 577.261719 263.390625 577.027344 C 258.554688 574.460938 253.070312 573.996094 248.058594 575.339844 C 242.84375 576.734375 238.160156 580.105469 235.277344 585.101562 Z M 186.433594 630.9375 L 185.921875 631.851562 L 184.839844 633.726562 C 182.328125 637.824219 178.359375 640.601562 173.941406 641.785156 C 169.59375 642.949219 164.839844 642.558594 160.640625 640.351562 C 160.242188 640.085938 159.828125 639.84375 159.402344 639.636719 C 155.410156 637.121094 152.691406 633.203125 151.53125 628.855469 C 150.3125 624.300781 150.808594 619.296875 153.3125 614.957031 L 162.074219 599.78125 L 162.191406 599.578125 L 180.554688 567.773438 C 183.070312 563.457031 187.140625 560.539062 191.664062 559.328125 C 196.015625 558.160156 200.769531 558.558594 204.96875 560.765625 C 205.367188 561.035156 205.777344 561.273438 206.199219 561.476562 C 210.199219 563.996094 212.90625 567.910156 214.074219 572.261719 C 215.273438 576.746094 214.8125 581.667969 212.40625 585.953125 L 212.289062 586.15625 Z M 582.839844 394.140625 L 652.5 532.480469 L 652.613281 532.703125 L 655.375 538.191406 L 726.160156 502.546875 L 638.550781 328.550781 L 567.765625 364.195312 L 573.410156 375.414062 L 573.503906 375.597656 Z M 347 375.125 C 347.332031 374.875 347.652344 374.597656 347.953125 374.300781 L 354.171875 368.964844 C 356.148438 367.558594 358.289062 366.519531 360.574219 365.847656 C 363.109375 365.105469 365.886719 364.761719 368.882812 364.816406 L 434.949219 365.421875 C 437.097656 365.488281 439.414062 366.074219 441.878906 367.175781 C 444.636719 368.410156 447.59375 370.335938 450.734375 372.9375 C 451.070312 373.214844 451.417969 373.46875 451.78125 373.691406 L 483.625 395.402344 C 487.949219 398.175781 492.609375 400.089844 497.59375 401.136719 C 502.421875 402.152344 507.527344 402.320312 512.894531 401.640625 L 513.808594 401.492188 L 559.609375 391.082031 L 630.640625 532.148438 C 620.003906 537.292969 610.75 543.234375 602.894531 549.964844 C 595.277344 556.496094 588.933594 563.761719 583.875 571.765625 L 358.148438 441.441406 C 354.894531 439.570312 351.003906 439.804688 348.058594 441.714844 C 341.210938 445.863281 334.941406 449.347656 329.269531 452.160156 C 323.878906 454.828125 319.199219 456.78125 315.242188 458.011719 L 314.859375 458.128906 C 305.476562 461.484375 296.644531 463.558594 288.386719 464.328125 C 280.539062 465.058594 273.070312 464.664062 266 463.144531 C 264.921875 462.675781 263.871094 462.171875 262.855469 461.640625 C 259.375 459.808594 257.207031 458.050781 256.375 456.382812 C 255.925781 455.472656 255.984375 454.273438 256.546875 452.78125 Z M 191.226562 389.167969 C 206.722656 396.710938 221.421875 401.96875 236.285156 402.375 C 254.601562 402.878906 272.230469 396.183594 290.234375 377.808594 C 294.664062 374.457031 298.632812 371.980469 302.125 370.398438 C 304.582031 369.292969 306.664062 368.660156 308.367188 368.515625 L 320.964844 371.9375 L 242.585938 439.238281 C 241.582031 440.042969 240.726562 441.0625 240.089844 442.269531 C 239.554688 443.289062 239.089844 444.265625 238.734375 445.199219 C 235.855469 452.214844 235.941406 458.804688 239 464.957031 C 241.710938 470.410156 246.660156 475.023438 253.828125 478.789062 C 255.371094 479.597656 257.117188 480.417969 259.042969 481.21875 C 259.644531 481.492188 260.28125 481.710938 260.945312 481.859375 C 270.195312 483.972656 279.929688 484.546875 290.132812 483.597656 C 300.21875 482.660156 310.640625 480.257812 321.382812 476.410156 C 326.164062 474.890625 331.65625 472.597656 337.839844 469.535156 C 342.511719 467.222656 347.699219 464.386719 353.410156 461.039062 L 583.160156 593.691406 C 587.667969 596.445312 590.722656 600.792969 592.019531 605.636719 C 593.308594 610.460938 592.839844 615.742188 590.328125 620.378906 L 589.777344 621.335938 C 587.007812 625.828125 582.675781 628.871094 577.875 630.15625 C 573.054688 631.441406 567.773438 630.976562 563.136719 628.460938 C 562.726562 628.191406 562.296875 627.953125 561.847656 627.75 L 501.886719 593.136719 C 497.257812 590.476562 491.34375 592.070312 488.6875 596.703125 C 486.027344 601.332031 487.625 607.246094 492.253906 609.90625 L 533.550781 633.757812 C 537.96875 636.515625 540.960938 640.820312 542.242188 645.605469 C 543.578125 650.589844 543.039062 656.070312 540.289062 660.8125 C 537.542969 665.574219 533.074219 668.789062 528.097656 670.121094 C 523.109375 671.457031 517.640625 670.917969 512.894531 668.171875 L 486.035156 652.664062 L 452.152344 633.097656 L 451.941406 632.976562 C 447.304688 630.304688 441.378906 631.878906 438.699219 636.507812 C 436.019531 641.136719 437.597656 647.066406 442.230469 649.75 L 442.425781 649.863281 L 476.324219 669.433594 L 476.546875 669.5625 C 481.183594 672.324219 484.324219 676.730469 485.632812 681.625 C 486.96875 686.613281 486.433594 692.089844 483.683594 696.832031 C 480.9375 701.59375 476.46875 704.808594 471.488281 706.140625 C 466.503906 707.476562 461.027344 706.9375 456.285156 704.191406 L 407.5625 676.0625 C 407.367188 675.945312 407.171875 675.839844 406.972656 675.742188 L 402.484375 673.152344 C 397.855469 670.492188 391.941406 672.089844 389.28125 676.722656 C 386.621094 681.351562 388.21875 687.265625 392.851562 689.921875 L 397.398438 692.550781 L 397.851562 692.832031 L 422.386719 706.996094 C 426.738281 709.753906 429.691406 714.023438 430.960938 718.765625 C 432.296875 723.746094 431.75 729.222656 429.007812 733.96875 L 428.96875 734.039062 C 426.214844 738.765625 421.769531 741.953125 416.816406 743.28125 C 411.820312 744.617188 406.332031 744.074219 401.578125 741.328125 C 387.566406 733.601562 373.398438 725.273438 359.457031 717.082031 L 373.890625 692.082031 C 379.085938 683.082031 380.136719 672.800781 377.644531 663.5 C 375.167969 654.257812 369.171875 645.921875 360.257812 640.707031 L 360.0625 640.59375 C 352.457031 636.199219 343.933594 634.769531 335.863281 635.941406 C 335.875 632.574219 335.4375 629.226562 334.574219 625.996094 C 332.160156 617 326.421875 608.871094 317.902344 603.632812 C 317.335938 603.21875 316.726562 602.867188 316.078125 602.582031 C 309.027344 598.765625 301.25 597.429688 293.800781 598.304688 C 294.09375 593.859375 293.648438 589.414062 292.507812 585.160156 C 289.832031 575.167969 283.351562 566.179688 273.710938 560.625 C 264.035156 555.050781 253.019531 553.925781 243.046875 556.59375 C 238.792969 557.738281 234.710938 559.570312 231.003906 562.046875 C 228.03125 555.164062 222.988281 549.09375 216.152344 544.890625 C 215.585938 544.472656 214.96875 544.117188 214.316406 543.832031 C 205.539062 539.082031 195.644531 538.179688 186.652344 540.589844 C 177.558594 543.023438 169.347656 548.847656 164.128906 557.480469 C 163.855469 557.878906 163.605469 558.304688 163.390625 558.742188 L 157.601562 568.773438 C 150.292969 550.621094 137.277344 542.808594 118.863281 532.878906 Z M 111.441406 328.300781 L 23.832031 502.296875 L 94.617188 537.941406 L 98.089844 531.046875 C 103.117188 520.796875 131.507812 463.113281 178.09375 371.621094 L 178.164062 371.507812 C 178.472656 370.917969 178.835938 370.378906 179.242188 369.882812 L 182.230469 363.945312 Z M 458.601562 121.660156 L 494.875 84.578125 C 498.625 80.765625 498.574219 74.632812 494.761719 70.882812 C 490.949219 67.132812 484.816406 67.183594 481.066406 70.996094 L 444.792969 108.078125 C 441.042969 111.886719 441.09375 118.023438 444.90625 121.769531 C 448.71875 125.519531 454.851562 125.472656 458.601562 121.660156 Z M 305.203125 108.078125 L 268.929688 70.996094 C 265.179688 67.183594 259.046875 67.132812 255.234375 70.882812 C 251.421875 74.632812 251.371094 80.765625 255.121094 84.578125 L 291.394531 121.660156 C 295.144531 125.472656 301.277344 125.519531 305.089844 121.769531 C 308.902344 118.023438 308.953125 111.886719 305.203125 108.078125 Z M 384.710938 67.789062 C 384.710938 73.152344 380.359375 77.5 375 77.5 C 369.632812 77.5 365.285156 73.152344 365.285156 67.789062 L 365.285156 15.917969 C 365.285156 10.554688 369.632812 6.207031 375 6.207031 C 380.359375 6.207031 384.710938 10.554688 384.710938 15.917969 Z M 384.710938 67.789062 " fill-opacity="1" fill-rule="evenodd"/></g></svg>