<svg xmlns="http://www.w3.org/2000/svg" xmlns:xlink="http://www.w3.org/1999/xlink" width="1000" zoomAndPan="magnify" viewBox="0 0 750 749.999995" height="1000" preserveAspectRatio="xMidYMid meet" version="1.0"><defs><clipPath id="16f8d19477"><path d="M 8.777344 413 L 740 413 L 740 731 L 8.777344 731 Z M 8.777344 413 " clip-rule="nonzero"/></clipPath></defs><path fill="#ffffff" d="M 623.722656 203.113281 C 623.722656 154.125 604.65625 108.078125 570.035156 73.457031 C 535.429688 38.847656 489.382812 19.78125 440.390625 19.78125 C 391.414062 19.78125 345.367188 38.847656 310.746094 73.457031 L 263.300781 120.914062 C 191.8125 192.394531 191.8125 308.714844 263.28125 380.214844 C 297.902344 414.8125 343.949219 433.882812 392.925781 433.890625 C 392.945312 433.890625 392.945312 433.890625 392.945312 433.890625 C 441.925781 433.890625 487.972656 414.820312 522.582031 380.203125 L 569.921875 332.863281 C 569.960938 332.824219 570 332.796875 570.027344 332.765625 C 604.644531 298.15625 623.722656 252.113281 623.722656 203.113281 Z M 440.390625 60.527344 C 478.511719 60.527344 514.316406 75.347656 541.238281 102.265625 C 568.15625 129.195312 582.980469 165.003906 582.980469 203.121094 C 582.980469 241.230469 568.15625 277.039062 541.238281 303.96875 C 514.316406 330.878906 478.5 345.710938 440.390625 345.710938 C 402.273438 345.710938 366.46875 330.878906 339.539062 303.96875 C 294.546875 258.964844 285.992188 191.128906 313.835938 137.414062 C 320.707031 124.460938 329.289062 112.535156 339.554688 102.277344 C 366.46875 75.347656 402.285156 60.527344 440.390625 60.527344 Z M 392.9375 393.144531 C 354.808594 393.144531 319.003906 378.316406 292.082031 351.402344 C 253.082031 312.394531 241.441406 256.214844 257.15625 206.976562 C 257.203125 207.023438 257.261719 207.109375 257.308594 207.160156 C 258.308594 252.753906 276.015625 298.042969 310.726562 332.765625 C 344.417969 366.445312 388.957031 385.253906 436.480469 386.242188 C 436.492188 386.292969 436.539062 386.347656 436.539062 386.398438 C 422.636719 390.84375 407.980469 393.144531 392.9375 393.144531 Z M 392.9375 393.144531 " fill-opacity="1" fill-rule="nonzero"/><g clip-path="url(#16f8d19477)"><path fill="#ffffff" d="M 729.199219 487.011719 C 704.160156 448.136719 669.503906 463.746094 652.839844 471.230469 C 630.953125 481.039062 544.382812 523.597656 526.050781 532.617188 C 526.300781 529.835938 526.472656 526.960938 526.472656 523.902344 C 526.472656 482.660156 492.726562 468.382812 474.886719 466.589844 C 474.253906 466.523438 473.609375 466.496094 472.976562 466.496094 L 364.128906 466.496094 C 334.832031 466.496094 318.964844 459.335938 294.085938 448.097656 L 290.085938 446.277344 C 269.179688 436.757812 251.125 428.523438 207.21875 428.523438 C 181.898438 428.523438 159.722656 436.480469 142.984375 445.136719 L 142.984375 433 C 142.984375 422.414062 134.394531 413.824219 123.8125 413.824219 L 27.949219 413.824219 C 17.367188 413.824219 8.777344 422.414062 8.777344 433 L 8.777344 681.839844 C 8.777344 692.421875 17.367188 701.011719 27.949219 701.011719 L 123.820312 701.011719 C 134.40625 701.011719 142.996094 692.421875 142.996094 681.839844 L 142.996094 667.59375 C 147.652344 667.554688 151.957031 667.71875 154.574219 668.234375 C 173.546875 672.125 203.632812 682.519531 243.972656 699.144531 C 289.242188 717.78125 333.699219 730.195312 403.464844 730.195312 C 481.703125 730.195312 686.902344 580.371094 714.273438 560.132812 C 719.269531 557.121094 733.160156 547.351562 737.78125 529.710938 C 740.28125 520.191406 740.820312 505.046875 729.199219 487.011719 Z M 104.648438 662.664062 L 47.125 662.664062 L 47.125 452.171875 L 104.648438 452.171875 Z M 700.726562 519.855469 C 699.84375 523.492188 695.816406 526.519531 694.773438 527.132812 C 693.910156 527.59375 693.078125 528.121094 692.289062 528.695312 C 607.1875 591.777344 453.527344 691.847656 403.464844 691.847656 C 339.777344 691.847656 300.804688 681.070312 258.585938 663.679688 C 215.414062 645.90625 183.910156 635.113281 162.285156 630.683594 C 156.636719 629.523438 149.636719 629.207031 143.003906 629.246094 L 143.003906 490.136719 C 153.953125 482.09375 178.429688 466.890625 207.238281 466.890625 C 242.8125 466.890625 255.296875 472.582031 274.203125 481.191406 L 279.175781 483.445312 C 304.613281 494.929688 326.585938 504.851562 364.136719 504.851562 L 471.675781 504.851562 C 478.183594 505.898438 488.125 509.800781 488.125 523.902344 C 488.125 544.417969 479 547.984375 477.933594 548.332031 L 478.097656 549.25 L 363.964844 549.25 C 358.300781 549.019531 329.328125 548.683594 310.796875 566.421875 C 303.144531 573.753906 302.875 585.882812 310.199219 593.53125 C 317.515625 601.164062 329.664062 601.433594 337.3125 594.136719 C 343.152344 588.546875 356.839844 587.359375 362.363281 587.558594 C 362.746094 587.589844 363.121094 587.597656 363.496094 587.597656 L 479.285156 587.597656 C 500.714844 587.597656 533.519531 571.730469 539.78125 568.605469 C 540.824219 568.089844 645.179688 516.703125 668.5625 506.214844 C 689.808594 496.65625 691.3125 499.015625 696.96875 507.785156 C 699.171875 511.21875 701.628906 516.109375 700.726562 519.855469 Z M 700.726562 519.855469 " fill-opacity="1" fill-rule="nonzero"/></g><path fill="#ffffff" d="M 492.285156 154.976562 C 490.808594 148.179688 488.277344 141.757812 484.914062 135.800781 L 507.328125 135.800781 L 516.914062 107.042969 L 373.109375 107.042969 L 363.523438 135.800781 L 417.132812 135.800781 C 432.378906 135.800781 445.453125 143.683594 451.636719 154.976562 L 373.121094 154.976562 L 363.535156 183.738281 L 451.636719 183.738281 C 445.453125 195.03125 432.378906 202.910156 417.132812 202.910156 L 373.109375 202.910156 L 373.109375 228.566406 L 443.710938 328.988281 L 475.070312 306.929688 L 428.3125 240.414062 C 460.257812 236.003906 485.882812 213.160156 492.277344 183.746094 L 508.574219 183.746094 L 518.160156 154.984375 L 492.285156 154.984375 Z M 492.285156 154.976562 " fill-opacity="1" fill-rule="nonzero"/></svg>